<svg width="200" viewBox="0 0 160 60" fill="none" xmlns="http://www.w3.org/2000/svg">
	<g filter="url(#filter0_di_1975_2)">
		<rect x="10" y="10" width="140" height="40" rx="8" fill="url(#paint0_linear_1975_2)"/>
	</g>
	<path d="M45.5312 24.6328L41.7656 35H40.2266L44.5625 23.625H45.5547L45.5312 24.6328ZM48.6875 35L44.9141 24.6328L44.8906 23.625H45.8828L50.2344 35H48.6875ZM48.4922 30.7891V32.0234H42.1016V30.7891H48.4922ZM52.9844 28.1719V38.25H51.5312V26.5469H52.8594L52.9844 28.1719ZM58.6797 30.7031V30.8672C58.6797 31.4818 58.6068 32.0521 58.4609 32.5781C58.3151 33.099 58.1016 33.5521 57.8203 33.9375C57.5443 34.3229 57.2031 34.6224 56.7969 34.8359C56.3906 35.0495 55.9245 35.1562 55.3984 35.1562C54.862 35.1562 54.388 35.0677 53.9766 34.8906C53.5651 34.7135 53.2161 34.4557 52.9297 34.1172C52.6432 33.7786 52.4141 33.3724 52.2422 32.8984C52.0755 32.4245 51.9609 31.8906 51.8984 31.2969V30.4219C51.9609 29.7969 52.0781 29.237 52.25 28.7422C52.4219 28.2474 52.6484 27.8255 52.9297 27.4766C53.2161 27.1224 53.5625 26.8542 53.9688 26.6719C54.375 26.4844 54.8438 26.3906 55.375 26.3906C55.9062 26.3906 56.3776 26.4948 56.7891 26.7031C57.2005 26.9062 57.5469 27.1979 57.8281 27.5781C58.1094 27.9583 58.3203 28.4141 58.4609 28.9453C58.6068 29.4714 58.6797 30.0573 58.6797 30.7031ZM57.2266 30.8672V30.7031C57.2266 30.2812 57.1823 29.8854 57.0938 29.5156C57.0052 29.1406 56.8672 28.8125 56.6797 28.5312C56.4974 28.2448 56.263 28.0208 55.9766 27.8594C55.6901 27.6927 55.349 27.6094 54.9531 27.6094C54.5885 27.6094 54.2708 27.6719 54 27.7969C53.7344 27.9219 53.5078 28.0911 53.3203 28.3047C53.1328 28.513 52.9792 28.7526 52.8594 29.0234C52.7448 29.2891 52.6589 29.5651 52.6016 29.8516V31.875C52.7057 32.2396 52.8516 32.5833 53.0391 32.9062C53.2266 33.224 53.4766 33.4818 53.7891 33.6797C54.1016 33.8724 54.4948 33.9688 54.9688 33.9688C55.3594 33.9688 55.6953 33.888 55.9766 33.7266C56.263 33.5599 56.4974 33.3333 56.6797 33.0469C56.8672 32.7604 57.0052 32.4323 57.0938 32.0625C57.1823 31.6875 57.2266 31.2891 57.2266 30.8672ZM61.9688 28.1719V38.25H60.5156V26.5469H61.8438L61.9688 28.1719ZM67.6641 30.7031V30.8672C67.6641 31.4818 67.5911 32.0521 67.4453 32.5781C67.2995 33.099 67.0859 33.5521 66.8047 33.9375C66.5286 34.3229 66.1875 34.6224 65.7812 34.8359C65.375 35.0495 64.9089 35.1562 64.3828 35.1562C63.8464 35.1562 63.3724 35.0677 62.9609 34.8906C62.5495 34.7135 62.2005 34.4557 61.9141 34.1172C61.6276 33.7786 61.3984 33.3724 61.2266 32.8984C61.0599 32.4245 60.9453 31.8906 60.8828 31.2969V30.4219C60.9453 29.7969 61.0625 29.237 61.2344 28.7422C61.4062 28.2474 61.6328 27.8255 61.9141 27.4766C62.2005 27.1224 62.5469 26.8542 62.9531 26.6719C63.3594 26.4844 63.8281 26.3906 64.3594 26.3906C64.8906 26.3906 65.362 26.4948 65.7734 26.7031C66.1849 26.9062 66.5312 27.1979 66.8125 27.5781C67.0938 27.9583 67.3047 28.4141 67.4453 28.9453C67.5911 29.4714 67.6641 30.0573 67.6641 30.7031ZM66.2109 30.8672V30.7031C66.2109 30.2812 66.1667 29.8854 66.0781 29.5156C65.9896 29.1406 65.8516 28.8125 65.6641 28.5312C65.4818 28.2448 65.2474 28.0208 64.9609 27.8594C64.6745 27.6927 64.3333 27.6094 63.9375 27.6094C63.5729 27.6094 63.2552 27.6719 62.9844 27.7969C62.7188 27.9219 62.4922 28.0911 62.3047 28.3047C62.1172 28.513 61.9635 28.7526 61.8438 29.0234C61.7292 29.2891 61.6432 29.5651 61.5859 29.8516V31.875C61.6901 32.2396 61.8359 32.5833 62.0234 32.9062C62.2109 33.224 62.4609 33.4818 62.7734 33.6797C63.0859 33.8724 63.4792 33.9688 63.9531 33.9688C64.3438 33.9688 64.6797 33.888 64.9609 33.7266C65.2474 33.5599 65.4818 33.3333 65.6641 33.0469C65.8516 32.7604 65.9896 32.4323 66.0781 32.0625C66.1667 31.6875 66.2109 31.2891 66.2109 30.8672ZM73.0938 30.8672V30.6875C73.0938 30.0781 73.1823 29.513 73.3594 28.9922C73.5365 28.4661 73.7917 28.0104 74.125 27.625C74.4583 27.2344 74.862 26.9323 75.3359 26.7188C75.8099 26.5 76.3411 26.3906 76.9297 26.3906C77.5234 26.3906 78.0573 26.5 78.5312 26.7188C79.0104 26.9323 79.4167 27.2344 79.75 27.625C80.0885 28.0104 80.3464 28.4661 80.5234 28.9922C80.7005 29.513 80.7891 30.0781 80.7891 30.6875V30.8672C80.7891 31.4766 80.7005 32.0417 80.5234 32.5625C80.3464 33.0833 80.0885 33.5391 79.75 33.9297C79.4167 34.3151 79.013 34.6172 78.5391 34.8359C78.0703 35.0495 77.5391 35.1562 76.9453 35.1562C76.3516 35.1562 75.8177 35.0495 75.3438 34.8359C74.8698 34.6172 74.4635 34.3151 74.125 33.9297C73.7917 33.5391 73.5365 33.0833 73.3594 32.5625C73.1823 32.0417 73.0938 31.4766 73.0938 30.8672ZM74.5391 30.6875V30.8672C74.5391 31.2891 74.5885 31.6875 74.6875 32.0625C74.7865 32.4323 74.9349 32.7604 75.1328 33.0469C75.3359 33.3333 75.5885 33.5599 75.8906 33.7266C76.1927 33.888 76.5443 33.9688 76.9453 33.9688C77.3411 33.9688 77.6875 33.888 77.9844 33.7266C78.2865 33.5599 78.5365 33.3333 78.7344 33.0469C78.9323 32.7604 79.0807 32.4323 79.1797 32.0625C79.2839 31.6875 79.3359 31.2891 79.3359 30.8672V30.6875C79.3359 30.2708 79.2839 29.8776 79.1797 29.5078C79.0807 29.1328 78.9297 28.8021 78.7266 28.5156C78.5286 28.224 78.2786 27.9948 77.9766 27.8281C77.6797 27.6615 77.3307 27.5781 76.9297 27.5781C76.5339 27.5781 76.1849 27.6615 75.8828 27.8281C75.5859 27.9948 75.3359 28.224 75.1328 28.5156C74.9349 28.8021 74.7865 29.1328 74.6875 29.5078C74.5885 29.8776 74.5391 30.2708 74.5391 30.6875ZM74.3516 24.2891C74.3516 24.0547 74.4245 23.8568 74.5703 23.6953C74.7161 23.5339 74.9271 23.4531 75.2031 23.4531C75.4844 23.4531 75.6979 23.5339 75.8438 23.6953C75.9896 23.8568 76.0625 24.0547 76.0625 24.2891C76.0625 24.513 75.9896 24.7057 75.8438 24.8672C75.6979 25.0234 75.4844 25.1016 75.2031 25.1016C74.9271 25.1016 74.7161 25.0234 74.5703 24.8672C74.4245 24.7057 74.3516 24.513 74.3516 24.2891ZM77.7188 24.3047C77.7188 24.0703 77.7891 23.8724 77.9297 23.7109C78.0755 23.5495 78.2891 23.4688 78.5703 23.4688C78.8464 23.4688 79.0573 23.5495 79.2031 23.7109C79.3542 23.8724 79.4297 24.0703 79.4297 24.3047C79.4297 24.5286 79.3542 24.7214 79.2031 24.8828C79.0573 25.0391 78.8464 25.1172 78.5703 25.1172C78.2891 25.1172 78.0755 25.0391 77.9297 24.8828C77.7891 24.7214 77.7188 24.5286 77.7188 24.3047ZM84.7578 35H83.3125V25.6562C83.3125 25.0469 83.4219 24.5339 83.6406 24.1172C83.8646 23.6953 84.1849 23.3776 84.6016 23.1641C85.0182 22.9453 85.513 22.8359 86.0859 22.8359C86.2526 22.8359 86.4193 22.8464 86.5859 22.8672C86.7578 22.888 86.9245 22.9193 87.0859 22.9609L87.0078 24.1406C86.8984 24.1146 86.7734 24.0964 86.6328 24.0859C86.4974 24.0755 86.362 24.0703 86.2266 24.0703C85.9193 24.0703 85.6536 24.1328 85.4297 24.2578C85.2109 24.3776 85.0443 24.5547 84.9297 24.7891C84.8151 25.0234 84.7578 25.3125 84.7578 25.6562V35ZM86.5547 26.5469V27.6562H81.9766V26.5469H86.5547ZM90.3203 35H88.875V25.6562C88.875 25.0469 88.9844 24.5339 89.2031 24.1172C89.4271 23.6953 89.7474 23.3776 90.1641 23.1641C90.5807 22.9453 91.0755 22.8359 91.6484 22.8359C91.8151 22.8359 91.9818 22.8464 92.1484 22.8672C92.3203 22.888 92.487 22.9193 92.6484 22.9609L92.5703 24.1406C92.4609 24.1146 92.3359 24.0964 92.1953 24.0859C92.0599 24.0755 91.9245 24.0703 91.7891 24.0703C91.4818 24.0703 91.2161 24.1328 90.9922 24.2578C90.7734 24.3776 90.6068 24.5547 90.4922 24.7891C90.3776 25.0234 90.3203 25.3125 90.3203 25.6562V35ZM92.1172 26.5469V27.6562H87.5391V26.5469H92.1172ZM95.1719 28.3516V35H93.7266V26.5469H95.0938L95.1719 28.3516ZM94.8281 30.4531L94.2266 30.4297C94.2318 29.8516 94.3177 29.3177 94.4844 28.8281C94.651 28.3333 94.8854 27.9036 95.1875 27.5391C95.4896 27.1745 95.849 26.8932 96.2656 26.6953C96.6875 26.4922 97.1536 26.3906 97.6641 26.3906C98.0807 26.3906 98.4557 26.4479 98.7891 26.5625C99.1224 26.6719 99.4062 26.849 99.6406 27.0938C99.8802 27.3385 100.062 27.6562 100.188 28.0469C100.312 28.4323 100.375 28.9036 100.375 29.4609V35H98.9219V29.4453C98.9219 29.0026 98.8568 28.6484 98.7266 28.3828C98.5964 28.112 98.4062 27.9167 98.1562 27.7969C97.9062 27.6719 97.599 27.6094 97.2344 27.6094C96.875 27.6094 96.5469 27.6849 96.25 27.8359C95.9583 27.987 95.7057 28.1953 95.4922 28.4609C95.2839 28.7266 95.1198 29.0312 95 29.375C94.8854 29.7135 94.8281 30.0729 94.8281 30.4531ZM106.078 35.1562C105.49 35.1562 104.956 35.0573 104.477 34.8594C104.003 34.6562 103.594 34.3724 103.25 34.0078C102.911 33.6432 102.651 33.2109 102.469 32.7109C102.286 32.2109 102.195 31.6641 102.195 31.0703V30.7422C102.195 30.0547 102.297 29.4427 102.5 28.9062C102.703 28.3646 102.979 27.9062 103.328 27.5312C103.677 27.1562 104.073 26.8724 104.516 26.6797C104.958 26.487 105.417 26.3906 105.891 26.3906C106.495 26.3906 107.016 26.4948 107.453 26.7031C107.896 26.9115 108.258 27.2031 108.539 27.5781C108.82 27.9479 109.029 28.3854 109.164 28.8906C109.299 29.3906 109.367 29.9375 109.367 30.5312V31.1797H103.055V30H107.922V29.8906C107.901 29.5156 107.823 29.151 107.688 28.7969C107.557 28.4427 107.349 28.151 107.062 27.9219C106.776 27.6927 106.385 27.5781 105.891 27.5781C105.562 27.5781 105.26 27.6484 104.984 27.7891C104.708 27.9245 104.471 28.1276 104.273 28.3984C104.076 28.6693 103.922 29 103.812 29.3906C103.703 29.7812 103.648 30.2318 103.648 30.7422V31.0703C103.648 31.4714 103.703 31.849 103.812 32.2031C103.927 32.5521 104.091 32.8594 104.305 33.125C104.523 33.3906 104.786 33.599 105.094 33.75C105.406 33.901 105.76 33.9766 106.156 33.9766C106.667 33.9766 107.099 33.8724 107.453 33.6641C107.807 33.4557 108.117 33.1771 108.383 32.8281L109.258 33.5234C109.076 33.7995 108.844 34.0625 108.562 34.3125C108.281 34.5625 107.935 34.7656 107.523 34.9219C107.117 35.0781 106.635 35.1562 106.078 35.1562ZM112.5 28.3516V35H111.055V26.5469H112.422L112.5 28.3516ZM112.156 30.4531L111.555 30.4297C111.56 29.8516 111.646 29.3177 111.812 28.8281C111.979 28.3333 112.214 27.9036 112.516 27.5391C112.818 27.1745 113.177 26.8932 113.594 26.6953C114.016 26.4922 114.482 26.3906 114.992 26.3906C115.409 26.3906 115.784 26.4479 116.117 26.5625C116.451 26.6719 116.734 26.849 116.969 27.0938C117.208 27.3385 117.391 27.6562 117.516 28.0469C117.641 28.4323 117.703 28.9036 117.703 29.4609V35H116.25V29.4453C116.25 29.0026 116.185 28.6484 116.055 28.3828C115.924 28.112 115.734 27.9167 115.484 27.7969C115.234 27.6719 114.927 27.6094 114.562 27.6094C114.203 27.6094 113.875 27.6849 113.578 27.8359C113.286 27.987 113.034 28.1953 112.82 28.4609C112.612 28.7266 112.448 29.0312 112.328 29.375C112.214 29.7135 112.156 30.0729 112.156 30.4531Z" fill="white"/>
	<defs>
		<filter id="filter0_di_1975_2" x="6" y="8" width="148" height="48" filterUnits="userSpaceOnUse" color-interpolation-filters="sRGB">
			<feFlood flood-opacity="0" result="BackgroundImageFix"/>
			<feColorMatrix in="SourceAlpha" type="matrix" values="0 0 0 0 0 0 0 0 0 0 0 0 0 0 0 0 0 0 127 0" result="hardAlpha"/>
			<feOffset dy="2"/>
			<feGaussianBlur stdDeviation="2"/>
			<feComposite in2="hardAlpha" operator="out"/>
			<feColorMatrix type="matrix" values="0 0 0 0 0 0 0 0 0 0 0 0 0 0 0 0 0 0 0.25 0"/>
			<feBlend mode="normal" in2="BackgroundImageFix" result="effect1_dropShadow_1975_2"/>
			<feBlend mode="normal" in="SourceGraphic" in2="effect1_dropShadow_1975_2" result="shape"/>
			<feColorMatrix in="SourceAlpha" type="matrix" values="0 0 0 0 0 0 0 0 0 0 0 0 0 0 0 0 0 0 127 0" result="hardAlpha"/>
			<feOffset dx="-1" dy="-2"/>
			<feGaussianBlur stdDeviation="2"/>
			<feComposite in2="hardAlpha" operator="arithmetic" k2="-1" k3="1"/>
			<feColorMatrix type="matrix" values="0 0 0 0 0 0 0 0 0 0 0 0 0 0 0 0 0 0 0.15 0"/>
			<feBlend mode="normal" in2="shape" result="effect2_innerShadow_1975_2"/>
		</filter>
		<linearGradient id="paint0_linear_1975_2" x1="69.5" y1="10" x2="69.5" y2="53" gradientUnits="userSpaceOnUse">
			<stop stop-color="#25F0FD"/>
			<stop offset="1" stop-color="#A234B4"/>
		</linearGradient>
	</defs>
</svg>
