<svg fill="none" width="250px" xmlns="http://www.w3.org/2000/svg" viewBox="0 0 160 160" style="transform-origin:center;animation:spinLogo 5s cubic-bezier(.4,0,.2,1) infinite forwards"><style>@keyframes spinLogo{0%,to{transform:rotate(0deg)}18%{transform:rotate(-30deg)}30%{transform:rotate(50deg)}48%{transform:rotate(-15deg)}70%{transform:rotate(5deg)}}@keyframes spinArrow{0%{transform:rotate(0deg)}18%{transform:rotate(-30deg)}42%{transform:rotate(510deg)}to{transform:rotate(360deg)}}</style><circle class="prefix__bg" fill="#fff" fill-opacity="0.1" cx="80" cy="80" r="74"/><path class="prefix__border" fill="#FF3E00" fill-rule="evenodd" clip-rule="evenodd" d="M78.02 10.03L80 8l1.98 2.03a70 70 0 0168 68L152 80l-2.03 1.98a70 70 0 01-68 68L80 152l-1.98-2.03a70 70 0 01-68-68L8 80l2.03-1.98a70 70 0 0168-68zM78.6 13A67 67 0 0013 78.6l7 1.4-6.99 1.4A67 67 0 0078.6 147l1.4-7 1.4 6.99A67 67 0 00147 81.4l-7-1.4 6.99-1.4A67 67 0 0081.4 13L80 20l-1.4-6.99z"/><path class="prefix__border-dashes" fill="#676778" fill-opacity=".5" fill-rule="evenodd" clip-rule="evenodd" d="M143.66 86.66l-3.98-.41-.1.96 3.96.47.12-1.02zm-1.14 7.09l-3.9-.86-.22.94 3.9.92.22-1zm-1.93 6.91l-3.78-1.29-.32.9 3.76 1.36.34-.97zm-2.7 6.65l-3.61-1.7-.42.86 3.6 1.77.44-.93zm-3.42 6.3l-3.4-2.1-.51.82 3.36 2.16.55-.87zm-4.11 5.9l-3.15-2.48-.6.75 3.1 2.52.65-.8zm-4.74 5.38l-2.86-2.8-.68.67 2.81 2.86.73-.73zm-5.32 4.83l-2.52-3.1-.75.6 2.47 3.14.8-.64zm-5.81 4.2l-2.16-3.36-.81.5 2.1 3.41.87-.55zm-6.25 3.53l-1.77-3.59-.87.42 1.71 3.62.93-.45zm-6.61 2.8l-1.35-3.76-.91.32 1.3 3.78.96-.34zm-6.88 2.04l-.92-3.9-.94.22.86 3.91 1-.23zm-7.07 1.25l-.47-3.97c-.32.04-.64.08-.96.1l.4 3.99c.35-.04.69-.07 1.03-.12zm-14.34.12l.41-3.98a60.4 60.4 0 01-.95-.1l-.48 3.96 1.02.12zm-7.09-1.14l.86-3.9-.94-.22-.92 3.9a66 66 0 001 .22zm-6.91-1.93l1.29-3.78-.9-.32-1.36 3.76.97.34zm-6.65-2.7l1.7-3.61a54.3 54.3 0 01-.86-.42l-1.77 3.6.93.44zm-6.3-3.42l2.1-3.4-.82-.51-2.16 3.36.87.55zm-5.9-4.11l2.48-3.15-.75-.6-2.52 3.1.8.65zm-5.38-4.74l2.8-2.86-.67-.68-2.86 2.81.73.73zm-4.83-5.32l3.1-2.52-.6-.75-3.14 2.47.64.8zm-4.2-5.81l3.37-2.16-.52-.81-3.4 2.1.55.87zm-3.53-6.25l3.59-1.77-.42-.87-3.62 1.71.45.93zm-2.8-6.61l3.76-1.35-.32-.91-3.78 1.3.34.96zm-2.04-6.88l3.9-.92-.22-.94-3.91.86.23 1zm-1.25-7.07l3.97-.47a59 59 0 01-.1-.96l-3.99.4.12 1.03zm-.12-14.34l3.98.41.1-.95-3.96-.48-.12 1.02zm1.14-7.09l3.9.86.22-.94-3.9-.92-.22 1zm1.93-6.91l3.78 1.29.32-.9-3.76-1.36-.34.97zm2.7-6.65l3.61 1.7.42-.86-3.59-1.77-.45.93zm3.42-6.3l3.4 2.1.52-.82-3.37-2.16-.55.87zm4.11-5.9l3.15 2.48.6-.75-3.1-2.52-.65.8zm4.74-5.38l2.85 2.8.69-.68-2.81-2.85-.73.73zm5.32-4.83l2.52 3.1.75-.6-2.47-3.14-.8.64zm5.81-4.2l2.16 3.37.82-.52-2.1-3.4-.88.55zm6.25-3.53l1.77 3.59.87-.42-1.71-3.62-.93.45zm6.61-2.8l1.35 3.76.91-.32-1.29-3.78c-.32.1-.65.22-.97.34zm6.88-2.04l.92 3.9.94-.22-.86-3.91-1 .23zm7.07-1.25l.48 3.97c.31-.04.63-.08.95-.1l-.4-3.99-1.03.12zm14.34-.12l-.41 3.98.96.1.47-3.96a64.8 64.8 0 00-1.02-.12zm7.09 1.14l-.86 3.9.94.22.92-3.9-1-.22zm6.91 1.93l-1.29 3.78.9.32 1.36-3.76-.97-.34zm6.65 2.7l-1.7 3.61.86.42 1.77-3.6-.93-.44zm6.3 3.42l-2.1 3.4.82.52 2.16-3.37-.87-.55zm5.9 4.11l-2.48 3.15.75.6 2.52-3.1-.8-.65zm5.38 4.74l-2.8 2.85.67.69 2.86-2.81-.73-.73zm4.83 5.32l-3.1 2.52.6.75 3.14-2.47-.64-.8zm4.2 5.81l-3.36 2.16.5.82 3.41-2.1-.55-.88zm3.53 6.25l-3.59 1.77.42.87 3.62-1.71-.45-.93zm2.8 6.61l-3.76 1.35.32.91 3.78-1.3a63.5 63.5 0 00-.34-.96zm2.04 6.88l-3.89.92.21.94 3.91-.86a66 66 0 00-.23-1zm1.25 7.07l-3.97.48c.04.31.08.63.1.95l3.99-.4c-.04-.35-.07-.69-.12-1.03z"/><path class="prefix__center-star" fill="#D4D4DC" d="M83.51 72.16L80 44.64l-3.51 27.52L65 65l7.16 11.49L44.64 80l27.52 3.51L65 95l11.49-7.16L80 115.36l3.51-27.52L95 95l-7.16-11.49L115.36 80l-27.52-3.51L95 65l-11.49 7.16z"/><path class="prefix__font" fill="#676778" d="M42.83 121.65a.25.25 0 01-.08-.22l.42-3.2a.27.27 0 00-.1-.23l-.17-.16-1.46-1.31a.25.25 0 00-.35.01l-1.58 1.75c-.1.1-.25.1-.36.01l-.97-.88a.25.25 0 01-.02-.36l6.25-6.88c.1-.1.25-.11.36-.02l2.8 2.55a5.38 5.38 0 011.35 1.8c.28.63.37 1.25.27 1.86-.1.62-.4 1.19-.88 1.72-.5.55-1.06.9-1.69 1.04-.52.14-1.07.12-1.63-.05a.27.27 0 00-.35.21l-.4 3.11a.25.25 0 01-.4.15l-1-.9zm4.12-4.8c.42-.46.6-.95.52-1.47-.08-.53-.41-1.06-1-1.6l-1.4-1.25a.25.25 0 00-.35.01l-2.29 2.52c-.09.1-.08.26.02.36l1.4 1.26c.58.53 1.14.81 1.67.84a1.8 1.8 0 001.43-.66zm8.24 12.7a5.64 5.64 0 01-2.2-1.7 4.89 4.89 0 01-.5-5.08 4.92 4.92 0 014.16-2.9c.92-.07 1.83.1 2.73.52.91.41 1.64.99 2.19 1.72a4.79 4.79 0 01.51 5.06 4.95 4.95 0 01-4.17 2.92c-.9.06-1.82-.12-2.72-.54zm.66-1.45c.6.27 1.19.39 1.79.34.6-.05 1.14-.25 1.63-.6.5-.36.87-.84 1.15-1.44.27-.59.38-1.19.32-1.79a3.13 3.13 0 00-.6-1.63 3.49 3.49 0 00-1.42-1.14 3.5 3.5 0 00-1.8-.33c-.59.05-1.13.25-1.62.61a3.5 3.5 0 00-1.15 1.42c-.27.6-.38 1.2-.33 1.8.05.6.26 1.14.6 1.63.36.48.84.86 1.43 1.13zm15.96 6.16a4.28 4.28 0 01-3.02-1.48c-.66-.84-.92-1.97-.76-3.38l.6-5.25a.25.25 0 01.27-.22l1.31.15c.14.02.24.14.22.28l-.58 5.17c-.22 1.91.5 2.96 2.15 3.15 1.64.18 2.57-.68 2.79-2.6l.58-5.17a.25.25 0 01.28-.22l1.28.14c.14.02.24.14.22.28l-.59 5.25c-.16 1.4-.66 2.45-1.5 3.13-.82.66-1.9.92-3.25.77zm13.93-8.28a.25.25 0 00-.29-.2l-2.7.48a.25.25 0 01-.29-.2l-.18-1.03a.25.25 0 01.2-.28l7.7-1.38c.13-.03.26.06.28.2l.19 1.02a.25.25 0 01-.2.3l-2.71.48a.25.25 0 00-.2.29l1.37 7.63a.25.25 0 01-.2.3l-1.3.23a.25.25 0 01-.3-.2l-1.37-7.64zm19.31.19c.12-.06.27 0 .33.12l.45.92c.06.13 0 .28-.12.34l-6.18 2.97a.25.25 0 01-.33-.12l-4.03-8.38a.25.25 0 01.12-.34l6-2.88c.12-.06.27 0 .33.12l.44.92c.06.13.01.28-.11.34l-4.36 2.1a.25.25 0 00-.12.33l.89 1.84c.06.13.21.18.33.12l3.82-1.84c.12-.06.27 0 .33.12l.43.9c.06.13.01.27-.11.33l-3.82 1.84a.25.25 0 00-.11.33l.95 1.99c.06.12.2.17.33.11l4.54-2.18zm12.64-7.7a.25.25 0 01-.23.06l-3.14-.71a.27.27 0 00-.24.07l-.17.16-1.45 1.32c-.1.1-.11.25-.02.35l1.58 1.75c.1.1.09.25-.01.35l-.98.89c-.1.09-.26.08-.35-.02l-6.26-6.88a.25.25 0 01.02-.36l2.8-2.54a5.38 5.38 0 011.92-1.18 3.22 3.22 0 011.89-.09c.6.17 1.14.51 1.62 1.04.5.55.79 1.14.88 1.78.08.54 0 1.08-.21 1.63-.06.15.02.32.18.36l3.05.69c.2.04.27.3.12.43l-1 .9zm-4.38-4.55c-.42-.47-.9-.68-1.42-.66-.53.03-1.09.31-1.68.85l-1.39 1.26c-.1.1-.1.25-.01.35l2.29 2.52c.09.1.25.11.35.02l1.39-1.26c.59-.54.92-1.07 1-1.6a1.8 1.8 0 00-.53-1.48zM47.77 48.89c-.56.51-1.17.93-1.84 1.25-.59.28-1.13.44-1.62.48a.24.24 0 01-.24-.16l-.33-.99a.27.27 0 01.21-.34 5.4 5.4 0 002.8-1.35 3 3 0 00.96-1.36c.1-.42.03-.77-.23-1.05a.86.86 0 00-.69-.3c-.27 0-.55.06-.85.2-.3.13-.68.32-1.16.59-.67.37-1.24.65-1.7.84-.46.18-.94.24-1.44.2a2.3 2.3 0 01-1.4-.81c-.37-.4-.6-.86-.68-1.38-.08-.53 0-1.1.27-1.68.26-.6.7-1.19 1.34-1.77.44-.4.92-.74 1.45-1.02.46-.25.9-.41 1.34-.5.12-.03.23.04.27.15l.36.97c.06.14-.03.3-.18.34a5.61 5.61 0 00-2.23 1.19c-.53.48-.84.94-.94 1.35-.09.42 0 .77.27 1.07.2.2.42.3.68.3.27 0 .56-.08.85-.2.3-.14.69-.34 1.17-.6.65-.37 1.2-.64 1.68-.82.46-.19.94-.25 1.43-.2.5.05.97.3 1.4.78.36.4.59.86.66 1.38.09.52 0 1.08-.27 1.67-.26.6-.71 1.19-1.34 1.77zm11.68-18.93c.16-.07.35.04.35.22l.31 10.14c0 .1-.05.2-.14.24l-1.33.62a.25.25 0 01-.27-.04l-7.65-6.67a.25.25 0 01.06-.41l1.3-.61a.23.23 0 01.26.04l5.63 4.95c.16.14.42.02.41-.2l-.23-7.5c0-.1.05-.19.14-.23l1.16-.55zm17.58 4.61c.14-.01.27.08.28.22l.14 1.02a.25.25 0 01-.22.28l-6.79.89a.25.25 0 01-.28-.22l-1.2-9.22a.25.25 0 01.2-.28l6.6-.86c.14-.02.27.07.28.21l.14 1.02a.25.25 0 01-.22.28l-4.79.63a.25.25 0 00-.22.28l.27 2.03c.02.14.14.23.28.21l4.2-.55c.13-.01.26.08.28.22l.13.99a.25.25 0 01-.22.28l-4.2.55a.25.25 0 00-.21.28l.29 2.18c.01.14.14.24.28.22l4.98-.66zm9.04-7.77a.25.25 0 01.28-.2l1.3.2c.14.03.24.16.21.3l-1.24 7.65c-.02.14.07.27.21.3l4.57.73c.13.02.22.15.2.29l-.16 1.02a.25.25 0 01-.3.21l-6.35-1.03a.25.25 0 01-.2-.29l1.48-9.18zm16.72 6.15a.25.25 0 00-.12-.33l-2.48-1.18a.25.25 0 01-.12-.33l.44-.94c.06-.13.21-.18.33-.12l7.07 3.34c.13.06.18.2.12.33l-.44.94a.25.25 0 01-.34.12l-2.48-1.17a.25.25 0 00-.33.12l-3.32 7.01a.25.25 0 01-.33.12l-1.2-.56a.25.25 0 01-.12-.33l3.32-7.02zm12.74 16.57c.1.09.12.25.02.35l-.68.76c-.1.1-.25.11-.36.02l-5.09-4.58a.25.25 0 01-.02-.35l6.22-6.92c.1-.1.25-.1.35-.02l4.95 4.45c.1.1.11.25.02.36l-.69.76c-.09.1-.25.1-.35.02l-3.6-3.24a.25.25 0 00-.35.02l-1.37 1.53c-.09.1-.08.26.02.35l3.15 2.83c.1.1.11.25.02.35l-.67.74c-.1.1-.25.12-.35.02l-3.15-2.83a.25.25 0 00-.35.02l-1.47 1.64c-.1.1-.09.26.01.35l3.74 3.37z"/><g style="animation:spinArrow 5s cubic-bezier(.4,0,.2,1) infinite forwards;transform-origin:center"><path fill="#FF3E00" class="prefix__indicator-arrow" d="M80 22l7 58-7 58-7-58 7-58z"/><path fill="#fff" stroke="#FF3E00" class="prefix__indicator-nop" d="M88.5 79h-5.15a3.5 3.5 0 00-6.7 0H71.5a1 1 0 100 2h5.15a3.5 3.5 0 006.7 0h5.15a1 1 0 100-2z"/></g></svg>