<svg xmlns="http://www.w3.org/2000/svg" viewBox="0 0 300 300" fill="none"><path fill="#fff" d="M33.4 116.5a36 36 0 01-3.4-15.3c0-17 13-32.3 39.2-45.8A189.5 189.5 0 01157.9 35c34.8 0 62.1 7.7 82 23a75.7 75.7 0 0130.1 63.3c0 35.6-15.5 67-46.6 94.2a196 196 0 01-61.6 35.1A203.1 203.1 0 0191 264.3c-21.6 0-32.5-8.1-32.5-24.3 0-6 1.9-18 5.6-36.5l18.5-93c1.6-8 2.4-13.7 2.4-17.2a14 14 0 00-3.4-9.2 91.5 91.5 0 0126.4-7c5.8 0 8.8 3.3 8.8 10.2 0 1.6-1.5 9.9-4.6 24.9l-15.5 78a276.4 276.4 0 00-5.8 37.4c0 5.7 1.9 9.6 5.7 11.6 3.9 2 11.1 3 21.8 3a125 125 0 0086.6-31.4 101 101 0 0034.8-78A72 72 0 00214.6 75c-17-14.4-39.4-21.6-67.5-21.6A130 130 0 0083 69.9a142.3 142.3 0 00-49.6 46.6z"/></svg>