<svg width="410" height="120" viewBox="0 0 410 120" xmlns="http://www.w3.org/2000/svg" fill="#007DFF" id="logo">
	<style>

		#logo, #stars, #stars path, #fullname,
		#letters #e, #letters #o, #letters #d {
			opacity: 0;
			animation-duration: 2s;
			animation-timing-function: cubic-bezier(.22,.61,.36,1);
			-webkit-animation-fill-mode: forwards;
			animation-fill-mode: forwards;
			animation-direction: alternate;
			animation-iteration-count: infinite;
		}

		@keyframes logo {
			0% { transform: translate(50%, 0) }
			75% { transform: translate(0, 0) }
			100% { transform: translate(0, 0) }
		}
		#logo {
			opacity: 1;
			transform: translate(50%, 0);
			animation-duration: 2s;
			animation-timing-function: cubic-bezier(.75, 0, .1, 1);
			animation-name: logo;
		}

		@keyframes letterO {
			0% { transform: scale(1.5); opacity: 0; }
			25% { transform: scale(1.5); opacity: 0; }
			62.5% { transform: scale(1); opacity: 1; }
			100% { transform: scale(1); opacity: 1; }
		}
		#letters #o {
			transform-origin: 192px 48px;
			transform: scale(0);
			animation-duration: 2s;
			animation-name: letterO;
		}
	
		@keyframes letterE {
			0% { transform: translate(-1rem, 0) scale(.5); opacity: 0; }
			25% { transform: translate(-1rem, 0) scale(.5); opacity: 0; }
			62.5% { transform: translate(0rem) scale(1); opacity: 1; }
			100% { transform: translate(0rem) scale(1); opacity: 1; }
		}
		#letters #e {
			transform-origin: 192px 48px;
			transform: translate(-1rem, 0) scale(.5);
			animation-duration: 2s;
			animation-name: letterE;
		}

		@keyframes letterD {
			0% { transform: translate(1rem, 0) scale(.5); opacity: 0; }
			25% { transform: translate(1rem, 0) scale(.5); opacity: 0; }
			62.5% { transform: translate(0rem, 0) scale(1); opacity: 1; }
			100% { transform: translate(0rem, 0) scale(1); opacity: 1; }
		}
		#letters #d {
			transform-origin: 192px 48px;
			transform: translate(1rem, 0) scale(.5);
			animation-duration: 2s;
			animation-name: letterD;
		}

		@keyframes fullname {
			0% { transform: translate(1rem, 0); opacity: 0; }
			25% { transform: translate(1rem, 0); opacity: 0; }
			75% { transform: translate(0rem, 0); opacity: 1; }
			100% { transform: translate(0rem, 0); opacity: 1; }
		}
		#fullname {
			opacity: 0;
			transform: translate(1rem, 0);
			animation-duration: 2s;
			animation-name: fullname;
		}

		@keyframes stars {
			0% { transform: rotate(-45deg) }
			75% { transform: rotate(0deg) }
			100% { transform: rotate(0deg) }
		}
		#stars {
			opacity: 1;
			transform: rotate(-45deg);
			animation-name: stars;
		}

		#stars, #stars path {
			transform-origin: 68px;
			transform: rotate(0deg);
		}
		
		@keyframes star {
			0% { transform: rotate(130deg); opacity: 0; }
			50% { transform: rotate(0deg); opacity: 1; }
			100% { transform: rotate(0deg); opacity: 1; }
		}
		#stars path {
			animation-name: star;
			animation-duration: 2s;
			animation-timing-function: cubic-bezier(.75, 0, .3, 1);
		}

		/* Left top */
		@keyframes leftTopStar {
			0% { transform: rotate(-372deg); opacity: 0 }
			75% { transform: rotate(0deg); opacity: 1 }
			100% { transform: rotate(0deg); opacity: 1 }
		}
		#stars #left-top {
			animation-name: leftTopStar;
		}

		/* Left middle */
		@keyframes leftMiddleStar {
			0% { transform: rotate(-341deg); opacity: 0 }
			75% { transform: rotate(0deg); opacity: 1 }
			100% { transform: rotate(0deg); opacity: 1 }
		}
		#stars #left-middle {
			animation-name: leftMiddleStar;
		}

		/* Left bottom */
		@keyframes leftBottomStar {
			0% { transform: rotate(-310deg); opacity: 0 }
			75% { transform: rotate(0deg); opacity: 1 }
			100% { transform: rotate(0deg); opacity: 1 }
		}
		#stars #left-bottom {
			animation-name: leftBottomStar;
		}

		/* Bottom left */
		@keyframes bottomLeftStar {
			0% { transform: rotate(-279deg); opacity: 0 }
			75% { transform: rotate(0deg); opacity: 1 }
			100% { transform: rotate(0deg); opacity: 1 }
		}
		#stars #bottom-left {
			animation-name: bottomLeftStar;
		}

		/* Bottom middle */
		@keyframes bottomMiddleStar {
			0% { transform: rotate(-248deg); opacity: 0 }
			75% { transform: rotate(0deg); opacity: 1 }
			100% { transform: rotate(0deg); opacity: 1 }
		}
		#stars #bottom-middle {
			animation-name: bottomMiddleStar;
		}

		/* Bottom right */
		@keyframes bottomRightStar {
			0% { transform: rotate(-217deg); opacity: 0 }
			75% { transform: rotate(0deg); opacity: 1 }
			100% { transform: rotate(0deg); opacity: 1 }
		}
		#stars #bottom-right {
			animation-name: bottomRightStar;
		}

		/* Right bottom */
		@keyframes rightBottomStar {
			0% { transform: rotate(-186deg); opacity: 0 }
			75% { transform: rotate(0deg); opacity: 1 }
			100% { transform: rotate(0deg); opacity: 1 }
		}
		#stars #right-bottom {
			animation-name: rightBottomStar;
		}

		/* Right middle */
		@keyframes rightMiddleStar {
			0% { transform: rotate(-155deg); opacity: 0 }
			75% { transform: rotate(0deg); opacity: 1 }
			100% { transform: rotate(0deg); opacity: 1 }
		}
		#stars #right-middle {
			animation-name: rightMiddleStar;
		}

		/* Right top */
		@keyframes rightTopStar {
			0% { transform: rotate(-124deg); opacity: 0 }
			75% { transform: rotate(0deg); opacity: 1 }
			100% { transform: rotate(0deg); opacity: 1 }
		}
		#stars #right-top {
			animation-name: rightTopStar;
		}

		/* Top right */
		@keyframes topRightStar {
			0% { transform: rotate(-93deg); opacity: 0 }
			75% { transform: rotate(0deg); opacity: 1 }
			100% { transform: rotate(0deg); opacity: 1 }
		}
		#stars #top-right {
			animation-name: topRightStar;
		}

		/* Top middle */
		@keyframes topMiddleStar {
			0% { transform: rotate(-62deg); opacity: 0 }
			75% { transform: rotate(0deg); opacity: 1 }
			100% { transform: rotate(0deg); opacity: 1 }
		}
		#stars #top-middle {
			animation-name: topMiddleStar;
		}

		/* Top left */
		@keyframes topLeftStar {
			0% { transform: rotate(-31deg); opacity: 0 }
			75% { transform: rotate(0deg); opacity: 1 }
			100% { transform: rotate(0deg); opacity: 1 }
		}
		#stars #top-left {
			animation-name: topLeftStar;
		}
	</style>
	<path id="fullname" d="M146.75 89.18V91H139.162V81.2H146.568V83.02H141.416V85.148H145.966V86.912H141.416V89.18H146.75ZM155.934 83.468V91H153.862V90.104C153.573 90.4307 153.227 90.6827 152.826 90.86C152.425 91.028 151.991 91.112 151.524 91.112C150.535 91.112 149.751 90.8273 149.172 90.258C148.593 89.6887 148.304 88.844 148.304 87.724V83.468H150.488V87.402C150.488 88.6153 150.997 89.222 152.014 89.222C152.537 89.222 152.957 89.054 153.274 88.718C153.591 88.3727 153.75 87.864 153.75 87.192V83.468H155.934ZM160.043 84.462C160.305 84.098 160.655 83.8227 161.093 83.636C161.541 83.4493 162.055 83.356 162.633 83.356V85.372C162.391 85.3533 162.227 85.344 162.143 85.344C161.518 85.344 161.028 85.5213 160.673 85.876C160.319 86.2213 160.141 86.744 160.141 87.444V91H157.957V83.468H160.043V84.462ZM167.447 91.112C166.654 91.112 165.94 90.9487 165.305 90.622C164.68 90.286 164.19 89.824 163.835 89.236C163.481 88.648 163.303 87.9807 163.303 87.234C163.303 86.4873 163.481 85.82 163.835 85.232C164.19 84.644 164.68 84.1867 165.305 83.86C165.94 83.524 166.654 83.356 167.447 83.356C168.241 83.356 168.95 83.524 169.575 83.86C170.201 84.1867 170.691 84.644 171.045 85.232C171.4 85.82 171.577 86.4873 171.577 87.234C171.577 87.9807 171.4 88.648 171.045 89.236C170.691 89.824 170.201 90.286 169.575 90.622C168.95 90.9487 168.241 91.112 167.447 91.112ZM167.447 89.32C168.007 89.32 168.465 89.1333 168.819 88.76C169.183 88.3773 169.365 87.8687 169.365 87.234C169.365 86.5993 169.183 86.0953 168.819 85.722C168.465 85.3393 168.007 85.148 167.447 85.148C166.887 85.148 166.425 85.3393 166.061 85.722C165.697 86.0953 165.515 86.5993 165.515 87.234C165.515 87.8687 165.697 88.3773 166.061 88.76C166.425 89.1333 166.887 89.32 167.447 89.32ZM177.489 83.356C178.189 83.356 178.824 83.5193 179.393 83.846C179.972 84.1633 180.425 84.616 180.751 85.204C181.078 85.7827 181.241 86.4593 181.241 87.234C181.241 88.0087 181.078 88.69 180.751 89.278C180.425 89.8567 179.972 90.3093 179.393 90.636C178.824 90.9533 178.189 91.112 177.489 91.112C176.528 91.112 175.772 90.8087 175.221 90.202V93.716H173.037V83.468H175.123V84.336C175.665 83.6827 176.453 83.356 177.489 83.356ZM177.111 89.32C177.671 89.32 178.129 89.1333 178.483 88.76C178.847 88.3773 179.029 87.8687 179.029 87.234C179.029 86.5993 178.847 86.0953 178.483 85.722C178.129 85.3393 177.671 85.148 177.111 85.148C176.551 85.148 176.089 85.3393 175.725 85.722C175.371 86.0953 175.193 86.5993 175.193 87.234C175.193 87.8687 175.371 88.3773 175.725 88.76C176.089 89.1333 176.551 89.32 177.111 89.32ZM190.081 87.262C190.081 87.29 190.067 87.486 190.039 87.85H184.341C184.444 88.3167 184.687 88.6853 185.069 88.956C185.452 89.2267 185.928 89.362 186.497 89.362C186.889 89.362 187.235 89.306 187.533 89.194C187.841 89.0727 188.126 88.886 188.387 88.634L189.549 89.894C188.84 90.706 187.804 91.112 186.441 91.112C185.592 91.112 184.841 90.9487 184.187 90.622C183.534 90.286 183.03 89.824 182.675 89.236C182.321 88.648 182.143 87.9807 182.143 87.234C182.143 86.4967 182.316 85.834 182.661 85.246C183.016 84.6487 183.497 84.1867 184.103 83.86C184.719 83.524 185.405 83.356 186.161 83.356C186.899 83.356 187.566 83.5147 188.163 83.832C188.761 84.1493 189.227 84.6067 189.563 85.204C189.909 85.792 190.081 86.478 190.081 87.262ZM186.175 85.008C185.681 85.008 185.265 85.148 184.929 85.428C184.593 85.708 184.388 86.0907 184.313 86.576H188.023C187.949 86.1 187.743 85.722 187.407 85.442C187.071 85.1527 186.661 85.008 186.175 85.008ZM194.368 83.356C195.535 83.356 196.431 83.636 197.056 84.196C197.682 84.7467 197.994 85.582 197.994 86.702V91H195.95V90.062C195.54 90.762 194.774 91.112 193.654 91.112C193.076 91.112 192.572 91.014 192.142 90.818C191.722 90.622 191.4 90.3513 191.176 90.006C190.952 89.6607 190.84 89.2687 190.84 88.83C190.84 88.13 191.102 87.5793 191.624 87.178C192.156 86.7767 192.973 86.576 194.074 86.576H195.81C195.81 86.1 195.666 85.736 195.376 85.484C195.087 85.2227 194.653 85.092 194.074 85.092C193.673 85.092 193.276 85.1573 192.884 85.288C192.502 85.4093 192.175 85.5773 191.904 85.792L191.12 84.266C191.531 83.9767 192.021 83.7527 192.59 83.594C193.169 83.4353 193.762 83.356 194.368 83.356ZM194.2 89.642C194.574 89.642 194.905 89.558 195.194 89.39C195.484 89.2127 195.689 88.956 195.81 88.62V87.85H194.312C193.416 87.85 192.968 88.144 192.968 88.732C192.968 89.012 193.076 89.236 193.29 89.404C193.514 89.5627 193.818 89.642 194.2 89.642ZM204.549 83.356C205.482 83.356 206.234 83.636 206.803 84.196C207.382 84.756 207.671 85.5867 207.671 86.688V91H205.487V87.024C205.487 86.4267 205.356 85.9833 205.095 85.694C204.834 85.3953 204.456 85.246 203.961 85.246C203.41 85.246 202.972 85.4187 202.645 85.764C202.318 86.1 202.155 86.604 202.155 87.276V91H199.971V83.468H202.057V84.35C202.346 84.0327 202.706 83.79 203.135 83.622C203.564 83.4447 204.036 83.356 204.549 83.356ZM218.515 91.168C217.498 91.168 216.579 90.9487 215.757 90.51C214.945 90.0713 214.306 89.4693 213.839 88.704C213.382 87.9293 213.153 87.0613 213.153 86.1C213.153 85.1387 213.382 84.2753 213.839 83.51C214.306 82.7353 214.945 82.1287 215.757 81.69C216.579 81.2513 217.498 81.032 218.515 81.032C219.533 81.032 220.447 81.2513 221.259 81.69C222.071 82.1287 222.711 82.7353 223.177 83.51C223.644 84.2753 223.877 85.1387 223.877 86.1C223.877 87.0613 223.644 87.9293 223.177 88.704C222.711 89.4693 222.071 90.0713 221.259 90.51C220.447 90.9487 219.533 91.168 218.515 91.168ZM218.515 89.236C219.094 89.236 219.617 89.1053 220.083 88.844C220.55 88.5733 220.914 88.2 221.175 87.724C221.446 87.248 221.581 86.7067 221.581 86.1C221.581 85.4933 221.446 84.952 221.175 84.476C220.914 84 220.55 83.6313 220.083 83.37C219.617 83.0993 219.094 82.964 218.515 82.964C217.937 82.964 217.414 83.0993 216.947 83.37C216.481 83.6313 216.112 84 215.841 84.476C215.58 84.952 215.449 85.4933 215.449 86.1C215.449 86.7067 215.58 87.248 215.841 87.724C216.112 88.2 216.481 88.5733 216.947 88.844C217.414 89.1053 217.937 89.236 218.515 89.236ZM230.006 83.356C230.939 83.356 231.691 83.636 232.26 84.196C232.839 84.756 233.128 85.5867 233.128 86.688V91H230.944V87.024C230.944 86.4267 230.813 85.9833 230.552 85.694C230.291 85.3953 229.913 85.246 229.418 85.246C228.867 85.246 228.429 85.4187 228.102 85.764C227.775 86.1 227.612 86.604 227.612 87.276V91H225.428V83.468H227.514V84.35C227.803 84.0327 228.163 83.79 228.592 83.622C229.021 83.4447 229.493 83.356 230.006 83.356ZM235.108 80.612H237.292V91H235.108V80.612ZM239.319 83.468H241.503V91H239.319V83.468ZM240.411 82.418C240.009 82.418 239.683 82.3013 239.431 82.068C239.179 81.8347 239.053 81.5453 239.053 81.2C239.053 80.8547 239.179 80.5653 239.431 80.332C239.683 80.0987 240.009 79.982 240.411 79.982C240.812 79.982 241.139 80.094 241.391 80.318C241.643 80.542 241.769 80.822 241.769 81.158C241.769 81.522 241.643 81.8253 241.391 82.068C241.139 82.3013 240.812 82.418 240.411 82.418ZM248.107 83.356C249.041 83.356 249.792 83.636 250.361 84.196C250.94 84.756 251.229 85.5867 251.229 86.688V91H249.045V87.024C249.045 86.4267 248.915 85.9833 248.653 85.694C248.392 85.3953 248.014 85.246 247.519 85.246C246.969 85.246 246.53 85.4187 246.203 85.764C245.877 86.1 245.713 86.604 245.713 87.276V91H243.529V83.468H245.615V84.35C245.905 84.0327 246.264 83.79 246.693 83.622C247.123 83.4447 247.594 83.356 248.107 83.356ZM260.669 87.262C260.669 87.29 260.655 87.486 260.627 87.85H254.929C255.032 88.3167 255.275 88.6853 255.657 88.956C256.04 89.2267 256.516 89.362 257.085 89.362C257.477 89.362 257.823 89.306 258.121 89.194C258.429 89.0727 258.714 88.886 258.975 88.634L260.137 89.894C259.428 90.706 258.392 91.112 257.029 91.112C256.18 91.112 255.429 90.9487 254.775 90.622C254.122 90.286 253.618 89.824 253.263 89.236C252.909 88.648 252.731 87.9807 252.731 87.234C252.731 86.4967 252.904 85.834 253.249 85.246C253.604 84.6487 254.085 84.1867 254.691 83.86C255.307 83.524 255.993 83.356 256.749 83.356C257.487 83.356 258.154 83.5147 258.751 83.832C259.349 84.1493 259.815 84.6067 260.151 85.204C260.497 85.792 260.669 86.478 260.669 87.262ZM256.763 85.008C256.269 85.008 255.853 85.148 255.517 85.428C255.181 85.708 254.976 86.0907 254.901 86.576H258.611C258.537 86.1 258.331 85.722 257.995 85.442C257.659 85.1527 257.249 85.008 256.763 85.008ZM266.242 81.2H270.694C271.758 81.2 272.696 81.4053 273.508 81.816C274.329 82.2173 274.964 82.7867 275.412 83.524C275.869 84.2613 276.098 85.12 276.098 86.1C276.098 87.08 275.869 87.9387 275.412 88.676C274.964 89.4133 274.329 89.9873 273.508 90.398C272.696 90.7993 271.758 91 270.694 91H266.242V81.2ZM270.582 89.138C271.562 89.138 272.341 88.8673 272.92 88.326C273.508 87.7753 273.802 87.0333 273.802 86.1C273.802 85.1667 273.508 84.4293 272.92 83.888C272.341 83.3373 271.562 83.062 270.582 83.062H268.51V89.138H270.582ZM277.654 83.468H279.838V91H277.654V83.468ZM278.746 82.418C278.345 82.418 278.018 82.3013 277.766 82.068C277.514 81.8347 277.388 81.5453 277.388 81.2C277.388 80.8547 277.514 80.5653 277.766 80.332C278.018 80.0987 278.345 79.982 278.746 79.982C279.148 79.982 279.474 80.094 279.726 80.318C279.978 80.542 280.104 80.822 280.104 81.158C280.104 81.522 279.978 81.8253 279.726 82.068C279.474 82.3013 279.148 82.418 278.746 82.418ZM284.399 91.112C283.774 91.112 283.163 91.0373 282.565 90.888C281.968 90.7293 281.492 90.5333 281.137 90.3L281.865 88.732C282.201 88.9467 282.607 89.124 283.083 89.264C283.559 89.3947 284.026 89.46 284.483 89.46C285.407 89.46 285.869 89.2313 285.869 88.774C285.869 88.5593 285.743 88.4053 285.491 88.312C285.239 88.2187 284.852 88.1393 284.329 88.074C283.713 87.9807 283.205 87.8733 282.803 87.752C282.402 87.6307 282.052 87.416 281.753 87.108C281.464 86.8 281.319 86.3613 281.319 85.792C281.319 85.316 281.455 84.896 281.725 84.532C282.005 84.1587 282.407 83.8693 282.929 83.664C283.461 83.4587 284.087 83.356 284.805 83.356C285.337 83.356 285.865 83.4167 286.387 83.538C286.919 83.65 287.358 83.8087 287.703 84.014L286.975 85.568C286.313 85.1947 285.589 85.008 284.805 85.008C284.339 85.008 283.989 85.0733 283.755 85.204C283.522 85.3347 283.405 85.5027 283.405 85.708C283.405 85.9413 283.531 86.1047 283.783 86.198C284.035 86.2913 284.437 86.38 284.987 86.464C285.603 86.5667 286.107 86.6787 286.499 86.8C286.891 86.912 287.232 87.122 287.521 87.43C287.811 87.738 287.955 88.1673 287.955 88.718C287.955 89.1847 287.815 89.6 287.535 89.964C287.255 90.328 286.845 90.6127 286.303 90.818C285.771 91.014 285.137 91.112 284.399 91.112ZM294.161 90.636C293.946 90.7947 293.68 90.916 293.363 91C293.055 91.0747 292.728 91.112 292.383 91.112C291.487 91.112 290.792 90.8833 290.297 90.426C289.812 89.9687 289.569 89.2967 289.569 88.41V85.316H288.407V83.636H289.569V81.802H291.753V83.636H293.629V85.316H291.753V88.382C291.753 88.6993 291.832 88.9467 291.991 89.124C292.159 89.292 292.392 89.376 292.691 89.376C293.036 89.376 293.33 89.2827 293.573 89.096L294.161 90.636ZM297.473 84.462C297.734 84.098 298.084 83.8227 298.523 83.636C298.971 83.4493 299.484 83.356 300.063 83.356V85.372C299.82 85.3533 299.657 85.344 299.573 85.344C298.948 85.344 298.458 85.5213 298.103 85.876C297.748 86.2213 297.571 86.744 297.571 87.444V91H295.387V83.468H297.473V84.462ZM301.362 83.468H303.546V91H301.362V83.468ZM302.454 82.418C302.052 82.418 301.726 82.3013 301.474 82.068C301.222 81.8347 301.096 81.5453 301.096 81.2C301.096 80.8547 301.222 80.5653 301.474 80.332C301.726 80.0987 302.052 79.982 302.454 79.982C302.855 79.982 303.182 80.094 303.434 80.318C303.686 80.542 303.812 80.822 303.812 81.158C303.812 81.522 303.686 81.8253 303.434 82.068C303.182 82.3013 302.855 82.418 302.454 82.418ZM310.024 83.356C310.724 83.356 311.359 83.5193 311.928 83.846C312.507 84.1633 312.96 84.616 313.286 85.204C313.613 85.7827 313.776 86.4593 313.776 87.234C313.776 88.0087 313.613 88.69 313.286 89.278C312.96 89.8567 312.507 90.3093 311.928 90.636C311.359 90.9533 310.724 91.112 310.024 91.112C308.988 91.112 308.2 90.7853 307.658 90.132V91H305.572V80.612H307.756V84.266C308.307 83.6593 309.063 83.356 310.024 83.356ZM309.646 89.32C310.206 89.32 310.664 89.1333 311.018 88.76C311.382 88.3773 311.564 87.8687 311.564 87.234C311.564 86.5993 311.382 86.0953 311.018 85.722C310.664 85.3393 310.206 85.148 309.646 85.148C309.086 85.148 308.624 85.3393 308.26 85.722C307.906 86.0953 307.728 86.5993 307.728 87.234C307.728 87.8687 307.906 88.3773 308.26 88.76C308.624 89.1333 309.086 89.32 309.646 89.32ZM322.826 83.468V91H320.754V90.104C320.465 90.4307 320.12 90.6827 319.718 90.86C319.317 91.028 318.883 91.112 318.416 91.112C317.427 91.112 316.643 90.8273 316.064 90.258C315.486 89.6887 315.196 88.844 315.196 87.724V83.468H317.38V87.402C317.38 88.6153 317.889 89.222 318.906 89.222C319.429 89.222 319.849 89.054 320.166 88.718C320.484 88.3727 320.642 87.864 320.642 87.192V83.468H322.826ZM329.708 90.636C329.493 90.7947 329.227 90.916 328.91 91C328.602 91.0747 328.275 91.112 327.93 91.112C327.034 91.112 326.338 90.8833 325.844 90.426C325.358 89.9687 325.116 89.2967 325.116 88.41V85.316H323.954V83.636H325.116V81.802H327.3V83.636H329.176V85.316H327.3V88.382C327.3 88.6993 327.379 88.9467 327.538 89.124C327.706 89.292 327.939 89.376 328.238 89.376C328.583 89.376 328.877 89.2827 329.12 89.096L329.708 90.636ZM330.934 83.468H333.118V91H330.934V83.468ZM332.026 82.418C331.624 82.418 331.298 82.3013 331.046 82.068C330.794 81.8347 330.668 81.5453 330.668 81.2C330.668 80.8547 330.794 80.5653 331.046 80.332C331.298 80.0987 331.624 79.982 332.026 79.982C332.427 79.982 332.754 80.094 333.006 80.318C333.258 80.542 333.384 80.822 333.384 81.158C333.384 81.522 333.258 81.8253 333.006 82.068C332.754 82.3013 332.427 82.418 332.026 82.418ZM338.729 91.112C337.935 91.112 337.221 90.9487 336.587 90.622C335.961 90.286 335.471 89.824 335.117 89.236C334.762 88.648 334.585 87.9807 334.585 87.234C334.585 86.4873 334.762 85.82 335.117 85.232C335.471 84.644 335.961 84.1867 336.587 83.86C337.221 83.524 337.935 83.356 338.729 83.356C339.522 83.356 340.231 83.524 340.857 83.86C341.482 84.1867 341.972 84.644 342.327 85.232C342.681 85.82 342.859 86.4873 342.859 87.234C342.859 87.9807 342.681 88.648 342.327 89.236C341.972 89.824 341.482 90.286 340.857 90.622C340.231 90.9487 339.522 91.112 338.729 91.112ZM338.729 89.32C339.289 89.32 339.746 89.1333 340.101 88.76C340.465 88.3773 340.647 87.8687 340.647 87.234C340.647 86.5993 340.465 86.0953 340.101 85.722C339.746 85.3393 339.289 85.148 338.729 85.148C338.169 85.148 337.707 85.3393 337.343 85.722C336.979 86.0953 336.797 86.5993 336.797 87.234C336.797 87.8687 336.979 88.3773 337.343 88.76C337.707 89.1333 338.169 89.32 338.729 89.32ZM348.897 83.356C349.83 83.356 350.581 83.636 351.151 84.196C351.729 84.756 352.019 85.5867 352.019 86.688V91H349.835V87.024C349.835 86.4267 349.704 85.9833 349.443 85.694C349.181 85.3953 348.803 85.246 348.309 85.246C347.758 85.246 347.319 85.4187 346.993 85.764C346.666 86.1 346.503 86.604 346.503 87.276V91H344.319V83.468H346.405V84.35C346.694 84.0327 347.053 83.79 347.483 83.622C347.912 83.4447 348.383 83.356 348.897 83.356Z"/>
	<g id="stars">
		<!-- Top left -->
		<path id="top-left" d="M47 17L48.3471 21.1459H52.7063L49.1796 23.7082L50.5267 27.8541L47 25.2918L43.4733 27.8541L44.8204 23.7082L41.2937 21.1459H45.6529L47 17Z"/>
		<g opacity=".3">
			<!-- Top Middle -->
			<path id="top-middle" d="M68 12L69.3471 16.1459H73.7063L70.1796 18.7082L71.5267 22.8541L68 20.2918L64.4733 22.8541L65.8204 18.7082L62.2937 16.1459H66.6529L68 12Z"/>
			<!-- Top right -->
			<path id="top-right" d="M89 17L90.3471 21.1459H94.7063L91.1796 23.7082L92.5267 27.8541L89 25.2918L85.4733 27.8541L86.8204 23.7082L83.2937 21.1459H87.6529L89 17Z"/>
			<!-- Right top -->
			<path id="right-top" d="M105 33L106.347 37.1459H110.706L107.18 39.7082L108.527 43.8541L105 41.2918L101.473 43.8541L102.82 39.7082L99.2937 37.1459H103.653L105 33Z"/>
			<!-- Right middle -->
			<path id="right-middle" d="M110 54L111.347 58.1459H115.706L112.18 60.7082L113.527 64.8541L110 62.2918L106.473 64.8541L107.82 60.7082L104.294 58.1459H108.653L110 54Z"/>
			<!-- Right bottom -->
			<path id="right-bottom" d="M105 75L106.347 79.1459H110.706L107.18 81.7082L108.527 85.8541L105 83.2918L101.473 85.8541L102.82 81.7082L99.2937 79.1459H103.653L105 75Z"/>
			<!-- Bottom right -->
			<path id="bottom-right" d="M89 91L90.3471 95.1459H94.7063L91.1796 97.7082L92.5267 101.854L89 99.2918L85.4733 101.854L86.8204 97.7082L83.2937 95.1459H87.6529L89 91Z"/>
			<!-- Bottom middle -->
			<path id="bottom-middle" d="M68 96L69.3471 100.146H73.7063L70.1796 102.708L71.5267 106.854L68 104.292L64.4733 106.854L65.8204 102.708L62.2937 100.146H66.6529L68 96Z"/>
			<!-- Bottom left -->
			<path id="bottom-left" d="M47 91L48.3471 95.1459H52.7063L49.1796 97.7082L50.5267 101.854L47 99.2918L43.4733 101.854L44.8204 97.7082L41.2937 95.1459H45.6529L47 91Z"/>
			<!-- Left bottom -->
			<path id="left-bottom" d="M31 75L32.3471 79.1459H36.7063L33.1796 81.7082L34.5267 85.8541L31 83.2918L27.4733 85.8541L28.8204 81.7082L25.2937 79.1459H29.6529L31 75Z"/>
			<!-- Left middle -->
			<path id="left-middle" d="M26 54L27.3471 58.1459H31.7063L28.1796 60.7082L29.5267 64.8541L26 62.2918L22.4733 64.8541L23.8204 60.7082L20.2937 58.1459H24.6529L26 54Z"/>
			<!-- Left top -->
			<path id="left-top" d="M31 33L32.3471 37.1459H36.7063L33.1796 39.7082L34.5267 43.8541L31 41.2918L27.4733 43.8541L28.8204 39.7082L25.2937 37.1459H29.6529L31 33Z"/>
		</g>
	</g>
	<g id="letters">
		<path id="d" d="M228.4 34H220.835C219.226 30.6268 217.032 27.5835 214.384 25H228.4C240.882 25 251 35.0736 251 47.5C251 59.9264 240.882 70 228.4 70H214.384C217.032 67.4165 219.226 64.3732 220.835 61H228.4C235.889 61 241.96 54.9558 241.96 47.5C241.96 40.0442 235.889 34 228.4 34Z"/>
		<path id="e" d="M138 25H170.096C167.448 27.5835 165.254 30.6268 163.645 34H147.04V43H160.92C160.709 44.4697 160.6 45.9722 160.6 47.5C160.6 49.0278 160.709 50.5303 160.92 52H147.04V61H163.645C165.254 64.3732 167.448 67.4165 170.096 70H138V25Z"/>
		<path id="o" fill-rule="evenodd" clip-rule="evenodd" d="M214.84 47.5C214.84 59.9264 204.722 70 192.24 70C179.758 70 169.64 59.9264 169.64 47.5C169.64 35.0736 179.758 25 192.24 25C204.722 25 214.84 35.0736 214.84 47.5ZM205.8 47.5C205.8 54.9558 199.729 61 192.24 61C184.751 61 178.68 54.9558 178.68 47.5C178.68 40.0442 184.751 34 192.24 34C199.729 34 205.8 40.0442 205.8 47.5Z"/>
	</g>
</svg>
