<svg width="200" viewBox="0 0 160 60" fill="none" xmlns="http://www.w3.org/2000/svg">
	<g filter="url(#filter0_di_1975_5)">
		<rect x="10" y="10" width="140" height="40" rx="8" fill="url(#paint0_linear_1975_5)"/>
	</g>
	<path d="M55.0781 28.9531V29.6719C55.0781 30.526 54.9714 31.2917 54.7578 31.9688C54.5443 32.6458 54.237 33.2214 53.8359 33.6953C53.4349 34.1693 52.9531 34.5312 52.3906 34.7812C51.8333 35.0312 51.2083 35.1562 50.5156 35.1562C49.8438 35.1562 49.2266 35.0312 48.6641 34.7812C48.1068 34.5312 47.6224 34.1693 47.2109 33.6953C46.8047 33.2214 46.4896 32.6458 46.2656 31.9688C46.0417 31.2917 45.9297 30.526 45.9297 29.6719V28.9531C45.9297 28.099 46.0391 27.3359 46.2578 26.6641C46.4818 25.987 46.7969 25.4115 47.2031 24.9375C47.6094 24.4583 48.0911 24.0938 48.6484 23.8438C49.2109 23.5938 49.8281 23.4688 50.5 23.4688C51.1927 23.4688 51.8177 23.5938 52.375 23.8438C52.9375 24.0938 53.4193 24.4583 53.8203 24.9375C54.2266 25.4115 54.5365 25.987 54.75 26.6641C54.9688 27.3359 55.0781 28.099 55.0781 28.9531ZM53.5859 29.6719V28.9375C53.5859 28.2604 53.5156 27.6615 53.375 27.1406C53.2396 26.6198 53.0391 26.1823 52.7734 25.8281C52.5078 25.474 52.1823 25.2057 51.7969 25.0234C51.4167 24.8411 50.9844 24.75 50.5 24.75C50.0312 24.75 49.6068 24.8411 49.2266 25.0234C48.8516 25.2057 48.5286 25.474 48.2578 25.8281C47.9922 26.1823 47.7865 26.6198 47.6406 27.1406C47.4948 27.6615 47.4219 28.2604 47.4219 28.9375V29.6719C47.4219 30.3542 47.4948 30.9583 47.6406 31.4844C47.7865 32.0052 47.9948 32.4453 48.2656 32.8047C48.5417 33.1589 48.8672 33.4271 49.2422 33.6094C49.6224 33.7917 50.0469 33.8828 50.5156 33.8828C51.0052 33.8828 51.4401 33.7917 51.8203 33.6094C52.2005 33.4271 52.5208 33.1589 52.7812 32.8047C53.0469 32.4453 53.2474 32.0052 53.3828 31.4844C53.5182 30.9583 53.5859 30.3542 53.5859 29.6719ZM58.5625 28.1719V38.25H57.1094V26.5469H58.4375L58.5625 28.1719ZM64.2578 30.7031V30.8672C64.2578 31.4818 64.1849 32.0521 64.0391 32.5781C63.8932 33.099 63.6797 33.5521 63.3984 33.9375C63.1224 34.3229 62.7812 34.6224 62.375 34.8359C61.9688 35.0495 61.5026 35.1562 60.9766 35.1562C60.4401 35.1562 59.9661 35.0677 59.5547 34.8906C59.1432 34.7135 58.7943 34.4557 58.5078 34.1172C58.2214 33.7786 57.9922 33.3724 57.8203 32.8984C57.6536 32.4245 57.5391 31.8906 57.4766 31.2969V30.4219C57.5391 29.7969 57.6562 29.237 57.8281 28.7422C58 28.2474 58.2266 27.8255 58.5078 27.4766C58.7943 27.1224 59.1406 26.8542 59.5469 26.6719C59.9531 26.4844 60.4219 26.3906 60.9531 26.3906C61.4844 26.3906 61.9557 26.4948 62.3672 26.7031C62.7786 26.9062 63.125 27.1979 63.4062 27.5781C63.6875 27.9583 63.8984 28.4141 64.0391 28.9453C64.1849 29.4714 64.2578 30.0573 64.2578 30.7031ZM62.8047 30.8672V30.7031C62.8047 30.2812 62.7604 29.8854 62.6719 29.5156C62.5833 29.1406 62.4453 28.8125 62.2578 28.5312C62.0755 28.2448 61.8411 28.0208 61.5547 27.8594C61.2682 27.6927 60.9271 27.6094 60.5312 27.6094C60.1667 27.6094 59.849 27.6719 59.5781 27.7969C59.3125 27.9219 59.0859 28.0911 58.8984 28.3047C58.7109 28.513 58.5573 28.7526 58.4375 29.0234C58.3229 29.2891 58.237 29.5651 58.1797 29.8516V31.875C58.2839 32.2396 58.4297 32.5833 58.6172 32.9062C58.8047 33.224 59.0547 33.4818 59.3672 33.6797C59.6797 33.8724 60.0729 33.9688 60.5469 33.9688C60.9375 33.9688 61.2734 33.888 61.5547 33.7266C61.8411 33.5599 62.0755 33.3333 62.2578 33.0469C62.4453 32.7604 62.5833 32.4323 62.6719 32.0625C62.7604 31.6875 62.8047 31.2891 62.8047 30.8672ZM69.6094 35.1562C69.0208 35.1562 68.487 35.0573 68.0078 34.8594C67.5339 34.6562 67.125 34.3724 66.7812 34.0078C66.4427 33.6432 66.1823 33.2109 66 32.7109C65.8177 32.2109 65.7266 31.6641 65.7266 31.0703V30.7422C65.7266 30.0547 65.8281 29.4427 66.0312 28.9062C66.2344 28.3646 66.5104 27.9062 66.8594 27.5312C67.2083 27.1562 67.6042 26.8724 68.0469 26.6797C68.4896 26.487 68.9479 26.3906 69.4219 26.3906C70.026 26.3906 70.5469 26.4948 70.9844 26.7031C71.4271 26.9115 71.7891 27.2031 72.0703 27.5781C72.3516 27.9479 72.5599 28.3854 72.6953 28.8906C72.8307 29.3906 72.8984 29.9375 72.8984 30.5312V31.1797H66.5859V30H71.4531V29.8906C71.4323 29.5156 71.3542 29.151 71.2188 28.7969C71.0885 28.4427 70.8802 28.151 70.5938 27.9219C70.3073 27.6927 69.9167 27.5781 69.4219 27.5781C69.0938 27.5781 68.7917 27.6484 68.5156 27.7891C68.2396 27.9245 68.0026 28.1276 67.8047 28.3984C67.6068 28.6693 67.4531 29 67.3438 29.3906C67.2344 29.7812 67.1797 30.2318 67.1797 30.7422V31.0703C67.1797 31.4714 67.2344 31.849 67.3438 32.2031C67.4583 32.5521 67.6224 32.8594 67.8359 33.125C68.0547 33.3906 68.3177 33.599 68.625 33.75C68.9375 33.901 69.2917 33.9766 69.6875 33.9766C70.1979 33.9766 70.6302 33.8724 70.9844 33.6641C71.3385 33.4557 71.6484 33.1771 71.9141 32.8281L72.7891 33.5234C72.6068 33.7995 72.375 34.0625 72.0938 34.3125C71.8125 34.5625 71.4661 34.7656 71.0547 34.9219C70.6484 35.0781 70.1667 35.1562 69.6094 35.1562ZM76.0312 28.3516V35H74.5859V26.5469H75.9531L76.0312 28.3516ZM75.6875 30.4531L75.0859 30.4297C75.0911 29.8516 75.1771 29.3177 75.3438 28.8281C75.5104 28.3333 75.7448 27.9036 76.0469 27.5391C76.349 27.1745 76.7083 26.8932 77.125 26.6953C77.5469 26.4922 78.013 26.3906 78.5234 26.3906C78.9401 26.3906 79.3151 26.4479 79.6484 26.5625C79.9818 26.6719 80.2656 26.849 80.5 27.0938C80.7396 27.3385 80.9219 27.6562 81.0469 28.0469C81.1719 28.4323 81.2344 28.9036 81.2344 29.4609V35H79.7812V29.4453C79.7812 29.0026 79.7161 28.6484 79.5859 28.3828C79.4557 28.112 79.2656 27.9167 79.0156 27.7969C78.7656 27.6719 78.4583 27.6094 78.0938 27.6094C77.7344 27.6094 77.4062 27.6849 77.1094 27.8359C76.8177 27.987 76.5651 28.1953 76.3516 28.4609C76.1432 28.7266 75.9792 29.0312 75.8594 29.375C75.7448 29.7135 75.6875 30.0729 75.6875 30.4531ZM91.8281 24.6328L88.0625 35H86.5234L90.8594 23.625H91.8516L91.8281 24.6328ZM94.9844 35L91.2109 24.6328L91.1875 23.625H92.1797L96.5312 35H94.9844ZM94.7891 30.7891V32.0234H88.3984V30.7891H94.7891ZM99.2812 28.1719V38.25H97.8281V26.5469H99.1562L99.2812 28.1719ZM104.977 30.7031V30.8672C104.977 31.4818 104.904 32.0521 104.758 32.5781C104.612 33.099 104.398 33.5521 104.117 33.9375C103.841 34.3229 103.5 34.6224 103.094 34.8359C102.688 35.0495 102.221 35.1562 101.695 35.1562C101.159 35.1562 100.685 35.0677 100.273 34.8906C99.862 34.7135 99.513 34.4557 99.2266 34.1172C98.9401 33.7786 98.7109 33.3724 98.5391 32.8984C98.3724 32.4245 98.2578 31.8906 98.1953 31.2969V30.4219C98.2578 29.7969 98.375 29.237 98.5469 28.7422C98.7188 28.2474 98.9453 27.8255 99.2266 27.4766C99.513 27.1224 99.8594 26.8542 100.266 26.6719C100.672 26.4844 101.141 26.3906 101.672 26.3906C102.203 26.3906 102.674 26.4948 103.086 26.7031C103.497 26.9062 103.844 27.1979 104.125 27.5781C104.406 27.9583 104.617 28.4141 104.758 28.9453C104.904 29.4714 104.977 30.0573 104.977 30.7031ZM103.523 30.8672V30.7031C103.523 30.2812 103.479 29.8854 103.391 29.5156C103.302 29.1406 103.164 28.8125 102.977 28.5312C102.794 28.2448 102.56 28.0208 102.273 27.8594C101.987 27.6927 101.646 27.6094 101.25 27.6094C100.885 27.6094 100.568 27.6719 100.297 27.7969C100.031 27.9219 99.8047 28.0911 99.6172 28.3047C99.4297 28.513 99.276 28.7526 99.1562 29.0234C99.0417 29.2891 98.9557 29.5651 98.8984 29.8516V31.875C99.0026 32.2396 99.1484 32.5833 99.3359 32.9062C99.5234 33.224 99.7734 33.4818 100.086 33.6797C100.398 33.8724 100.792 33.9688 101.266 33.9688C101.656 33.9688 101.992 33.888 102.273 33.7266C102.56 33.5599 102.794 33.3333 102.977 33.0469C103.164 32.7604 103.302 32.4323 103.391 32.0625C103.479 31.6875 103.523 31.2891 103.523 30.8672ZM108.266 28.1719V38.25H106.812V26.5469H108.141L108.266 28.1719ZM113.961 30.7031V30.8672C113.961 31.4818 113.888 32.0521 113.742 32.5781C113.596 33.099 113.383 33.5521 113.102 33.9375C112.826 34.3229 112.484 34.6224 112.078 34.8359C111.672 35.0495 111.206 35.1562 110.68 35.1562C110.143 35.1562 109.669 35.0677 109.258 34.8906C108.846 34.7135 108.497 34.4557 108.211 34.1172C107.924 33.7786 107.695 33.3724 107.523 32.8984C107.357 32.4245 107.242 31.8906 107.18 31.2969V30.4219C107.242 29.7969 107.359 29.237 107.531 28.7422C107.703 28.2474 107.93 27.8255 108.211 27.4766C108.497 27.1224 108.844 26.8542 109.25 26.6719C109.656 26.4844 110.125 26.3906 110.656 26.3906C111.188 26.3906 111.659 26.4948 112.07 26.7031C112.482 26.9062 112.828 27.1979 113.109 27.5781C113.391 27.9583 113.602 28.4141 113.742 28.9453C113.888 29.4714 113.961 30.0573 113.961 30.7031ZM112.508 30.8672V30.7031C112.508 30.2812 112.464 29.8854 112.375 29.5156C112.286 29.1406 112.148 28.8125 111.961 28.5312C111.779 28.2448 111.544 28.0208 111.258 27.8594C110.971 27.6927 110.63 27.6094 110.234 27.6094C109.87 27.6094 109.552 27.6719 109.281 27.7969C109.016 27.9219 108.789 28.0911 108.602 28.3047C108.414 28.513 108.26 28.7526 108.141 29.0234C108.026 29.2891 107.94 29.5651 107.883 29.8516V31.875C107.987 32.2396 108.133 32.5833 108.32 32.9062C108.508 33.224 108.758 33.4818 109.07 33.6797C109.383 33.8724 109.776 33.9688 110.25 33.9688C110.641 33.9688 110.977 33.888 111.258 33.7266C111.544 33.5599 111.779 33.3333 111.961 33.0469C112.148 32.7604 112.286 32.4323 112.375 32.0625C112.464 31.6875 112.508 31.2891 112.508 30.8672Z" fill="white"/>
	<defs>
		<filter id="filter0_di_1975_5" x="6" y="8" width="148" height="48" filterUnits="userSpaceOnUse" color-interpolation-filters="sRGB">
			<feFlood flood-opacity="0" result="BackgroundImageFix"/>
			<feColorMatrix in="SourceAlpha" type="matrix" values="0 0 0 0 0 0 0 0 0 0 0 0 0 0 0 0 0 0 127 0" result="hardAlpha"/>
			<feOffset dy="2"/>
			<feGaussianBlur stdDeviation="2"/>
			<feComposite in2="hardAlpha" operator="out"/>
			<feColorMatrix type="matrix" values="0 0 0 0 0 0 0 0 0 0 0 0 0 0 0 0 0 0 0.25 0"/>
			<feBlend mode="normal" in2="BackgroundImageFix" result="effect1_dropShadow_1975_5"/>
			<feBlend mode="normal" in="SourceGraphic" in2="effect1_dropShadow_1975_5" result="shape"/>
			<feColorMatrix in="SourceAlpha" type="matrix" values="0 0 0 0 0 0 0 0 0 0 0 0 0 0 0 0 0 0 127 0" result="hardAlpha"/>
			<feOffset dx="-1" dy="-2"/>
			<feGaussianBlur stdDeviation="2"/>
			<feComposite in2="hardAlpha" operator="arithmetic" k2="-1" k3="1"/>
			<feColorMatrix type="matrix" values="0 0 0 0 0 0 0 0 0 0 0 0 0 0 0 0 0 0 0.15 0"/>
			<feBlend mode="normal" in2="shape" result="effect2_innerShadow_1975_5"/>
		</filter>
		<linearGradient id="paint0_linear_1975_5" x1="69.5" y1="10" x2="69.5" y2="53" gradientUnits="userSpaceOnUse">
			<stop stop-color="#25F0FD"/>
			<stop offset="1" stop-color="#A234B4"/>
		</linearGradient>
	</defs>
</svg>
