<svg viewBox="0 0 768 1166" fill="none" xmlns="http://www.w3.org/2000/svg"><path fill="#fff" d="M0 0h768v1166H0z"/><path d="M91 83.68V92H56.31V47.2h33.86v8.32H66.62v9.73h20.8v8.06h-20.8v10.37H91zM127.31 47.2h20.35c4.87 0 9.16.94 12.87 2.82a20.38 20.38 0 018.7 7.8c2.1 3.37 3.14 7.3 3.14 11.78 0 4.48-1.05 8.4-3.14 11.78a20.8 20.8 0 01-8.7 7.87c-3.71 1.83-8 2.75-12.87 2.75h-20.35V47.2zm19.84 36.29c4.48 0 8.04-1.24 10.69-3.71 2.69-2.52 4.03-5.91 4.03-10.18s-1.34-7.64-4.03-10.11c-2.65-2.52-6.2-3.78-10.69-3.78h-9.47V83.5h9.47z" fill="#000"/><path d="M112 92.77c-4.64 0-8.84-1-12.6-3.01-3.71-2-6.63-4.76-8.77-8.26a22.97 22.97 0 01-3.13-11.9c0-4.4 1.04-8.34 3.13-11.84a22.54 22.54 0 018.77-8.32c3.75-2 7.96-3 12.6-3 4.66 0 8.84 1 12.55 3a22.54 22.54 0 0111.97 20.16c0 4.4-1.07 8.36-3.2 11.9a22.69 22.69 0 01-8.77 8.26c-3.71 2-7.9 3-12.54 3zm0-8.83c2.65 0 5.04-.6 7.18-1.8a13.1 13.1 0 004.99-5.12 14.76 14.76 0 001.85-7.42c0-2.77-.61-5.25-1.85-7.42a12.66 12.66 0 00-5-5.06 14.02 14.02 0 00-7.16-1.86c-2.65 0-5.04.62-7.17 1.86a13.09 13.09 0 00-5.06 5.06A15.17 15.17 0 0098 69.6c0 2.77.6 5.25 1.8 7.42a13.55 13.55 0 005.05 5.12c2.13 1.2 4.52 1.8 7.17 1.8z" fill="#000"/><path d="M99.4 89.76l-3.8 7.04h.01l.02.02 3.77-7.06zm-8.77-8.26l-6.89 4.07.03.05.03.05 6.83-4.17zm0-23.74l-6.85-4.13v.01l-.02.02 6.87 4.1zm8.77-8.32l-3.77-7.06-.02.01-.01.01 3.8 7.04zm33.92 8.32l-6.85 4.13v.02l.02.01 6.83-4.16zm0 23.74l6.83 4.17.01-.02.01-.02-6.85-4.13zm-8.77 8.26l3.8 7.04-3.8-7.04zm-5.37-7.62l3.9 6.98.06-.03.05-.03-4.01-6.92zm4.99-5.12l-6.96-3.95-.03.05-.03.05 7.02 3.85zm0-14.84l-7.02 3.85.03.05.03.05 6.96-3.95zm-5-5.06l-4 6.92.04.03.06.03 3.9-6.98zm-14.33 0l3.9 6.98.06-.03.05-.03-4.01-6.92zm-5.06 5.06l-6.95-3.96-.03.05-.03.06 7.01 3.85zm0 14.84l-7 3.85.02.06.03.05 6.95-3.96zm5.06 5.12l-4.01 6.92.05.03.05.03 3.91-6.98zm7.17 2.63c-3.46 0-6.35-.74-8.84-2.07l-7.54 14.12a34.33 34.33 0 0016.38 3.95v-16zm-8.8-2.05a14.7 14.7 0 01-5.75-5.38L83.8 85.67A30.69 30.69 0 0095.6 96.8l7.6-14.08zm-5.69-5.28a14.99 14.99 0 01-2.02-7.84h-16c0 5.72 1.37 11.11 4.24 15.97l13.78-8.13zM95.5 69.6c0-3.07.7-5.57 2-7.74l-13.74-8.2A30.63 30.63 0 0079.5 69.6h16zm1.98-7.71a14.55 14.55 0 015.72-5.41L95.6 42.4a30.54 30.54 0 00-11.82 11.23l13.7 8.26zm5.69-5.4a18.35 18.35 0 018.84-2.06v-16a34.33 34.33 0 00-16.38 3.95l7.54 14.12zm8.84-2.06c3.46 0 6.31.74 8.74 2.05l7.6-14.08c-5-2.7-10.5-3.97-16.34-3.97v16zm8.74 2.05a14.54 14.54 0 015.72 5.4l13.7-8.25a30.54 30.54 0 00-11.82-11.23l-7.6 14.08zm5.74 5.44a14.3 14.3 0 012.03 7.68h16c0-5.75-1.42-11.16-4.37-16l-13.66 8.32zm2.03 7.68c0 3.04-.72 5.56-2.05 7.78l13.7 8.25a30.62 30.62 0 004.35-16.03h-16zm-2.03 7.74a14.7 14.7 0 01-5.74 5.38l7.6 14.08a30.68 30.68 0 0011.8-11.13l-13.66-8.33zm-5.74 5.38a17.99 17.99 0 01-8.74 2.05v16c5.84 0 11.35-1.27 16.34-3.97l-7.6-14.08zm-8.74 9.22c3.9 0 7.65-.9 11.07-2.82l-7.81-13.96c-.84.48-1.87.78-3.26.78v16zm11.18-2.88a21.1 21.1 0 008-8.19l-14.03-7.7a5.1 5.1 0 01-2 2.05l8.03 13.84zm7.93-8.08c2-3.5 2.9-7.37 2.9-11.38h-16c0 1.54-.33 2.63-.8 3.47l13.9 7.9zm2.9-11.38c0-4-.9-7.87-2.9-11.38l-13.9 7.91c.47.84.8 1.93.8 3.47h16zm-2.84-11.27a20.65 20.65 0 00-8.1-8.19l-7.81 13.96c.8.45 1.4 1.04 1.89 1.93l14.02-7.7zm-7.99-8.13c-3.44-2-7.23-2.94-11.18-2.94v16c1.34 0 2.33.3 3.15.78l8.03-13.84zm-11.18-2.94c-3.95 0-7.74.94-11.18 2.94l8.02 13.84a6.04 6.04 0 013.16-.78v-16zm-11.08 2.88a21.09 21.09 0 00-8.1 8.08l13.9 7.91a5.1 5.1 0 012.02-2.03l-7.82-13.96zm-8.16 8.19A23.16 23.16 0 0090 69.6h16c0-1.59.33-2.71.8-3.57l-14.02-7.7zM90 69.6c0 3.96.87 7.79 2.78 11.27l14.03-7.7a7.2 7.2 0 01-.8-3.57H90zm2.84 11.38a21.55 21.55 0 008 8.08l8.02-13.84a5.55 5.55 0 01-2.11-2.15l-13.91 7.9zm8.1 8.14a22.41 22.41 0 0011.08 2.82v-16c-1.4 0-2.42-.3-3.26-.78l-7.82 13.96z" fill="#fff"/><path fill-rule="evenodd" clip-rule="evenodd" d="M260.69 84.25v8.32H226v-8.3h14.69v-.02h20zm-20-10.37h16.41v-8.06H226v8.05h14.69v.01zm-4.39-17.8H226v-8.31h33.86v8.32H236.3z" fill="#000"/><path d="M297 47.77h20.35c4.87 0 9.15.94 12.87 2.81a20.38 20.38 0 018.7 7.81c2.1 3.37 3.14 7.3 3.14 11.78 0 4.48-1.05 8.4-3.14 11.77a20.8 20.8 0 01-8.7 7.88c-3.72 1.83-8 2.75-12.87 2.75H297v-44.8zm19.84 36.29c4.48 0 8.04-1.24 10.69-3.72 2.69-2.51 4.03-5.9 4.03-10.17s-1.34-7.64-4.03-10.11c-2.65-2.52-6.21-3.78-10.69-3.78h-9.47v27.78h9.47z" fill="#000"/><path d="M267.19 93.85h.01a30.33 30.33 0 0014.5 3.49c5.24 0 10.09-1.14 14.44-3.5a26.69 26.69 0 0010.28-9.69h0l.01-.01c2.54-4.2 3.78-8.9 3.78-13.97s-1.24-9.75-3.78-13.92a26.54 26.54 0 00-10.29-9.76A29.96 29.96 0 00281.7 43c-5.25 0-10.1 1.14-14.5 3.48h0-.01a26.53 26.53 0 00-10.3 9.78v.01h0a26.63 26.63 0 00-3.7 13.9c0 5.06 1.2 9.74 3.69 13.94l.01.02.01.02a26.69 26.69 0 0010.29 9.7zm23.19-18.24l-.02.03-.01.03a9.1 9.1 0 01-3.47 3.57 10.43 10.43 0 01-5.18 1.26c-2.01 0-3.71-.44-5.2-1.26a9.55 9.55 0 01-3.54-3.6 11.2 11.2 0 01-1.28-5.47c0-2.17.46-3.96 1.28-5.47a9.08 9.08 0 013.52-3.52l.03-.02.03-.01a10.03 10.03 0 015.16-1.32c1.99 0 3.68.46 5.16 1.32l.02.01.03.02a8.66 8.66 0 013.44 3.49l.01.03.02.02a10.76 10.76 0 011.33 5.45c0 2.15-.47 3.93-1.33 5.44z" fill="#000" stroke="#fff" stroke-width="8"/><path fill-rule="evenodd" clip-rule="evenodd" d="M61 180.88v-8.06h31.1v8.06H61zm33 18.69h1.69v-8.32H94v8.32zm.86-36.48H94v-8.32h.86v8.32z" fill="#000"/><path d="M132 154.77h20.35c4.87 0 9.15.94 12.87 2.81a20.38 20.38 0 018.7 7.81c2.1 3.37 3.14 7.3 3.14 11.78 0 4.48-1.05 8.4-3.14 11.77a20.8 20.8 0 01-8.7 7.88c-3.72 1.83-8 2.75-12.87 2.75H132v-44.8zm19.84 36.29c4.48 0 8.04-1.24 10.69-3.72 2.69-2.51 4.03-5.9 4.03-10.17s-1.34-7.64-4.03-10.11c-2.65-2.52-6.21-3.78-10.69-3.78h-9.47v27.78h9.47z" fill="#000"/><path fill-rule="evenodd" clip-rule="evenodd" d="M101.06 155H80.7c-4.86 0-9.15.94-12.86 2.82a20.87 20.87 0 00-6.88 5.27h34.73v9.73h-5v8.05h5v10.4h-5v.02h-9.47c-.33 0-.66 0-.98-.02H60.6a21.2 21.2 0 007.25 5.78c3.71 1.83 8 2.75 12.86 2.75h20.36V155zm-44.84 25.87h10.61a17.2 17.2 0 01-.33-3.47c0-1.66.2-3.2.6-4.58H56.4a26.21 26.21 0 00-.18 8.05z" fill="#000"/><path d="M102.19 200.85h.01a30.33 30.33 0 0014.5 3.49c5.24 0 10.09-1.14 14.44-3.5a26.68 26.68 0 0010.28-9.69h0l.01-.01c2.54-4.2 3.78-8.9 3.78-13.97s-1.24-9.75-3.78-13.91a26.53 26.53 0 00-10.29-9.77A29.95 29.95 0 00116.7 150c-5.25 0-10.1 1.14-14.5 3.48h0-.01a26.54 26.54 0 00-10.3 9.78v.01h0a26.63 26.63 0 00-3.7 13.9c0 5.06 1.2 9.74 3.69 13.94l.01.02.01.02a26.68 26.68 0 0010.29 9.7zm23.19-18.23l-.02.02-.01.03a9.1 9.1 0 01-3.47 3.57 10.44 10.44 0 01-5.18 1.26c-2.01 0-3.71-.44-5.2-1.26a9.55 9.55 0 01-3.54-3.6 11.2 11.2 0 01-1.28-5.47c0-2.17.46-3.96 1.28-5.47a9.08 9.08 0 013.52-3.52l.03-.02.02-.01a10.03 10.03 0 015.17-1.32c1.99 0 3.68.46 5.16 1.32l.02.01.03.02a8.66 8.66 0 013.44 3.49l.01.03.02.02a10.76 10.76 0 011.33 5.45c0 2.16-.47 3.94-1.33 5.45z" fill="#000" stroke="#fff" stroke-width="8"/><path d="M147.46 307.06c-.4 0-.75.23-.92.58a33.02 33.02 0 01-3.82 6.21c-.53.68-.06 1.72.8 1.72h8.83c4.87 0 9.15-.92 12.87-2.75a20.8 20.8 0 008.7-7.88c2.1-3.37 3.14-7.3 3.14-11.77 0-4.48-1.05-8.4-3.14-11.78a20.38 20.38 0 00-8.7-7.8c-3.72-1.88-8-2.82-12.87-2.82h-9.47c-.88 0-1.34 1.07-.78 1.75a33.03 33.03 0 014.06 6.2c.18.34.53.56.91.56h4.77c4.48 0 8.04 1.26 10.69 3.78 2.69 2.47 4.03 5.84 4.03 10.1 0 4.27-1.34 7.67-4.03 10.18-2.65 2.48-6.21 3.72-10.69 3.72h-4.38zM91.28 272.51c.56-.67.1-1.74-.79-1.74H62a1 1 0 00-1 1v6.32a1 1 0 001 1h24.4c.38 0 .73-.22.9-.56a33.04 33.04 0 013.98-6.01zM83.88 289.96c.07-.6-.4-1.14-1-1.14H62a1 1 0 00-1 1v6.05a1 1 0 001 1h13.68l.01.01h7.06c.59 0 1.05-.51 1.01-1.1a33.53 33.53 0 01.12-5.82zM86 307.25c.4 0 .75.23.92.58a33.01 33.01 0 003.74 6.02c.53.68.06 1.72-.8 1.72H62a1 1 0 01-1-1v-6.3a1 1 0 011-1h13.68v-.01l.02-.01H86zM116.7 316.34c-4.66 0-8.86-1-12.61-3.01-3.71-2-6.64-4.76-8.77-8.26a22.97 22.97 0 01-3.14-11.9c0-4.4 1.05-8.34 3.14-11.84a22.54 22.54 0 018.77-8.32c3.75-2 7.95-3.01 12.6-3.01 4.66 0 8.84 1 12.55 3a22.54 22.54 0 0111.97 20.17c0 4.4-1.07 8.36-3.2 11.9a22.68 22.68 0 01-8.77 8.26c-3.71 2-7.9 3-12.54 3zm0-8.84c2.64 0 5.03-.6 7.16-1.79a13.1 13.1 0 005-5.12 14.76 14.76 0 001.85-7.42c0-2.78-.62-5.25-1.85-7.43a12.66 12.66 0 00-5-5.05 14.03 14.03 0 00-7.16-1.86c-2.65 0-5.04.62-7.17 1.86a13.09 13.09 0 00-5.06 5.05 15.17 15.17 0 00-1.79 7.43c0 2.77.6 5.25 1.8 7.42a13.55 13.55 0 005.05 5.12c2.13 1.2 4.52 1.8 7.17 1.8zM320.1 192.06a3.8 3.8 0 00-3.3 2.06c-1.44 2.7.33 6.45 3.39 6.45h3.16c4.87 0 9.15-.92 12.87-2.75a20.8 20.8 0 008.7-7.88c2.1-3.37 3.14-7.3 3.14-11.77 0-4.48-1.05-8.4-3.14-11.78a20.38 20.38 0 00-8.7-7.8c-3.72-1.88-8-2.82-12.87-2.82h-3.6c-3.1 0-4.85 3.87-3.33 6.55a3.76 3.76 0 003.22 1.96h3.2c4.48 0 8.04 1.26 10.69 3.78 2.69 2.47 4.03 5.84 4.03 10.1 0 4.28-1.34 7.67-4.03 10.18-2.65 2.48-6.21 3.72-10.69 3.72h-2.74zM259.04 162.18c1.5-2.62-.22-6.41-3.25-6.41h-19.63a4.16 4.16 0 100 8.32h19.72c1.31 0 2.5-.77 3.16-1.9zM254.69 178.27c.02-2.36-1.77-4.45-4.13-4.45H236.03a4.02 4.02 0 100 8.05h10.65l.01.01h4.84c1.78 0 3.16-1.54 3.16-3.31v-.3zM255.42 192.25c1.36 0 2.58.81 3.23 2 1.42 2.64-.32 6.32-3.31 6.32h-19.19a4.15 4.15 0 110-8.3h10.53v-.01l.02-.01h8.72zM287.7 201.34c-4.65 0-8.86-1-12.61-3.01-3.71-2-6.64-4.76-8.77-8.26a22.97 22.97 0 01-3.14-11.9c0-4.4 1.05-8.34 3.14-11.84a22.54 22.54 0 018.77-8.32c3.75-2 7.96-3.01 12.6-3.01 4.66 0 8.84 1 12.55 3a22.54 22.54 0 0111.97 20.17c0 4.4-1.07 8.36-3.2 11.9a22.68 22.68 0 01-8.77 8.26c-3.71 2-7.9 3-12.54 3zm0-8.84c2.64 0 5.03-.6 7.16-1.79a13.1 13.1 0 005-5.12 14.76 14.76 0 001.85-7.42c0-2.77-.62-5.25-1.85-7.43a12.66 12.66 0 00-5-5.05 14.03 14.03 0 00-7.16-1.86c-2.65 0-5.04.62-7.17 1.86a13.09 13.09 0 00-5.06 5.05 15.17 15.17 0 00-1.79 7.43c0 2.77.6 5.25 1.8 7.42a13.55 13.55 0 005.05 5.12c2.13 1.2 4.52 1.8 7.17 1.8z" fill="#000"/><mask id="a" maskUnits="userSpaceOnUse" x="59" y="380" width="60" height="50"><path fill="#C4C4C4" d="M59 380h60v50H59z"/></mask><g mask="url(#a)" fill="#000"><path d="M59 380h60v10H59zM69 400h50v10H69zM59 420h60v10H59z"/></g><mask id="b" maskUnits="userSpaceOnUse" x="119" y="380" width="60" height="50"><path fill="#C4C4C4" d="M119 380h60v50h-60z"/></mask><g mask="url(#b)"><path fill-rule="evenodd" clip-rule="evenodd" d="M119 380a25 25 0 000 50h35a25 25 0 000-50h-35zm1 10a15 15 0 000 30h34a15 15 0 000-30h-34z" fill="#000"/></g><circle cx="119" cy="405" r="35" fill="#fff"/><circle cx="119" cy="405" r="25" fill="#000"/><circle cx="119" cy="405" r="15" fill="#fff"/><mask id="c" maskUnits="userSpaceOnUse" x="241" y="273" width="60" height="50"><path fill="#C4C4C4" d="M241 273h60v50h-60z"/></mask><g mask="url(#c)" fill="#000"><path d="M241 273h60v10h-60zM251 293h50v10h-50zM241 313h60v10h-60z"/></g><mask id="d" maskUnits="userSpaceOnUse" x="301" y="273" width="60" height="50"><path fill="#C4C4C4" d="M301 273h60v50h-60z"/></mask><g mask="url(#d)"><path fill-rule="evenodd" clip-rule="evenodd" d="M301 273a25 25 0 000 50h35a25 25 0 000-50h-35zm.12 10a15 15 0 000 30h34.76a15 15 0 100-30h-34.76z" fill="#000"/></g><circle cx="301" cy="298" r="35" fill="#fff"/><circle cx="301" cy="298" r="25" fill="#000"/><path fill="#fff" d="M260 283h71v10h-71z"/><path fill="#000" d="M253 293h71v10h-71z"/><path fill="#fff" d="M261 303h71v10h-71z"/><path fill-rule="evenodd" clip-rule="evenodd" d="M627.5 270H592v10h28.37a35.1 35.1 0 017.13-10zm0 20H602v10h74.5a25.12 25.12 0 000-10h-49zm44.5-10h-40a24.96 24.96 0 0120-10c8.18 0 15.44 3.93 20 10zm0 30h-40a24.96 24.96 0 0020 10c8.18 0 15.44-3.93 20-10zm-51.63 0H592v10h35.5a35.1 35.1 0 01-7.13-10zM687 320h-10.5a35.1 35.1 0 007.13-10h3.25a15 15 0 000-30h-3.25a35.1 35.1 0 00-7.13-10H687a25 25 0 010 50z" fill="#000"/><path d="M439.26 50.66c1.09-1.42.14-3.66-1.65-3.66H409a2 2 0 00-2 2v6c0 1.1.9 2 2 2h25.1c.78 0 1.47-.45 1.83-1.13a34.99 34.99 0 013.33-5.21zM419 67a2 2 0 00-2 2v6c0 1.1.9 2 2 2h70.87a1.9 1.9 0 001.9-1.61 25.25 25.25 0 000-6.78 1.9 1.9 0 00-1.9-1.61H419zM484.35 54c1.19 1.15.3 3-1.35 3h-32c-1.65 0-2.54-1.85-1.35-3 4.5-4.33 10.61-7 17.35-7 6.74 0 12.86 2.67 17.35 7zM484.35 90c1.19-1.15.3-3-1.35-3h-32c-1.65 0-2.54 1.85-1.35 3 4.5 4.33 10.61 7 17.35 7 6.74 0 12.86-2.67 17.35-7zM435.93 88.13A2.07 2.07 0 00434.1 87H409a2 2 0 00-2 2v6c0 1.1.9 2 2 2h28.6c1.8 0 2.75-2.24 1.66-3.66a34.98 34.98 0 01-3.33-5.2zM502 97h-5.6c-1.8 0-2.75-2.24-1.66-3.66a34.98 34.98 0 003.33-5.2A2.07 2.07 0 01499.9 87h1.98a15 15 0 000-30h-1.98c-.78 0-1.47-.45-1.83-1.13a34.99 34.99 0 00-3.33-5.21c-1.09-1.42-.14-3.66 1.65-3.66H502a25 25 0 010 50z" fill="#000"/><mask id="e" maskUnits="userSpaceOnUse" x="592" y="47" width="60" height="50"><path fill="#C4C4C4" d="M592 47h60v50h-60z"/></mask><g mask="url(#e)"><path fill-rule="evenodd" clip-rule="evenodd" d="M592.6 57a25.31 25.31 0 0120.14-9.9H652V57h-59.4zM652 96.9h-39.26A25.31 25.31 0 01592.6 87H652v9.9z" fill="#000"/></g><mask id="f" maskUnits="userSpaceOnUse" x="652" y="47" width="60" height="50"><path fill="#C4C4C4" d="M652 47h60v50h-60z"/></mask><g mask="url(#f)"><path fill-rule="evenodd" clip-rule="evenodd" d="M652 47a25 25 0 000 50h35a25 25 0 000-50h-35zm1 10a15 15 0 000 30h34a15 15 0 000-30h-34z" fill="#000"/></g><path fill-rule="evenodd" clip-rule="evenodd" d="M652 107a35 35 0 100-70 35 35 0 000 70zm0-10a25 25 0 100-50 25 25 0 000 50z" fill="#fff"/><path fill-rule="evenodd" clip-rule="evenodd" d="M652 97a25 25 0 100-50 25 25 0 000 50zm0-10a15 15 0 100-30 15 15 0 000 30z" fill="#000"/><path fill="#000" d="M602 67h50v10h-50z"/><path fill-rule="evenodd" clip-rule="evenodd" d="M652 57h-50v10h50V57zm0 20h-50v10h50V77z" fill="#fff"/><path d="M649.15 205.9A24.96 24.96 0 00676.4 181a24.98 24.98 0 00-43.74-16.55c-.54.62-.08 1.55.74 1.55h17.99l.01.02.02.01.48-.02a15 15 0 01-.3 29.97 11.97 11.97 0 01-.2 0l-.01.02H633.4c-.82 0-1.28.93-.73 1.55a24.94 24.94 0 0016.48 8.35zM620.05 165.43c-.17.35-.52.57-.91.57h-25.11c-.83 0-1.29-.94-.74-1.56a25.32 25.32 0 0118.85-8.34h12.23c.9 0 1.36 1.1.76 1.77-2 2.28-3.72 4.82-5.08 7.56z" fill="#000"/><path d="M646.4 176a5 5 0 110 10h-40a5 5 0 010-10h40zM593.3 197.56c-.56-.62-.1-1.56.73-1.56h25.1c.4 0 .75.22.92.57a35.06 35.06 0 005.08 7.56c.6.67.13 1.77-.76 1.77h-12.23c-7.5 0-14.22-3.22-18.85-8.34zM682.76 196.57c.17-.35.52-.57.9-.57h2.74a15 15 0 000-30h-2.73c-.39 0-.74-.22-.91-.57a35.02 35.02 0 00-5.17-7.66c-.6-.67-.14-1.77.76-1.77h8.05a25 25 0 010 50h-8.05c-.9 0-1.36-1.1-.76-1.77a35.02 35.02 0 005.17-7.66z" fill="#000"/><mask id="g" maskUnits="userSpaceOnUse" x="413" y="153" width="45" height="50"><path fill="#C4C4C4" d="M413 153h45v50h-45z"/></mask><g mask="url(#g)"><path fill-rule="evenodd" clip-rule="evenodd" d="M413.6 163a25.31 25.31 0 0120.14-9.9H473v9.9h-59.4zm59.4 39.9h-39.26a25.31 25.31 0 01-20.14-9.9H473v9.9zM428 173a5 5 0 000 10h40a5 5 0 100-10h-40z" fill="#000"/></g><mask id="h" maskUnits="userSpaceOnUse" x="489" y="153" width="44" height="50"><path fill="#C4C4C4" d="M489 153h44v50h-44z"/></mask><g mask="url(#h)"><path fill-rule="evenodd" clip-rule="evenodd" d="M473 153a25 25 0 000 50h35a25 25 0 000-50h-35zm1 10a15 15 0 000 30h34a15 15 0 000-30h-34z" fill="#000"/></g><path fill-rule="evenodd" clip-rule="evenodd" d="M473 213a35 35 0 100-70 35 35 0 000 70zm0-10a25 25 0 100-50 25 25 0 000 50z" fill="#fff"/><path fill-rule="evenodd" clip-rule="evenodd" d="M473 203a25 25 0 100-50 25 25 0 000 50zm0-10a15 15 0 100-30 15 15 0 000 30z" fill="#000"/><path d="M471.15 319.9A24.96 24.96 0 00498.4 295a24.98 24.98 0 00-43.74-16.55c-.54.62-.08 1.55.74 1.55h17.99l.01.02.02.01.48-.02a15 15 0 01-.3 29.97l-.18-.01-.02.01-.01.02H455.4c-.82 0-1.28.93-.73 1.55a24.94 24.94 0 0016.48 8.35zM442.05 279.43c-.17.35-.53.57-.91.57h-25.11c-.83 0-1.29-.94-.73-1.56a25.32 25.32 0 0118.84-8.34h12.23c.9 0 1.36 1.1.76 1.77-2 2.28-3.72 4.82-5.08 7.56z" fill="#000"/><path d="M472.4 290a1 1 0 011 1v8a1 1 0 01-1 1h-48a1 1 0 01-1-1v-8a1 1 0 011-1h48zM415.3 311.56c-.56-.62-.1-1.56.73-1.56h25.1c.4 0 .75.22.92.57a35.06 35.06 0 005.08 7.56c.6.67.13 1.77-.76 1.77h-12.23c-7.5 0-14.22-3.22-18.84-8.34zM504.76 310.57c.17-.35.52-.57.9-.57h2.74a15 15 0 000-30h-2.73c-.39 0-.74-.22-.91-.57a35.02 35.02 0 00-5.17-7.66c-.6-.67-.14-1.77.76-1.77h8.05a25 25 0 010 50h-8.05c-.9 0-1.36-1.1-.76-1.77a35.02 35.02 0 005.17-7.66zM59 492h100a30 30 0 110 60H59v-60z" fill="#000"/><path d="M130.72 522l14.14-14.14a20 20 0 110 28.28L130.72 522zM124 516l-24-24a33.94 33.94 0 0148 0l-24 24zM124 528l-24 24a33.94 33.94 0 0048 0l-24-24z" fill="#fff"/><path fill="#fff" d="M69 502h55v14H69zM69 528h55v14H69z"/><path fill-rule="evenodd" clip-rule="evenodd" d="M299 522a25 25 0 1112.5 21.65 34.95 34.95 0 005-8.65 15 15 0 10-7.5-13h-10z" fill="#000"/><path fill-rule="evenodd" clip-rule="evenodd" d="M259 522a25 25 0 0050 0h-10a15 15 0 01-30 0h-10zM244 497v10a15 15 0 0115 15h10a25 25 0 00-25-25z" fill="#000"/><path d="M195.75 706.18V708h-7.59v-9.8h7.4v1.82h-5.14v2.13h4.55v1.76h-4.55v2.27h5.33zm9.18-5.71V708h-2.07v-.9a2.96 2.96 0 01-2.34 1.01c-.99 0-1.77-.28-2.35-.85-.58-.57-.87-1.42-.87-2.54v-4.25h2.19v3.93c0 1.22.5 1.82 1.52 1.82.53 0 .95-.17 1.26-.5.32-.35.48-.86.48-1.53v-3.72h2.18zm4.11 1c.27-.37.62-.65 1.05-.83.45-.2.97-.28 1.54-.28v2.01a7.6 7.6 0 00-.49-.03c-.62 0-1.11.18-1.47.54-.35.34-.53.86-.53 1.56V708h-2.18v-7.53h2.08v1zm7.4 6.64c-.79 0-1.5-.16-2.13-.49a3.76 3.76 0 01-2-3.39 3.66 3.66 0 012-3.37 4.5 4.5 0 012.14-.5c.8 0 1.5.16 2.13.5a3.65 3.65 0 012 3.37 3.8 3.8 0 01-2 3.4c-.63.32-1.34.48-2.13.48zm0-1.79a1.8 1.8 0 001.38-.56c.36-.38.55-.9.55-1.53s-.19-1.13-.55-1.5a1.78 1.78 0 00-1.37-.58c-.56 0-1.02.19-1.39.57-.36.38-.55.88-.55 1.51 0 .64.19 1.15.55 1.53.37.37.83.56 1.39.56zm10.05-5.96a3.75 3.75 0 013.26 1.84c.33.58.5 1.26.5 2.03 0 .78-.17 1.46-.5 2.05a3.51 3.51 0 01-1.36 1.36c-.57.31-1.2.47-1.9.47a2.9 2.9 0 01-2.27-.9v3.5h-2.18v-10.24h2.08v.87c.54-.66 1.33-.98 2.37-.98zm-.38 5.96a1.8 1.8 0 001.37-.56c.37-.38.55-.9.55-1.53s-.18-1.13-.55-1.5a1.78 1.78 0 00-1.37-.58c-.56 0-1.02.19-1.39.57a2.1 2.1 0 00-.53 1.51c0 .64.18 1.15.53 1.53.37.37.83.56 1.4.56zm12.97-2.06l-.04.59h-5.7c.1.47.35.83.73 1.1.38.28.86.41 1.43.41.39 0 .74-.05 1.03-.17.31-.12.6-.3.86-.56l1.16 1.26c-.71.82-1.75 1.22-3.1 1.22-.86 0-1.6-.16-2.26-.49a3.7 3.7 0 01-2.05-3.39 3.69 3.69 0 011.96-3.37c.62-.34 1.3-.5 2.06-.5.74 0 1.4.15 2 .47.6.32 1.07.78 1.4 1.37.35.6.52 1.28.52 2.06zm-3.9-2.25c-.5 0-.92.14-1.25.42-.34.28-.54.66-.62 1.15h3.71a1.82 1.82 0 00-1.85-1.57zm8.19-1.65c1.16 0 2.06.28 2.69.84.62.55.93 1.38.93 2.5v4.3h-2.04v-.94c-.41.7-1.18 1.05-2.3 1.05-.57 0-1.08-.1-1.5-.3a2.11 2.11 0 01-1.3-1.99c-.01-.69.25-1.24.77-1.64.54-.4 1.35-.6 2.45-.6h1.74c0-.48-.14-.84-.43-1.1-.3-.26-.73-.39-1.3-.39a3.73 3.73 0 00-2.18.7l-.78-1.52c.41-.3.9-.52 1.47-.68a6.69 6.69 0 011.78-.23zm-.17 6.28c.37 0 .7-.08 1-.25.28-.18.49-.43.61-.77v-.77h-1.5c-.9 0-1.34.3-1.34.88 0 .28.1.5.32.67.22.16.53.24.91.24zm10.35-6.28c.93 0 1.68.28 2.25.84.58.56.87 1.39.87 2.49V708h-2.18v-3.98c0-.6-.13-1.04-.4-1.33-.26-.3-.63-.44-1.13-.44-.55 0-.99.17-1.31.51-.33.34-.5.84-.5 1.52V708h-2.18v-7.53h2.09v.88c.29-.32.65-.56 1.07-.73.43-.17.9-.26 1.42-.26zm13.96 7.8a5.76 5.76 0 01-2.75-.65 4.97 4.97 0 01-1.92-1.8 5.03 5.03 0 01-.69-2.61 4.95 4.95 0 012.6-4.41 5.76 5.76 0 012.76-.66c1.02 0 1.94.22 2.75.66a4.93 4.93 0 012.62 4.41 4.95 4.95 0 01-2.62 4.41c-.81.44-1.73.66-2.75.66zm0-1.92c.58 0 1.1-.13 1.57-.4s.83-.64 1.1-1.12c.27-.47.4-1.01.4-1.62 0-.6-.13-1.15-.4-1.62a2.76 2.76 0 00-1.1-1.11c-.46-.27-.99-.4-1.56-.4a3.07 3.07 0 00-2.68 1.5c-.26.48-.4 1.02-.4 1.63 0 .6.14 1.15.4 1.62a2.97 2.97 0 002.68 1.52zm11.5-5.88c.93 0 1.68.28 2.25.84.58.56.87 1.39.87 2.49V708h-2.19v-3.98c0-.6-.13-1.04-.39-1.33-.26-.3-.64-.44-1.13-.44-.55 0-1 .17-1.32.51-.33.34-.49.84-.49 1.52V708h-2.18v-7.53h2.08v.88c.3-.32.65-.56 1.08-.73.43-.17.9-.26 1.42-.26zm5.1-2.75h2.18V708h-2.18v-10.39zm4.2 2.86h2.2V708h-2.2v-7.53zm1.1-1.05c-.4 0-.73-.12-.98-.35a1.14 1.14 0 01-.38-.87c0-.35.13-.63.38-.87.25-.23.58-.35.98-.35s.73.11.98.34c.25.22.38.5.38.84 0 .36-.13.67-.38.9-.25.24-.58.36-.98.36zm7.7.94c.93 0 1.68.28 2.25.84.58.56.87 1.39.87 2.49V708h-2.19v-3.98c0-.6-.13-1.04-.39-1.33-.26-.3-.64-.44-1.13-.44-.55 0-.99.17-1.32.51-.32.34-.49.84-.49 1.52V708h-2.18v-7.53h2.09v.88c.28-.32.64-.56 1.07-.73.43-.17.9-.26 1.42-.26zm12.56 3.9l-.04.59h-5.7c.1.47.34.83.73 1.1.38.28.86.41 1.42.41.4 0 .74-.05 1.04-.17.3-.12.6-.3.86-.56l1.16 1.26c-.71.82-1.75 1.22-3.11 1.22-.85 0-1.6-.16-2.25-.49a3.7 3.7 0 01-2.05-3.39 3.69 3.69 0 011.96-3.37c.62-.34 1.3-.5 2.06-.5.74 0 1.4.15 2 .47.6.32 1.06.78 1.4 1.37.35.6.52 1.28.52 2.06zm-3.9-2.25c-.5 0-.92.14-1.25.42-.34.28-.54.66-.62 1.15h3.71a1.82 1.82 0 00-1.85-1.57zm9.47-3.81h4.45c1.07 0 2 .2 2.82.62.82.4 1.45.97 1.9 1.7.46.74.69 1.6.69 2.58s-.23 1.84-.69 2.58a4.56 4.56 0 01-1.9 1.72c-.81.4-1.75.6-2.82.6h-4.45v-9.8zm4.34 7.94c.98 0 1.76-.27 2.34-.81.59-.56.88-1.3.88-2.23 0-.93-.3-1.67-.88-2.21a3.25 3.25 0 00-2.34-.83h-2.07v6.08h2.07zm7.07-5.67h2.19V708h-2.19v-7.53zm1.1-1.05c-.4 0-.73-.12-.98-.35a1.14 1.14 0 01-.38-.87c0-.35.12-.63.38-.87.25-.23.58-.35.98-.35s.72.11.98.34c.25.22.37.5.37.84 0 .36-.12.67-.37.9-.26.24-.58.36-.98.36zm5.65 8.7c-.63 0-1.24-.08-1.83-.23a4.94 4.94 0 01-1.43-.59l.73-1.57a5.26 5.26 0 002.62.73c.92 0 1.38-.23 1.38-.69 0-.21-.13-.37-.38-.46a5.6 5.6 0 00-1.16-.24c-.62-.09-1.13-.2-1.53-.32-.4-.12-.75-.33-1.05-.64-.29-.31-.43-.75-.43-1.32 0-.47.13-.9.4-1.26.28-.37.69-.66 1.2-.87a5.2 5.2 0 011.88-.3c.54 0 1.06.06 1.59.18.53.11.97.27 1.31.47l-.72 1.56a4.35 4.35 0 00-2.18-.56c-.46 0-.81.06-1.05.2-.23.13-.35.3-.35.5 0 .23.13.4.38.49.26.1.66.18 1.2.26.62.1 1.13.22 1.52.34.4.11.73.32 1.02.63.3.3.44.74.44 1.29 0 .46-.14.88-.42 1.24-.29.37-.7.65-1.24.86-.53.2-1.16.3-1.9.3zm9.76-.48c-.21.15-.48.28-.8.36-.3.08-.63.11-.98.11-.9 0-1.59-.23-2.08-.68-.49-.46-.73-1.13-.73-2.02v-3.1h-1.16v-1.67h1.16v-1.84h2.18v1.84h1.88v1.68h-1.88v3.06c0 .32.08.57.24.74.17.17.4.26.7.26.35 0 .64-.1.88-.28l.6 1.54zm3.31-6.18c.26-.36.61-.64 1.05-.82.45-.2.96-.28 1.54-.28v2.01l-.49-.03c-.62 0-1.11.18-1.47.54-.35.34-.53.86-.53 1.56V708h-2.18v-7.53h2.08v1zm3.9-1h2.18V708h-2.19v-7.53zm1.08-1.04c-.4 0-.72-.12-.98-.35a1.14 1.14 0 01-.37-.87c0-.35.12-.63.37-.87.26-.23.58-.35.98-.35s.73.11.98.34c.26.22.38.5.38.84 0 .36-.12.67-.38.9-.25.24-.57.36-.98.36zm7.57.94a3.75 3.75 0 013.27 1.84c.32.58.49 1.26.49 2.03 0 .78-.17 1.46-.5 2.05a3.51 3.51 0 01-1.35 1.36c-.57.31-1.2.47-1.9.47-1.04 0-1.83-.33-2.37-.98v.87h-2.09v-10.39h2.19v3.66a2.9 2.9 0 012.26-.91zm-.37 5.96a1.8 1.8 0 001.37-.56c.36-.38.54-.9.54-1.53s-.18-1.13-.54-1.5a1.78 1.78 0 00-1.37-.58c-.56 0-1.03.19-1.39.57a2.1 2.1 0 00-.53 1.51c0 .64.18 1.15.53 1.53.36.37.83.56 1.39.56zm13.18-5.85V708h-2.08v-.9a2.96 2.96 0 01-2.33 1.01c-1 0-1.78-.28-2.36-.85-.57-.57-.86-1.42-.86-2.54v-4.25h2.18v3.93c0 1.22.5 1.82 1.53 1.82.52 0 .94-.17 1.26-.5.31-.35.47-.86.47-1.53v-3.72h2.19zm6.88 7.17c-.22.15-.48.28-.8.36-.3.08-.64.11-.98.11-.9 0-1.6-.23-2.09-.68-.48-.46-.72-1.13-.72-2.02v-3.1h-1.17v-1.67h1.17v-1.84h2.18v1.84h1.88v1.68h-1.88v3.06c0 .32.08.57.24.74.17.17.4.26.7.26.34 0 .64-.1.88-.28l.59 1.54zm1.22-7.17h2.19V708h-2.19v-7.53zm1.1-1.05c-.4 0-.73-.12-.98-.35a1.14 1.14 0 01-.38-.87c0-.35.12-.63.38-.87.25-.23.57-.35.98-.35.4 0 .72.11.98.34.25.22.37.5.37.84 0 .36-.12.67-.37.9-.26.24-.58.36-.98.36zm6.7 8.7c-.8 0-1.5-.17-2.14-.5a3.75 3.75 0 01-2-3.39 3.65 3.65 0 012-3.37 4.5 4.5 0 012.14-.5c.8 0 1.5.16 2.13.5a3.66 3.66 0 012 3.37 3.76 3.76 0 01-2 3.39c-.63.33-1.34.5-2.13.5zm0-1.8c.56 0 1.02-.19 1.37-.56.36-.38.55-.9.55-1.53s-.19-1.13-.55-1.5a1.79 1.79 0 00-1.37-.58c-.56 0-1.02.19-1.39.57-.36.38-.54.88-.54 1.51 0 .64.18 1.15.54 1.53.37.37.83.56 1.39.56zm10.17-5.96c.93 0 1.68.28 2.25.84.58.56.87 1.39.87 2.49V708h-2.19v-3.98c0-.6-.13-1.04-.39-1.33-.26-.3-.64-.44-1.13-.44-.55 0-1 .17-1.32.51-.32.34-.49.84-.49 1.52V708h-2.18v-7.53h2.08v.88c.3-.32.65-.56 1.08-.73.43-.17.9-.26 1.42-.26z" fill="#000"/><path fill-rule="evenodd" clip-rule="evenodd" d="M289 644h-8.37a35.1 35.1 0 00-7.13-10H289a25 25 0 010 50h-15.5a35.1 35.1 0 007.13-10H289a15 15 0 000-30zm-100-10h35.5a35.1 35.1 0 00-7.13 10H199v10h15.35a35.38 35.38 0 000 10H199v10h18.37a35.1 35.1 0 007.13 10H189v-50zm85 25a25 25 0 11-50 0 25 25 0 0150 0zm-10 0a15 15 0 11-30 0 15 15 0 0130 0z" fill="#000"/><path d="M289 644h-8.37a35.1 35.1 0 00-7.13-10H289a25 25 0 010 50h-15.5a35.1 35.1 0 007.13-10H289a15 15 0 000-30zM189 634h35.5a35.1 35.1 0 00-7.13 10H199v10h15.35a35.38 35.38 0 000 10H199v10h18.37a35.1 35.1 0 007.13 10H189v-50z" fill="#000"/><path fill-rule="evenodd" clip-rule="evenodd" d="M274 659a25 25 0 11-50 0 25 25 0 0150 0zm-10 0a15 15 0 11-30 0 15 15 0 0130 0z" fill="#000"/><path opacity=".3" d="M101 632l1.35 4.15h4.36l-3.53 2.56 1.35 4.14-3.53-2.56-3.53 2.56 1.35-4.14-3.53-2.56h4.36L101 632zM122 637l1.35 4.15h4.36l-3.53 2.56 1.35 4.14-3.53-2.56-3.53 2.56 1.35-4.14-3.53-2.56h4.36L122 637zM138 653l1.35 4.15h4.36l-3.53 2.56 1.35 4.14-3.53-2.56-3.53 2.56 1.35-4.14-3.53-2.56h4.36L138 653zM143 674l1.35 4.15h4.36l-3.53 2.56 1.35 4.14-3.53-2.56-3.53 2.56 1.35-4.14-3.53-2.56h4.36L143 674zM138 695l1.35 4.15h4.36l-3.53 2.56 1.35 4.14-3.53-2.56-3.53 2.56 1.35-4.14-3.53-2.56h4.36L138 695zM122 711l1.35 4.15h4.36l-3.53 2.56 1.35 4.14-3.53-2.56-3.53 2.56 1.35-4.14-3.53-2.56h4.36L122 711zM101 716l1.35 4.15h4.36l-3.53 2.56 1.35 4.14-3.53-2.56-3.53 2.56 1.35-4.14-3.53-2.56h4.36L101 716zM80 711l1.35 4.15h4.36l-3.53 2.56 1.35 4.14L80 719.3l-3.53 2.56 1.35-4.14-3.53-2.56h4.36L80 711zM64 695l1.35 4.15h4.36l-3.53 2.56 1.35 4.14L64 703.3l-3.53 2.56 1.35-4.14-3.53-2.56h4.36L64 695zM59 674l1.35 4.15h4.36l-3.53 2.56 1.35 4.14L59 682.3l-3.53 2.56 1.35-4.14-3.53-2.56h4.36L59 674zM64 653l1.35 4.15h4.36l-3.53 2.56 1.35 4.14L64 661.3l-3.53 2.56 1.35-4.14-3.53-2.56h4.36L64 653z" fill="#000"/><path d="M80 637l1.35 4.15h4.36l-3.53 2.56 1.35 4.14L80 645.3l-3.53 2.56 1.35-4.14-3.53-2.56h4.36L80 637z" fill="#000"/><path fill="#2D2940" d="M61 990h410v120H61z"/><path d="M207.75 1079.18v1.82h-7.59v-9.8h7.4v1.82h-5.14v2.13h4.55v1.76h-4.55v2.27h5.33zm9.18-5.71v7.53h-2.07v-.9a2.97 2.97 0 01-2.34 1.01 3.2 3.2 0 01-2.35-.85c-.58-.57-.87-1.42-.87-2.54v-4.25h2.19v3.93c0 1.22.5 1.82 1.52 1.82.53 0 .95-.17 1.26-.5.32-.35.48-.86.48-1.53v-3.72h2.18zm4.11.99c.27-.36.62-.64 1.05-.82.45-.19.97-.28 1.54-.28v2.01l-.49-.03c-.62 0-1.11.18-1.47.54-.35.34-.53.86-.53 1.56v3.56h-2.18v-7.53h2.08v.99zm7.4 6.65c-.79 0-1.5-.16-2.13-.49a3.76 3.76 0 01-2-3.39 3.67 3.67 0 012-3.37c.63-.34 1.34-.5 2.14-.5s1.5.16 2.13.5a3.65 3.65 0 012 3.37 3.75 3.75 0 01-2 3.39c-.63.33-1.34.49-2.13.49zm0-1.79c.57 0 1.03-.19 1.38-.56.36-.38.55-.89.55-1.53 0-.63-.19-1.13-.55-1.51a1.8 1.8 0 00-1.37-.57c-.56 0-1.02.19-1.39.57-.36.38-.55.88-.55 1.51 0 .64.19 1.15.55 1.53.37.37.83.56 1.39.56zm10.05-5.96a3.72 3.72 0 013.26 1.84c.33.58.5 1.26.5 2.03 0 .78-.17 1.46-.5 2.05a3.53 3.53 0 01-1.36 1.36c-.57.31-1.2.47-1.9.47a2.9 2.9 0 01-2.27-.91v3.52h-2.18v-10.25h2.08v.87c.54-.66 1.33-.98 2.37-.98zm-.38 5.96c.56 0 1.02-.19 1.37-.56.37-.38.55-.89.55-1.53 0-.63-.18-1.13-.55-1.51a1.8 1.8 0 00-1.37-.57c-.56 0-1.02.19-1.39.57-.35.38-.53.88-.53 1.51 0 .64.18 1.15.53 1.53.37.37.83.56 1.4.56zm12.97-2.06l-.04.59h-5.7c.1.47.35.84.73 1.11.38.27.86.4 1.43.4a2.46 2.46 0 001.89-.73l1.16 1.26c-.71.82-1.75 1.22-3.1 1.22-.86 0-1.6-.16-2.26-.49a3.7 3.7 0 01-2.05-3.39 3.7 3.7 0 011.96-3.37c.62-.34 1.3-.5 2.06-.5.74 0 1.4.15 2 .47.6.32 1.07.78 1.4 1.37a4 4 0 01.52 2.06zm-3.9-2.25c-.5 0-.92.14-1.25.42-.34.28-.54.66-.62 1.15h3.71a1.82 1.82 0 00-1.85-1.57zm8.19-1.65c1.17 0 2.06.28 2.69.84.62.55.93 1.38.93 2.5v4.3h-2.04v-.94c-.41.7-1.18 1.05-2.3 1.05-.57 0-1.08-.1-1.5-.29-.43-.2-.75-.47-.97-.81a2.13 2.13 0 01-.34-1.18c0-.7.26-1.25.78-1.65.54-.4 1.35-.6 2.45-.6h1.74c0-.48-.14-.84-.43-1.1-.3-.26-.73-.39-1.3-.39a3.77 3.77 0 00-2.18.7l-.78-1.52c.41-.29.9-.52 1.47-.68a7.07 7.07 0 011.78-.23zm-.17 6.28c.37 0 .7-.08 1-.25.28-.18.49-.43.61-.77v-.77h-1.5c-.9 0-1.34.29-1.34.88 0 .28.1.51.32.67.22.16.53.24.91.24zm10.35-6.28c.93 0 1.68.28 2.25.84.58.56.87 1.39.87 2.49v4.31h-2.18v-3.98c0-.59-.13-1.04-.4-1.33-.26-.29-.63-.44-1.13-.44-.55 0-.99.17-1.31.51-.33.34-.5.84-.5 1.52v3.72h-2.18v-7.53h2.09v.88c.29-.32.65-.56 1.07-.73.43-.18.9-.26 1.42-.26zm13.96 7.81a5.75 5.75 0 01-2.75-.66 4.95 4.95 0 01-1.92-1.81 5 5 0 01-.69-2.6c0-.96.23-1.82.69-2.59a4.98 4.98 0 011.92-1.82 5.75 5.75 0 012.75-.66c1.02 0 1.94.22 2.75.66a4.97 4.97 0 012.62 4.41 4.92 4.92 0 01-2.62 4.41c-.81.44-1.73.66-2.75.66zm0-1.93c.58 0 1.1-.13 1.57-.4s.83-.64 1.1-1.12c.27-.47.4-1.01.4-1.62 0-.61-.13-1.15-.4-1.62a2.74 2.74 0 00-1.1-1.11 3.07 3.07 0 00-1.56-.41 3.08 3.08 0 00-2.68 1.52c-.26.47-.4 1.01-.4 1.62 0 .61.14 1.15.4 1.62a2.94 2.94 0 002.68 1.52zm11.5-5.88c.93 0 1.68.28 2.25.84.58.56.87 1.39.87 2.49v4.31h-2.19v-3.98c0-.59-.13-1.04-.39-1.33-.26-.29-.64-.44-1.13-.44-.55 0-1 .17-1.32.51-.33.34-.49.84-.49 1.52v3.72h-2.18v-7.53h2.08v.88c.3-.32.65-.56 1.08-.73.43-.18.9-.26 1.42-.26zm5.1-2.75h2.18V1081h-2.18v-10.39zm4.2 2.86h2.2v7.53h-2.2v-7.53zm1.1-1.05c-.4 0-.73-.12-.98-.35a1.14 1.14 0 01-.38-.87c0-.35.13-.63.38-.87.25-.23.58-.35.98-.35s.73.11.98.34c.25.22.38.5.38.84 0 .36-.13.67-.38.91a1.4 1.4 0 01-.98.35zm7.7.94c.93 0 1.68.28 2.25.84.58.56.87 1.39.87 2.49v4.31h-2.19v-3.98c0-.59-.13-1.04-.39-1.33-.26-.29-.64-.44-1.13-.44-.55 0-.99.17-1.32.51-.32.34-.49.84-.49 1.52v3.72h-2.18v-7.53h2.09v.88c.28-.32.64-.56 1.07-.73.43-.18.9-.26 1.42-.26zm12.56 3.9l-.04.59h-5.7c.1.47.34.84.73 1.11.38.27.86.4 1.42.4a2.46 2.46 0 001.89-.73l1.17 1.26c-.71.82-1.75 1.22-3.11 1.22-.85 0-1.6-.16-2.25-.49a3.7 3.7 0 01-2.05-3.39 3.7 3.7 0 011.96-3.37c.62-.34 1.3-.5 2.06-.5.74 0 1.4.15 2 .47.6.32 1.06.78 1.4 1.37a4 4 0 01.52 2.06zm-3.9-2.25c-.5 0-.92.14-1.25.42-.34.28-.54.66-.62 1.15h3.71a1.82 1.82 0 00-1.85-1.57zm9.47-3.81h4.45c1.07 0 2 .21 2.82.62.82.4 1.45.97 1.9 1.7.46.74.69 1.6.69 2.58s-.23 1.84-.69 2.58a4.6 4.6 0 01-1.9 1.72c-.81.4-1.75.6-2.82.6h-4.45v-9.8zm4.34 7.94c.98 0 1.76-.27 2.34-.81.59-.55.88-1.3.88-2.23 0-.93-.3-1.67-.88-2.21a3.26 3.26 0 00-2.34-.83h-2.07v6.08h2.07zm7.07-5.67h2.19v7.53h-2.19v-7.53zm1.1-1.05c-.4 0-.73-.12-.98-.35a1.14 1.14 0 01-.38-.87c0-.35.12-.63.38-.87.25-.23.58-.35.98-.35s.72.11.98.34c.25.22.37.5.37.84 0 .36-.12.67-.37.91a1.4 1.4 0 01-.98.35zm5.65 8.69a7.5 7.5 0 01-1.83-.22 5.05 5.05 0 01-1.43-.59l.73-1.57a5.31 5.31 0 002.62.73c.92 0 1.38-.23 1.38-.69 0-.21-.13-.36-.38-.46a6.15 6.15 0 00-1.16-.24c-.62-.09-1.13-.2-1.53-.32-.4-.12-.75-.33-1.05-.64a1.86 1.86 0 01-.43-1.32c0-.47.13-.89.4-1.26.28-.37.69-.66 1.2-.87.54-.2 1.17-.3 1.88-.3a7.04 7.04 0 012.9.65l-.72 1.56a4.28 4.28 0 00-2.18-.56c-.46 0-.81.06-1.05.19-.23.13-.35.3-.35.51 0 .23.13.39.38.49.26.09.66.18 1.2.26.62.11 1.13.22 1.52.34.4.11.73.32 1.02.63.3.31.44.74.44 1.29 0 .46-.14.88-.42 1.24-.29.37-.7.65-1.24.86-.53.19-1.16.29-1.9.29zm9.76-.47c-.21.15-.48.28-.8.36-.3.07-.63.11-.98.11a3 3 0 01-2.08-.68c-.49-.46-.73-1.13-.73-2.02v-3.09h-1.16v-1.68h1.16v-1.84h2.18v1.84h1.88v1.68h-1.88v3.06c0 .32.08.57.24.74.17.17.4.26.7.26.35 0 .64-.1.88-.28l.6 1.54zm3.31-6.18a2.4 2.4 0 011.05-.82c.45-.19.96-.28 1.54-.28v2.01l-.49-.03c-.62 0-1.11.18-1.47.54-.35.34-.53.86-.53 1.56v3.56h-2.18v-7.53h2.08v.99zm3.9-.99h2.18v7.53h-2.19v-7.53zm1.08-1.05c-.4 0-.72-.12-.98-.35a1.14 1.14 0 01-.37-.87c0-.35.12-.63.37-.87.26-.23.58-.35.98-.35s.73.11.98.34c.26.22.38.5.38.84 0 .36-.12.67-.38.91a1.4 1.4 0 01-.98.35zm7.57.94a3.72 3.72 0 013.27 1.84c.32.58.49 1.26.49 2.03 0 .78-.17 1.46-.5 2.05a3.53 3.53 0 01-1.35 1.36c-.57.31-1.2.47-1.9.47-1.04 0-1.83-.32-2.37-.98v.87h-2.09v-10.39h2.19v3.66a2.9 2.9 0 012.26-.91zm-.37 5.96c.56 0 1.01-.19 1.37-.56.36-.38.54-.89.54-1.53 0-.63-.18-1.13-.54-1.51a1.8 1.8 0 00-1.37-.57c-.56 0-1.03.19-1.39.57-.35.38-.53.88-.53 1.51 0 .64.18 1.15.53 1.53.36.37.83.56 1.39.56zm13.18-5.85v7.53h-2.08v-.9a2.97 2.97 0 01-2.33 1.01 3.2 3.2 0 01-2.36-.85c-.57-.57-.86-1.42-.86-2.54v-4.25h2.18v3.93c0 1.22.5 1.82 1.53 1.82.52 0 .94-.17 1.26-.5.31-.35.47-.86.47-1.53v-3.72h2.19zm6.88 7.17c-.22.15-.48.28-.8.36-.3.07-.64.11-.98.11-.9 0-1.6-.23-2.09-.68-.48-.46-.72-1.13-.72-2.02v-3.09h-1.17v-1.68h1.17v-1.84h2.18v1.84h1.88v1.68h-1.88v3.06c0 .32.08.57.24.74.17.17.4.26.7.26.34 0 .64-.1.88-.28l.59 1.54zm1.22-7.17h2.19v7.53h-2.19v-7.53zm1.1-1.05c-.4 0-.73-.12-.98-.35a1.14 1.14 0 01-.38-.87c0-.35.12-.63.38-.87.25-.23.57-.35.98-.35.4 0 .72.11.98.34.25.22.37.5.37.84 0 .36-.12.67-.37.91a1.4 1.4 0 01-.98.35zm6.7 8.69c-.8 0-1.5-.16-2.14-.49a3.75 3.75 0 01-2-3.39 3.65 3.65 0 012-3.37c.63-.34 1.34-.5 2.14-.5s1.5.16 2.13.5a3.67 3.67 0 012 3.37 3.76 3.76 0 01-2 3.39c-.63.33-1.34.49-2.13.49zm0-1.79c.56 0 1.02-.19 1.37-.56.36-.38.55-.89.55-1.53 0-.63-.19-1.13-.55-1.51a1.8 1.8 0 00-1.37-.57c-.56 0-1.02.19-1.39.57-.36.38-.54.88-.54 1.51 0 .64.18 1.15.54 1.53.37.37.83.56 1.39.56zm10.17-5.96c.93 0 1.68.28 2.25.84.58.56.87 1.39.87 2.49v4.31h-2.19v-3.98c0-.59-.13-1.04-.39-1.33-.26-.29-.64-.44-1.13-.44-.55 0-1 .17-1.32.51-.32.34-.49.84-.49 1.52v3.72h-2.18v-7.53h2.08v.88c.3-.32.65-.56 1.08-.73.43-.18.9-.26 1.42-.26z" fill="#fff"/><path opacity=".3" d="M129 1002l1.35 4.15h4.36l-3.53 2.56 1.35 4.14-3.53-2.56-3.53 2.56 1.35-4.14-3.53-2.56h4.36L129 1002zM150 1007l1.35 4.15h4.36l-3.53 2.56 1.35 4.14-3.53-2.56-3.53 2.56 1.35-4.14-3.53-2.56h4.36L150 1007zM166 1023l1.35 4.15h4.36l-3.53 2.56 1.35 4.14-3.53-2.56-3.53 2.56 1.35-4.14-3.53-2.56h4.36L166 1023zM171 1044l1.35 4.15h4.36l-3.53 2.56 1.35 4.14-3.53-2.56-3.53 2.56 1.35-4.14-3.53-2.56h4.36L171 1044zM166 1065l1.35 4.15h4.36l-3.53 2.56 1.35 4.14-3.53-2.56-3.53 2.56 1.35-4.14-3.53-2.56h4.36L166 1065zM150 1081l1.35 4.15h4.36l-3.53 2.56 1.35 4.14-3.53-2.56-3.53 2.56 1.35-4.14-3.53-2.56h4.36L150 1081zM129 1086l1.35 4.15h4.36l-3.53 2.56 1.35 4.14-3.53-2.56-3.53 2.56 1.35-4.14-3.53-2.56h4.36L129 1086zM108 1081l1.35 4.15h4.36l-3.53 2.56 1.35 4.14-3.53-2.56-3.53 2.56 1.35-4.14-3.53-2.56h4.36L108 1081zM92 1065l1.35 4.15h4.36l-3.53 2.56 1.35 4.14-3.53-2.56-3.53 2.56 1.35-4.14-3.53-2.56h4.36L92 1065zM87 1044l1.35 4.15h4.36l-3.53 2.56 1.35 4.14-3.53-2.56-3.53 2.56 1.35-4.14-3.53-2.56h4.36L87 1044zM92 1023l1.35 4.15h4.36l-3.53 2.56 1.35 4.14-3.53-2.56-3.53 2.56 1.35-4.14-3.53-2.56h4.36L92 1023z" fill="#fff"/><path d="M108 1007l1.35 4.15h4.36l-3.53 2.56 1.35 4.14-3.53-2.56-3.53 2.56 1.35-4.14-3.53-2.56h4.36L108 1007zM289.4 1024h-7.56a31.57 31.57 0 00-6.46-9h14.02a22.55 22.55 0 0122.6 22.5 22.55 22.55 0 01-22.6 22.5h-14.02a31.57 31.57 0 006.45-9h7.57c7.49 0 13.56-6.04 13.56-13.5s-6.07-13.5-13.56-13.5zM199 1015h32.1a31.57 31.57 0 00-6.45 9h-16.61v9h13.88a31.63 31.63 0 000 9h-13.88v9h16.6c1.61 3.37 3.8 6.42 6.46 9H199v-45z" fill="#fff"/><path fill-rule="evenodd" clip-rule="evenodd" d="M275.84 1037.5a22.55 22.55 0 01-22.6 22.5 22.55 22.55 0 01-22.6-22.5 22.55 22.55 0 0122.6-22.5 22.55 22.55 0 0122.6 22.5zm-9.04 0c0 7.46-6.07 13.5-13.56 13.5a13.53 13.53 0 01-13.56-13.5c0-7.46 6.07-13.5 13.56-13.5s13.56 6.04 13.56 13.5z" fill="#fff"/><path d="M207.75 939.18V941h-7.59v-9.8h7.4v1.82h-5.14v2.13h4.55v1.76h-4.55v2.27h5.33zm9.18-5.71V941h-2.07v-.9a2.96 2.96 0 01-2.34 1.01c-.99 0-1.77-.28-2.35-.85-.58-.57-.87-1.42-.87-2.54v-4.25h2.19v3.93c0 1.22.5 1.82 1.52 1.82.53 0 .95-.17 1.26-.5.32-.35.48-.86.48-1.53v-3.72h2.18zm4.11 1c.27-.37.62-.65 1.05-.83.45-.2.97-.28 1.54-.28v2.01a7.6 7.6 0 00-.49-.03c-.62 0-1.11.18-1.47.54-.35.34-.53.86-.53 1.56V941h-2.18v-7.53h2.08v1zm7.4 6.64c-.79 0-1.5-.16-2.13-.49a3.76 3.76 0 01-2-3.39 3.66 3.66 0 012-3.37 4.5 4.5 0 012.14-.5c.8 0 1.5.16 2.13.5a3.65 3.65 0 012 3.37 3.8 3.8 0 01-2 3.4c-.63.32-1.34.48-2.13.48zm0-1.79a1.8 1.8 0 001.38-.56c.36-.38.55-.9.55-1.53s-.19-1.13-.55-1.5a1.78 1.78 0 00-1.37-.58c-.56 0-1.02.19-1.39.57-.36.38-.55.88-.55 1.51 0 .64.19 1.15.55 1.53.37.37.83.56 1.39.56zm10.05-5.96a3.75 3.75 0 013.26 1.84c.33.58.5 1.26.5 2.03 0 .78-.17 1.46-.5 2.05a3.51 3.51 0 01-1.36 1.36c-.57.31-1.2.47-1.9.47a2.9 2.9 0 01-2.27-.9v3.5h-2.18v-10.24h2.08v.87c.54-.66 1.33-.98 2.37-.98zm-.38 5.96a1.8 1.8 0 001.37-.56c.37-.38.55-.9.55-1.53s-.18-1.13-.55-1.5a1.78 1.78 0 00-1.37-.58c-.56 0-1.02.19-1.39.57a2.1 2.1 0 00-.53 1.51c0 .64.18 1.15.53 1.53.37.37.83.56 1.4.56zm12.97-2.06l-.04.59h-5.7c.1.47.35.83.73 1.1.38.28.86.41 1.43.41.39 0 .74-.05 1.03-.17.31-.12.6-.3.86-.56l1.16 1.26c-.71.82-1.75 1.22-3.1 1.22-.86 0-1.6-.16-2.26-.49a3.7 3.7 0 01-2.05-3.39 3.69 3.69 0 011.96-3.37c.62-.34 1.3-.5 2.06-.5.74 0 1.4.15 2 .47.6.32 1.07.78 1.4 1.37.35.6.52 1.28.52 2.06zm-3.9-2.25c-.5 0-.92.14-1.25.42-.34.28-.54.66-.62 1.15h3.71a1.82 1.82 0 00-1.85-1.57zm8.19-1.65c1.17 0 2.06.28 2.69.84.62.55.93 1.38.93 2.5v4.3h-2.04v-.94c-.41.7-1.18 1.05-2.3 1.05-.57 0-1.08-.1-1.5-.3a2.11 2.11 0 01-1.3-1.99c-.01-.69.25-1.24.77-1.64.54-.4 1.35-.6 2.45-.6h1.74c0-.48-.14-.84-.43-1.1-.3-.26-.73-.39-1.3-.39a3.73 3.73 0 00-2.18.7l-.78-1.52c.41-.3.9-.52 1.47-.68a6.69 6.69 0 011.78-.23zm-.17 6.28c.37 0 .7-.08 1-.25.28-.18.49-.43.61-.77v-.77h-1.5c-.9 0-1.34.3-1.34.88 0 .28.1.5.32.67.22.16.53.24.91.24zm10.35-6.28c.93 0 1.68.28 2.25.84.58.56.87 1.39.87 2.49V941h-2.18v-3.98c0-.6-.13-1.04-.4-1.33-.26-.3-.63-.44-1.13-.44-.55 0-.99.17-1.31.51-.33.34-.5.84-.5 1.52V941h-2.18v-7.53h2.09v.88c.29-.32.65-.56 1.07-.73.43-.17.9-.26 1.42-.26zm13.96 7.8a5.76 5.76 0 01-2.75-.65 4.97 4.97 0 01-1.92-1.8 5.03 5.03 0 01-.69-2.61 4.95 4.95 0 012.6-4.41 5.76 5.76 0 012.76-.66c1.02 0 1.94.22 2.75.66a4.93 4.93 0 012.62 4.41 4.95 4.95 0 01-2.62 4.41c-.81.44-1.73.66-2.75.66zm0-1.92c.58 0 1.1-.13 1.57-.4s.83-.64 1.1-1.12c.27-.47.4-1.01.4-1.62 0-.6-.13-1.15-.4-1.62a2.76 2.76 0 00-1.1-1.11c-.46-.27-.99-.4-1.56-.4a3.07 3.07 0 00-2.68 1.5c-.26.48-.4 1.02-.4 1.63 0 .6.14 1.15.4 1.62a2.97 2.97 0 002.68 1.52zm11.5-5.88c.93 0 1.68.28 2.25.84.58.56.87 1.39.87 2.49V941h-2.19v-3.98c0-.6-.13-1.04-.39-1.33-.26-.3-.64-.44-1.13-.44-.55 0-1 .17-1.32.51-.33.34-.49.84-.49 1.52V941h-2.18v-7.53h2.08v.88c.3-.32.65-.56 1.08-.73.43-.17.9-.26 1.42-.26zm5.1-2.75h2.18V941h-2.18v-10.39zm4.2 2.86h2.2V941h-2.2v-7.53zm1.1-1.05c-.4 0-.73-.12-.98-.35a1.14 1.14 0 01-.38-.87c0-.35.13-.63.38-.87.25-.23.58-.35.98-.35s.73.11.98.34c.25.22.38.5.38.84 0 .36-.13.67-.38.9-.25.24-.58.36-.98.36zm7.7.94c.93 0 1.68.28 2.25.84.58.56.87 1.39.87 2.49V941h-2.19v-3.98c0-.6-.13-1.04-.39-1.33-.26-.3-.64-.44-1.13-.44-.55 0-.99.17-1.32.51-.32.34-.49.84-.49 1.52V941h-2.18v-7.53h2.09v.88c.28-.32.64-.56 1.07-.73.43-.17.9-.26 1.42-.26zm12.56 3.9l-.04.59h-5.7c.1.47.34.83.73 1.1.38.28.86.41 1.42.41.4 0 .74-.05 1.04-.17.3-.12.6-.3.86-.56l1.16 1.26c-.71.82-1.75 1.22-3.11 1.22-.85 0-1.6-.16-2.25-.49a3.7 3.7 0 01-2.05-3.39 3.69 3.69 0 011.96-3.37c.62-.34 1.3-.5 2.06-.5.74 0 1.4.15 2 .47.6.32 1.06.78 1.4 1.37.35.6.52 1.28.52 2.06zm-3.9-2.25c-.5 0-.92.14-1.25.42-.34.28-.54.66-.62 1.15h3.71a1.82 1.82 0 00-1.85-1.57zm9.47-3.81h4.45c1.07 0 2 .2 2.82.62.82.4 1.45.97 1.9 1.7.46.74.69 1.6.69 2.58s-.23 1.84-.69 2.58a4.56 4.56 0 01-1.9 1.72c-.81.4-1.75.6-2.82.6h-4.45v-9.8zm4.34 7.94c.98 0 1.76-.27 2.34-.81.59-.56.88-1.3.88-2.23 0-.93-.3-1.67-.88-2.21a3.25 3.25 0 00-2.34-.83h-2.07v6.08h2.07zm7.07-5.67h2.19V941h-2.19v-7.53zm1.1-1.05c-.4 0-.73-.12-.98-.35a1.14 1.14 0 01-.38-.87c0-.35.12-.63.38-.87.25-.23.58-.35.98-.35s.72.11.98.34c.25.22.37.5.37.84 0 .36-.12.67-.37.9-.26.24-.58.36-.98.36zm5.65 8.7c-.63 0-1.24-.08-1.83-.23a4.94 4.94 0 01-1.43-.59l.73-1.57a5.26 5.26 0 002.62.73c.92 0 1.38-.23 1.38-.69 0-.21-.13-.37-.38-.46a5.6 5.6 0 00-1.16-.24c-.62-.09-1.13-.2-1.53-.32-.4-.12-.75-.33-1.05-.64-.29-.31-.43-.75-.43-1.32 0-.47.13-.9.4-1.26.28-.37.69-.66 1.2-.87a5.2 5.2 0 011.88-.3c.54 0 1.06.06 1.59.18.53.11.97.27 1.31.47l-.72 1.56a4.35 4.35 0 00-2.18-.56c-.46 0-.81.06-1.05.2-.23.13-.35.3-.35.5 0 .23.13.4.38.49.26.1.66.18 1.2.26.62.1 1.13.22 1.52.34.4.11.73.32 1.02.63.3.3.44.74.44 1.29 0 .46-.14.88-.42 1.24-.29.37-.7.65-1.24.86-.53.2-1.16.3-1.9.3zm9.76-.48c-.21.15-.48.28-.8.36-.3.08-.63.11-.98.11-.9 0-1.59-.23-2.08-.68-.49-.46-.73-1.13-.73-2.02v-3.1h-1.16v-1.67h1.16v-1.84h2.18v1.84h1.88v1.68h-1.88v3.06c0 .32.08.57.24.74.17.17.4.26.7.26.35 0 .64-.1.88-.28l.6 1.54zm3.31-6.18c.26-.36.61-.64 1.05-.82.45-.2.96-.28 1.54-.28v2.01l-.49-.03c-.62 0-1.11.18-1.47.54-.35.34-.53.86-.53 1.56V941h-2.18v-7.53h2.08v1zm3.9-1h2.18V941h-2.19v-7.53zm1.08-1.04c-.4 0-.72-.12-.98-.35a1.14 1.14 0 01-.37-.87c0-.35.12-.63.37-.87.26-.23.58-.35.98-.35s.73.11.98.34c.26.22.38.5.38.84 0 .36-.12.67-.38.9-.25.24-.57.36-.98.36zm7.57.94a3.75 3.75 0 013.27 1.84c.32.58.49 1.26.49 2.03 0 .78-.17 1.46-.5 2.05a3.51 3.51 0 01-1.35 1.36c-.57.31-1.2.47-1.9.47-1.04 0-1.83-.33-2.37-.98v.87h-2.09v-10.39h2.19v3.66a2.9 2.9 0 012.26-.91zm-.37 5.96a1.8 1.8 0 001.37-.56c.36-.38.54-.9.54-1.53s-.18-1.13-.54-1.5a1.78 1.78 0 00-1.37-.58c-.56 0-1.03.19-1.39.57a2.1 2.1 0 00-.53 1.51c0 .64.18 1.15.53 1.53.36.37.83.56 1.39.56zm13.18-5.85V941h-2.08v-.9a2.96 2.96 0 01-2.33 1.01c-1 0-1.78-.28-2.36-.85-.57-.57-.86-1.42-.86-2.54v-4.25h2.18v3.93c0 1.22.5 1.82 1.53 1.82.52 0 .94-.17 1.26-.5.31-.35.47-.86.47-1.53v-3.72h2.19zm6.88 7.17c-.22.15-.48.28-.8.36-.3.08-.64.11-.98.11-.9 0-1.6-.23-2.09-.68-.48-.46-.72-1.13-.72-2.02v-3.1h-1.17v-1.67h1.17v-1.84h2.18v1.84h1.88v1.68h-1.88v3.06c0 .32.08.57.24.74.17.17.4.26.7.26.34 0 .64-.1.88-.28l.59 1.54zm1.22-7.17h2.19V941h-2.19v-7.53zm1.1-1.05c-.4 0-.73-.12-.98-.35a1.14 1.14 0 01-.38-.87c0-.35.12-.63.38-.87.25-.23.57-.35.98-.35.4 0 .72.11.98.34.25.22.37.5.37.84 0 .36-.12.67-.37.9-.26.24-.58.36-.98.36zm6.7 8.7c-.8 0-1.5-.17-2.14-.5a3.75 3.75 0 01-2-3.39 3.65 3.65 0 012-3.37 4.5 4.5 0 012.14-.5c.8 0 1.5.16 2.13.5a3.66 3.66 0 012 3.37 3.76 3.76 0 01-2 3.39c-.63.33-1.34.5-2.13.5zm0-1.8c.56 0 1.02-.19 1.37-.56.36-.38.55-.9.55-1.53s-.19-1.13-.55-1.5a1.79 1.79 0 00-1.37-.58c-.56 0-1.02.19-1.39.57-.36.38-.54.88-.54 1.51 0 .64.18 1.15.54 1.53.37.37.83.56 1.39.56zm10.17-5.96c.93 0 1.68.28 2.25.84.58.56.87 1.39.87 2.49V941h-2.19v-3.98c0-.6-.13-1.04-.39-1.33-.26-.3-.64-.44-1.13-.44-.55 0-1 .17-1.32.51-.32.34-.49.84-.49 1.52V941h-2.18v-7.53h2.08v.88c.3-.32.65-.56 1.08-.73.43-.17.9-.26 1.42-.26z" fill="#2D2940"/><path opacity=".3" d="M129 862l1.35 4.15h4.36l-3.53 2.56 1.35 4.14-3.53-2.56-3.53 2.56 1.35-4.14-3.53-2.56h4.36L129 862zM150 867l1.35 4.15h4.36l-3.53 2.56 1.35 4.14-3.53-2.56-3.53 2.56 1.35-4.14-3.53-2.56h4.36L150 867zM166 883l1.35 4.15h4.36l-3.53 2.56 1.35 4.14-3.53-2.56-3.53 2.56 1.35-4.14-3.53-2.56h4.36L166 883zM171 904l1.35 4.15h4.36l-3.53 2.56 1.35 4.14-3.53-2.56-3.53 2.56 1.35-4.14-3.53-2.56h4.36L171 904zM166 925l1.35 4.15h4.36l-3.53 2.56 1.35 4.14-3.53-2.56-3.53 2.56 1.35-4.14-3.53-2.56h4.36L166 925zM150 941l1.35 4.15h4.36l-3.53 2.56 1.35 4.14-3.53-2.56-3.53 2.56 1.35-4.14-3.53-2.56h4.36L150 941zM129 946l1.35 4.15h4.36l-3.53 2.56 1.35 4.14-3.53-2.56-3.53 2.56 1.35-4.14-3.53-2.56h4.36L129 946zM108 941l1.35 4.15h4.36l-3.53 2.56 1.35 4.14-3.53-2.56-3.53 2.56 1.35-4.14-3.53-2.56h4.36L108 941zM92 925l1.35 4.15h4.36l-3.53 2.56 1.35 4.14L92 933.3l-3.53 2.56 1.35-4.14-3.53-2.56h4.36L92 925zM87 904l1.35 4.15h4.36l-3.53 2.56 1.35 4.14L87 912.3l-3.53 2.56 1.35-4.14-3.53-2.56h4.36L87 904zM92 883l1.35 4.15h4.36l-3.53 2.56 1.35 4.14L92 891.3l-3.53 2.56 1.35-4.14-3.53-2.56h4.36L92 883z" fill="#2D2940"/><path d="M108 867l1.35 4.15h4.36l-3.53 2.56 1.35 4.14-3.53-2.56-3.53 2.56 1.35-4.14-3.53-2.56h4.36L108 867zM289.4 884h-7.56a31.58 31.58 0 00-6.46-9h14.02a22.55 22.55 0 0122.6 22.5 22.55 22.55 0 01-22.6 22.5h-14.02a31.58 31.58 0 006.45-9h7.57c7.49 0 13.56-6.04 13.56-13.5S296.89 884 289.4 884zM199 875h32.1a31.58 31.58 0 00-6.45 9h-16.61v9h13.88a31.65 31.65 0 000 9h-13.88v9h16.6c1.61 3.37 3.8 6.42 6.46 9H199v-45z" fill="#2D2940"/><path fill-rule="evenodd" clip-rule="evenodd" d="M275.84 897.5a22.55 22.55 0 01-22.6 22.5 22.55 22.55 0 01-22.6-22.5 22.55 22.55 0 0122.6-22.5 22.55 22.55 0 0122.6 22.5zm-9.04 0c0 7.46-6.07 13.5-13.56 13.5a13.53 13.53 0 01-13.56-13.5c0-7.46 6.07-13.5 13.56-13.5s13.56 6.04 13.56 13.5z" fill="#2D2940"/><path d="M106.15 804.2v9.8h-1.86l-4.89-5.95V814h-2.24v-9.8h1.88l4.87 5.95v-5.95h2.24zm5.2 2.16c1.17 0 2.07.28 2.7.84.62.55.93 1.38.93 2.5v4.3h-2.05v-.94c-.4.7-1.17 1.05-2.3 1.05-.57 0-1.07-.1-1.5-.3-.42-.19-.74-.46-.97-.8a2.11 2.11 0 01-.33-1.18c0-.7.26-1.25.78-1.65.53-.4 1.35-.6 2.45-.6h1.73c0-.48-.14-.84-.43-1.1-.29-.26-.72-.39-1.3-.39a3.73 3.73 0 00-2.17.7l-.78-1.52c.4-.3.9-.52 1.47-.68a6.67 6.67 0 011.77-.23zm-.16 6.28c.37 0 .7-.08.99-.25.29-.18.5-.43.61-.77v-.77h-1.5c-.89 0-1.34.3-1.34.88 0 .28.11.5.33.67.22.16.52.24.9.24zm15.41-6.28a3 3 0 012.24.84c.56.55.84 1.38.84 2.49V814h-2.18v-3.98c0-.6-.13-1.04-.38-1.33-.24-.3-.6-.44-1.05-.44-.51 0-.92.16-1.22.5-.3.33-.45.82-.45 1.47V814h-2.18v-3.98c0-1.18-.48-1.77-1.43-1.77-.5 0-.9.16-1.2.5-.3.33-.45.82-.45 1.47V814h-2.19v-7.53h2.1v.87c.27-.32.61-.56 1.01-.73a3.52 3.52 0 012.79.07c.43.2.77.5 1.04.9.3-.38.7-.69 1.16-.9.47-.22 1-.32 1.55-.32zm12.5 3.9l-.04.59h-5.7c.1.47.34.83.73 1.1.38.28.86.41 1.42.41.4 0 .74-.05 1.04-.17.3-.12.6-.3.85-.56l1.17 1.26c-.71.82-1.75 1.22-3.11 1.22-.85 0-1.6-.16-2.25-.49a3.7 3.7 0 01-2.05-3.39 3.68 3.68 0 011.96-3.37c.62-.34 1.3-.5 2.06-.5.74 0 1.4.15 2 .47.6.32 1.06.78 1.4 1.37a4 4 0 01.52 2.06zm-3.9-2.25c-.5 0-.92.14-1.25.42-.34.28-.54.66-.62 1.15h3.71a1.83 1.83 0 00-1.85-1.57zm12.9 6.1c-.8 0-1.5-.16-2.14-.49a3.75 3.75 0 01-2-3.39 3.65 3.65 0 012-3.37 4.5 4.5 0 012.14-.5c.8 0 1.5.16 2.13.5a3.66 3.66 0 012 3.37 3.76 3.76 0 01-2 3.39c-.63.33-1.33.5-2.13.5zm0-1.79c.56 0 1.02-.19 1.37-.56.37-.38.55-.9.55-1.53s-.18-1.13-.55-1.5a1.79 1.79 0 00-1.37-.58c-.56 0-1.02.19-1.38.57-.37.38-.55.88-.55 1.51 0 .64.18 1.15.55 1.53.36.37.82.56 1.38.56zm7.99-5.68h1.93v1.68h-1.88V814h-2.18v-5.68h-1.16v-1.68h1.16v-.34c0-.86.25-1.54.75-2.04.52-.5 1.24-.76 2.16-.76a3.68 3.68 0 011.67.4l-.58 1.59a1.5 1.5 0 00-.88-.27c-.66 0-1 .37-1 1.1v.32zm11.84 7c-.22.15-.48.28-.8.36-.3.08-.63.11-.98.11-.9 0-1.6-.23-2.09-.68-.48-.46-.72-1.13-.72-2.02v-3.1h-1.16v-1.67h1.16v-1.84h2.18v1.84h1.88v1.68h-1.88v3.06c0 .32.08.57.24.74.17.17.4.26.7.26.34 0 .64-.1.88-.28l.59 1.54zm5.8-7.28c.94 0 1.69.28 2.26.84.57.56.86 1.39.86 2.49V814h-2.18v-3.98c0-.6-.13-1.04-.4-1.33-.25-.3-.63-.44-1.13-.44-.55 0-.98.17-1.31.51-.33.34-.5.84-.5 1.52V814h-2.18v-10.39h2.19v3.64c.29-.29.64-.5 1.05-.66a3.7 3.7 0 011.34-.23zm12.56 3.9l-.04.59h-5.7c.1.47.35.83.73 1.1.38.28.86.41 1.43.41.4 0 .74-.05 1.04-.17.3-.12.59-.3.85-.56l1.16 1.26c-.7.82-1.74 1.22-3.1 1.22-.85 0-1.6-.16-2.26-.49a3.7 3.7 0 01-2.04-3.39 3.69 3.69 0 011.96-3.37c.61-.34 1.3-.5 2.05-.5.74 0 1.4.15 2 .47.6.32 1.07.78 1.4 1.37.35.6.52 1.28.52 2.06zm-3.9-2.25c-.5 0-.91.14-1.25.42-.33.28-.54.66-.61 1.15h3.7a1.82 1.82 0 00-1.85-1.57zm15-1.65a3 3 0 012.24.84c.56.55.84 1.38.84 2.49V814h-2.18v-3.98c0-.6-.13-1.04-.38-1.33-.24-.3-.59-.44-1.05-.44-.51 0-.92.16-1.22.5-.3.33-.44.82-.44 1.47V814H193v-3.98c0-1.18-.47-1.77-1.43-1.77-.5 0-.9.16-1.2.5-.3.33-.45.82-.45 1.47V814h-2.18v-7.53h2.08v.87c.28-.32.63-.56 1.03-.73a3.52 3.52 0 012.78.07c.43.2.78.5 1.04.9.3-.38.7-.69 1.16-.9.48-.22 1-.32 1.55-.32zm12.5 3.9l-.04.59h-5.7c.1.47.35.83.73 1.1.38.28.86.41 1.43.41.39 0 .73-.05 1.03-.17.31-.12.6-.3.86-.56l1.16 1.26c-.7.82-1.75 1.22-3.1 1.22-.86 0-1.6-.16-2.26-.49a3.7 3.7 0 01-2.05-3.39 3.68 3.68 0 011.96-3.37c.62-.34 1.3-.5 2.06-.5.74 0 1.4.15 2 .47.6.32 1.07.78 1.4 1.37a4 4 0 01.52 2.06zm-3.9-2.25c-.5 0-.91.14-1.25.42-.34.28-.54.66-.62 1.15h3.71a1.83 1.83 0 00-1.85-1.57z" fill="#2D2940"/><rect x="81" y="804" width="10" height="10" rx="5" fill="#000"/></svg>