<svg width="808" height="1206" fill="none" xmlns="http://www.w3.org/2000/svg"><g filter="url(#a)"><rect x="20" y="20" width="768" height="1166" rx="5" fill="#fff"/><path d="M111 103.68V112H76.31V67.2h33.86v8.32H86.62v9.73h20.8v8.06h-20.8v10.37H111ZM147.31 67.2h20.35c4.87 0 9.16.94 12.87 2.82a20.38 20.38 0 0 1 8.7 7.8c2.1 3.37 3.14 7.3 3.14 11.78 0 4.48-1.05 8.4-3.14 11.78a20.8 20.8 0 0 1-8.7 7.87c-3.71 1.83-8 2.75-12.87 2.75h-20.35V67.2Zm19.84 36.29c4.48 0 8.04-1.24 10.69-3.71 2.69-2.52 4.03-5.91 4.03-10.18s-1.34-7.64-4.03-10.11c-2.65-2.52-6.2-3.78-10.69-3.78h-9.47v27.78h9.47Z" fill="#000"/><path d="M132 112.77c-4.64 0-8.84-1-12.6-3.01-3.71-2-6.64-4.76-8.77-8.26a22.97 22.97 0 0 1-3.13-11.9c0-4.4 1.04-8.34 3.13-11.84a22.54 22.54 0 0 1 8.77-8.32c3.75-2 7.96-3 12.6-3 4.66 0 8.84 1 12.55 3a22.54 22.54 0 0 1 11.97 20.16c0 4.4-1.07 8.36-3.2 11.9a22.68 22.68 0 0 1-8.77 8.26c-3.71 2-7.9 3-12.54 3Zm0-8.83c2.65 0 5.04-.6 7.18-1.8a13.1 13.1 0 0 0 4.99-5.12 14.76 14.76 0 0 0 1.85-7.42c0-2.77-.62-5.25-1.85-7.42a12.66 12.66 0 0 0-5-5.06 14.02 14.02 0 0 0-7.16-1.86c-2.65 0-5.04.62-7.17 1.86a13.09 13.09 0 0 0-5.06 5.06A15.17 15.17 0 0 0 118 89.6c0 2.77.6 5.25 1.8 7.42a13.55 13.55 0 0 0 5.05 5.12c2.13 1.2 4.52 1.8 7.17 1.8Z" fill="#000"/><path fill-rule="evenodd" clip-rule="evenodd" d="M115.61 116.8h-.01a30.7 30.7 0 0 1-11.8-11.13l-.03-.05-.03-.05A30.97 30.97 0 0 1 99.5 89.6c0-5.72 1.38-11.1 4.27-15.94v-.02A30.54 30.54 0 0 1 115.6 62.4h.01l.02-.02a34.33 34.33 0 0 1 16.38-3.95c5.84 0 11.35 1.27 16.34 3.97a30.54 30.54 0 0 1 16.17 27.2c0 5.75-1.42 11.17-4.35 16.03v.02l-.02.02a30.7 30.7 0 0 1-11.8 11.13c-5 2.7-10.5 3.97-16.34 3.97a34.34 34.34 0 0 1-16.38-3.95l-.02-.01Zm37.71-39.04a22.54 22.54 0 0 0-8.77-8.32c-3.71-2-7.9-3-12.54-3-4.65 0-8.85 1-12.61 3-3.71 2-6.64 4.78-8.77 8.32a22.63 22.63 0 0 0-3.13 11.84c0 4.4 1.04 8.36 3.13 11.9a22.68 22.68 0 0 0 8.77 8.26c3.75 2 7.96 3 12.6 3 4.66 0 8.84-1 12.55-3 3.71-2 6.64-4.76 8.77-8.26 2.13-3.54 3.2-7.5 3.2-11.9s-1.07-8.34-3.2-11.84Zm-28.48-.64a13.09 13.09 0 0 0-5.06 5.06A15.17 15.17 0 0 0 118 89.6c0 2.77.6 5.25 1.8 7.42a13.55 13.55 0 0 0 5.05 5.12c2.13 1.2 4.52 1.8 7.17 1.8 2.64 0 5.03-.6 7.17-1.8a13.1 13.1 0 0 0 4.99-5.12 14.76 14.76 0 0 0 1.85-7.42c0-2.77-.62-5.25-1.85-7.42a12.66 12.66 0 0 0-5-5.06 14.02 14.02 0 0 0-7.16-1.86c-2.65 0-5.04.62-7.17 1.86Zm10.38 18.07a5.09 5.09 0 0 0 1.94-2.02l.02-.05.03-.05c.48-.84.81-1.93.81-3.47 0-1.54-.33-2.63-.8-3.47l-.04-.05-.03-.05a4.66 4.66 0 0 0-1.88-1.93l-.06-.03-.05-.03a6.04 6.04 0 0 0-3.15-.78c-1.34 0-2.33.3-3.16.78l-.05.03-.05.03a5.08 5.08 0 0 0-1.98 1.98 7.25 7.25 0 0 0-.78 3.52c0 1.56.32 2.67.78 3.52a5.54 5.54 0 0 0 2.03 2.07c.83.46 1.84.75 3.2.75 1.37 0 2.38-.3 3.22-.75Z" fill="#fff"/><path fill-rule="evenodd" clip-rule="evenodd" d="M280.69 104.25v8.32H246v-8.3h14.69v-.02h20Zm-20-10.37h16.41v-8.06H246v8.05h14.69v.01Zm-4.39-17.8H246v-8.31h33.86v8.32H256.3Z" fill="#000"/><path d="M317 67.77h20.35c4.87 0 9.15.94 12.87 2.81a20.38 20.38 0 0 1 8.7 7.81c2.1 3.37 3.14 7.3 3.14 11.78 0 4.48-1.05 8.4-3.14 11.77a20.8 20.8 0 0 1-8.7 7.88c-3.72 1.83-8 2.75-12.87 2.75H317v-44.8Zm19.84 36.29c4.48 0 8.04-1.24 10.69-3.72 2.69-2.51 4.03-5.9 4.03-10.17s-1.34-7.64-4.03-10.11c-2.65-2.52-6.21-3.78-10.69-3.78h-9.47v27.78h9.47Z" fill="#000"/><path d="M287.19 113.85h.01a30.33 30.33 0 0 0 14.5 3.49c5.24 0 10.09-1.14 14.44-3.5a26.68 26.68 0 0 0 10.28-9.69l.01-.01c2.54-4.2 3.78-8.9 3.78-13.97s-1.24-9.75-3.78-13.92a26.54 26.54 0 0 0-10.29-9.76A29.96 29.96 0 0 0 301.7 63c-5.25 0-10.1 1.14-14.5 3.48h-.01a26.53 26.53 0 0 0-10.3 9.78v.01a26.63 26.63 0 0 0-3.7 13.9c0 5.06 1.2 9.74 3.69 13.94l.01.02.01.02a26.68 26.68 0 0 0 10.29 9.7Zm23.19-18.24-.02.03-.01.03a9.1 9.1 0 0 1-3.47 3.57 10.43 10.43 0 0 1-5.18 1.26c-2.01 0-3.71-.44-5.2-1.26a9.55 9.55 0 0 1-3.54-3.6 11.2 11.2 0 0 1-1.28-5.47c0-2.17.46-3.96 1.28-5.47a9.08 9.08 0 0 1 3.52-3.52l.03-.02.03-.01a10.03 10.03 0 0 1 5.16-1.32c1.99 0 3.68.46 5.16 1.32l.02.01.03.02a8.66 8.66 0 0 1 3.44 3.49l.01.03.02.02a10.76 10.76 0 0 1 1.33 5.45c0 2.15-.47 3.93-1.33 5.44Z" fill="#000" stroke="#fff" stroke-width="8"/><path fill-rule="evenodd" clip-rule="evenodd" d="M81 200.88v-8.06h31.1v8.06H81Zm33 18.69h1.69v-8.32H114v8.32Zm.86-36.48H114v-8.32h.86v8.32Z" fill="#000"/><path d="M152 174.77h20.35c4.87 0 9.15.94 12.87 2.81a20.38 20.38 0 0 1 8.7 7.81c2.1 3.37 3.14 7.3 3.14 11.78 0 4.48-1.05 8.4-3.14 11.77a20.8 20.8 0 0 1-8.7 7.88c-3.72 1.83-8 2.75-12.87 2.75H152v-44.8Zm19.84 36.29c4.48 0 8.04-1.24 10.69-3.72 2.69-2.51 4.03-5.9 4.03-10.17s-1.34-7.64-4.03-10.11c-2.65-2.52-6.21-3.78-10.69-3.78h-9.47v27.78h9.47Z" fill="#000"/><path fill-rule="evenodd" clip-rule="evenodd" d="M121.06 175H100.7c-4.86 0-9.15.94-12.86 2.82a20.88 20.88 0 0 0-6.88 5.27h34.73v9.73h-5v8.05h5v10.4h-5v.02h-9.47c-.33 0-.66 0-.98-.02H80.6a21.2 21.2 0 0 0 7.25 5.78c3.71 1.83 8 2.75 12.86 2.75h20.36V175Zm-44.84 25.87h10.61a17.19 17.19 0 0 1-.33-3.47c0-1.66.2-3.2.6-4.58H76.4a26.23 26.23 0 0 0-.18 8.05Z" fill="#000"/><path d="M122.19 220.85h.01a30.33 30.33 0 0 0 14.5 3.49c5.24 0 10.09-1.14 14.44-3.5a26.7 26.7 0 0 0 10.28-9.69l.02-.01c2.53-4.2 3.77-8.9 3.77-13.97s-1.24-9.75-3.78-13.91a26.54 26.54 0 0 0-10.29-9.77A29.95 29.95 0 0 0 136.7 170c-5.25 0-10.1 1.14-14.5 3.48h-.01a26.53 26.53 0 0 0-10.3 9.78v.01a26.62 26.62 0 0 0-3.7 13.9c0 5.06 1.2 9.74 3.69 13.94l.01.02.02.02a26.68 26.68 0 0 0 10.28 9.7Zm23.19-18.23-.02.02-.01.03a9.09 9.09 0 0 1-3.47 3.57 10.44 10.44 0 0 1-5.18 1.26c-2.01 0-3.7-.44-5.2-1.26a9.55 9.55 0 0 1-3.54-3.6 11.2 11.2 0 0 1-1.28-5.47c0-2.17.46-3.96 1.28-5.47a9.09 9.09 0 0 1 3.52-3.52l.03-.02.03-.01a10.03 10.03 0 0 1 5.16-1.32c1.99 0 3.68.46 5.16 1.32l.02.01.03.02a8.66 8.66 0 0 1 3.44 3.49l.01.03.02.02a10.76 10.76 0 0 1 1.33 5.45c0 2.16-.47 3.94-1.33 5.45Z" fill="#000" stroke="#fff" stroke-width="8"/><path d="M167.46 327.06c-.4 0-.75.23-.92.58a33.02 33.02 0 0 1-3.82 6.21c-.53.68-.06 1.72.8 1.72h8.83c4.87 0 9.15-.92 12.87-2.75a20.8 20.8 0 0 0 8.7-7.88c2.1-3.37 3.14-7.3 3.14-11.77 0-4.48-1.05-8.4-3.14-11.78a20.38 20.38 0 0 0-8.7-7.8c-3.72-1.88-8-2.82-12.87-2.82h-9.47c-.88 0-1.34 1.07-.78 1.75a33.03 33.03 0 0 1 4.06 6.2c.18.34.53.56.91.56h4.77c4.48 0 8.04 1.26 10.69 3.78 2.69 2.47 4.03 5.84 4.03 10.1 0 4.27-1.34 7.67-4.03 10.18-2.65 2.48-6.21 3.72-10.69 3.72h-4.38ZM111.28 292.51c.56-.67.1-1.74-.79-1.74H82a1 1 0 0 0-1 1v6.32a1 1 0 0 0 1 1h24.4c.38 0 .73-.22.9-.56a33.04 33.04 0 0 1 3.98-6.01ZM103.88 309.96c.07-.6-.4-1.14-1-1.14H82a1 1 0 0 0-1 1v6.05a1 1 0 0 0 1 1h13.68l.01.01h7.06c.59 0 1.05-.51 1.01-1.1a33.05 33.05 0 0 1 .12-5.82ZM106 327.25c.4 0 .75.23.92.58a33 33 0 0 0 3.74 6.02c.53.68.06 1.72-.8 1.72H82a1 1 0 0 1-1-1v-6.3a1 1 0 0 1 1-1h13.68v-.01l.02-.01H106ZM136.7 336.34c-4.66 0-8.86-1-12.61-3.01-3.71-2-6.64-4.76-8.77-8.26a22.97 22.97 0 0 1-3.14-11.9c0-4.4 1.05-8.34 3.14-11.84a22.54 22.54 0 0 1 8.77-8.32c3.75-2 7.95-3.01 12.6-3.01 4.66 0 8.84 1 12.55 3a22.54 22.54 0 0 1 11.97 20.17c0 4.4-1.07 8.36-3.2 11.9a22.68 22.68 0 0 1-8.77 8.26c-3.71 2-7.9 3-12.54 3Zm0-8.84c2.64 0 5.03-.6 7.16-1.79a13.1 13.1 0 0 0 5-5.12 14.76 14.76 0 0 0 1.85-7.42c0-2.78-.62-5.25-1.85-7.43a12.66 12.66 0 0 0-5-5.05 14.03 14.03 0 0 0-7.16-1.86c-2.65 0-5.04.62-7.17 1.86a13.09 13.09 0 0 0-5.06 5.05 15.17 15.17 0 0 0-1.79 7.43c0 2.77.6 5.25 1.8 7.42a13.55 13.55 0 0 0 5.05 5.12c2.13 1.2 4.52 1.8 7.17 1.8ZM340.1 212.06a3.8 3.8 0 0 0-3.3 2.06c-1.44 2.7.33 6.45 3.39 6.45h3.16c4.87 0 9.15-.92 12.87-2.75a20.8 20.8 0 0 0 8.7-7.88c2.1-3.37 3.14-7.3 3.14-11.77 0-4.48-1.05-8.4-3.14-11.78a20.38 20.38 0 0 0-8.7-7.8c-3.72-1.88-8-2.82-12.87-2.82h-3.6c-3.1 0-4.85 3.87-3.33 6.55a3.76 3.76 0 0 0 3.22 1.96h3.2c4.48 0 8.04 1.26 10.69 3.78 2.69 2.47 4.03 5.84 4.03 10.1 0 4.28-1.34 7.67-4.03 10.18-2.65 2.48-6.21 3.72-10.69 3.72h-2.74ZM279.04 182.18c1.5-2.62-.22-6.41-3.25-6.41h-19.63a4.16 4.16 0 1 0 0 8.32h19.72c1.31 0 2.5-.77 3.16-1.9ZM274.69 198.27c.02-2.36-1.77-4.45-4.13-4.45h-14.54a4.02 4.02 0 1 0 0 8.05h10.66l.01.01h4.85c1.77 0 3.15-1.54 3.15-3.31v-.3ZM275.42 212.25c1.36 0 2.58.81 3.23 2 1.42 2.64-.32 6.32-3.31 6.32h-19.19a4.15 4.15 0 1 1 0-8.3h10.53v-.01l.02-.01h8.72ZM307.7 221.34c-4.65 0-8.86-1-12.61-3.01-3.71-2-6.64-4.76-8.77-8.26a22.97 22.97 0 0 1-3.14-11.9c0-4.4 1.05-8.34 3.14-11.84a22.54 22.54 0 0 1 8.77-8.32c3.75-2 7.96-3.01 12.6-3.01 4.66 0 8.84 1 12.55 3a22.54 22.54 0 0 1 11.97 20.17c0 4.4-1.07 8.36-3.2 11.9a22.68 22.68 0 0 1-8.77 8.26c-3.71 2-7.9 3-12.54 3Zm0-8.84c2.64 0 5.03-.6 7.16-1.79a13.1 13.1 0 0 0 5-5.12 14.76 14.76 0 0 0 1.85-7.42c0-2.77-.62-5.25-1.85-7.43a12.66 12.66 0 0 0-5-5.05 14.03 14.03 0 0 0-7.16-1.86c-2.65 0-5.04.62-7.17 1.86a13.09 13.09 0 0 0-5.06 5.05 15.17 15.17 0 0 0-1.79 7.43c0 2.77.6 5.25 1.8 7.42a13.55 13.55 0 0 0 5.05 5.12c2.13 1.2 4.52 1.8 7.17 1.8Z" fill="#000"/><mask id="b" style="mask-type:alpha" maskUnits="userSpaceOnUse" x="79" y="400" width="60" height="50"><path fill="#C4C4C4" d="M79 400h60v50H79z"/></mask><g mask="url(#b)" fill="#000"><path d="M79 400h60v10H79zM89 420h50v10H89zM79 440h60v10H79z"/></g><mask id="c" style="mask-type:alpha" maskUnits="userSpaceOnUse" x="139" y="400" width="60" height="50"><path fill="#C4C4C4" d="M139 400h60v50h-60z"/></mask><g mask="url(#c)"><path fill-rule="evenodd" clip-rule="evenodd" d="M139 400a25 25 0 0 0 0 50h35a25 25 0 0 0 0-50h-35Zm1 10a15 15 0 0 0 0 30h34a15 15 0 0 0 0-30h-34Z" fill="#000"/></g><circle cx="139" cy="425" r="35" fill="#fff"/><circle cx="139" cy="425" r="25" fill="#000"/><circle cx="139" cy="425" r="15" fill="#fff"/><mask id="d" style="mask-type:alpha" maskUnits="userSpaceOnUse" x="261" y="293" width="60" height="50"><path fill="#C4C4C4" d="M261 293h60v50h-60z"/></mask><g mask="url(#d)" fill="#000"><path d="M261 293h60v10h-60zM271 313h50v10h-50zM261 333h60v10h-60z"/></g><mask id="e" style="mask-type:alpha" maskUnits="userSpaceOnUse" x="321" y="293" width="60" height="50"><path fill="#C4C4C4" d="M321 293h60v50h-60z"/></mask><g mask="url(#e)"><path fill-rule="evenodd" clip-rule="evenodd" d="M321 293a25 25 0 0 0 0 50h35a25 25 0 0 0 0-50h-35Zm.12 10a15 15 0 0 0 0 30h34.76a15 15 0 0 0 0-30h-34.76Z" fill="#000"/></g><circle cx="321" cy="318" r="35" fill="#fff"/><circle cx="321" cy="318" r="25" fill="#000"/><path fill="#fff" d="M280 303h71v10h-71z"/><path fill="#000" d="M273 313h71v10h-71z"/><path fill="#fff" d="M281 323h71v10h-71z"/><path fill-rule="evenodd" clip-rule="evenodd" d="M647.5 290H612v10h28.37a35.12 35.12 0 0 1 7.13-10Zm0 20H622v10h74.5a25.12 25.12 0 0 0 0-10h-49Zm44.5-10h-40a24.96 24.96 0 0 1 20-10c8.18 0 15.44 3.93 20 10Zm0 30h-40a24.96 24.96 0 0 0 20 10c8.18 0 15.44-3.93 20-10Zm-51.63 0H612v10h35.5a35.12 35.12 0 0 1-7.13-10ZM707 340h-10.5a35.12 35.12 0 0 0 7.13-10h3.25a15 15 0 0 0 0-30h-3.25a35.12 35.12 0 0 0-7.13-10H707a25 25 0 0 1 0 50Z" fill="#000"/><path d="M459.26 70.66c1.09-1.42.14-3.66-1.65-3.66H429a2 2 0 0 0-2 2v6c0 1.1.9 2 2 2h25.1c.78 0 1.47-.45 1.83-1.13a34.99 34.99 0 0 1 3.33-5.21ZM439 87a2 2 0 0 0-2 2v6c0 1.1.9 2 2 2h70.87a1.9 1.9 0 0 0 1.9-1.61 25.25 25.25 0 0 0 0-6.78 1.9 1.9 0 0 0-1.9-1.61H439ZM504.35 74c1.19 1.15.3 3-1.35 3h-32c-1.65 0-2.54-1.85-1.35-3 4.5-4.33 10.61-7 17.35-7 6.74 0 12.86 2.67 17.35 7ZM504.35 110c1.19-1.15.3-3-1.35-3h-32c-1.65 0-2.54 1.85-1.35 3 4.5 4.33 10.61 7 17.35 7 6.74 0 12.86-2.67 17.35-7ZM455.93 108.13a2.07 2.07 0 0 0-1.83-1.13H429a2 2 0 0 0-2 2v6c0 1.1.9 2 2 2h28.6c1.8 0 2.75-2.24 1.66-3.66a35.04 35.04 0 0 1-3.33-5.2ZM522 117h-5.6c-1.8 0-2.75-2.24-1.66-3.66a35.04 35.04 0 0 0 3.33-5.2 2.07 2.07 0 0 1 1.83-1.14h1.98a15 15 0 0 0 0-30h-1.98c-.78 0-1.48-.45-1.83-1.13a34.99 34.99 0 0 0-3.33-5.21c-1.09-1.42-.14-3.66 1.65-3.66H522a25 25 0 0 1 0 50Z" fill="#000"/><mask id="f" style="mask-type:alpha" maskUnits="userSpaceOnUse" x="612" y="67" width="60" height="50"><path fill="#C4C4C4" d="M612 67h60v50h-60z"/></mask><g mask="url(#f)"><path fill-rule="evenodd" clip-rule="evenodd" d="M612.6 77a25.31 25.31 0 0 1 20.14-9.9H672V77h-59.4Zm59.4 39.9h-39.26a25.31 25.31 0 0 1-20.14-9.9H672v9.9Z" fill="#000"/></g><mask id="g" style="mask-type:alpha" maskUnits="userSpaceOnUse" x="672" y="67" width="60" height="50"><path fill="#C4C4C4" d="M672 67h60v50h-60z"/></mask><g mask="url(#g)"><path fill-rule="evenodd" clip-rule="evenodd" d="M672 67a25 25 0 0 0 0 50h35a25 25 0 0 0 0-50h-35Zm1 10a15 15 0 0 0 0 30h34a15 15 0 0 0 0-30h-34Z" fill="#000"/></g><path fill-rule="evenodd" clip-rule="evenodd" d="M672 127a35 35 0 1 0 0-70 35 35 0 0 0 0 70Zm0-10a25 25 0 1 0 0-50 25 25 0 0 0 0 50Z" fill="#fff"/><path fill-rule="evenodd" clip-rule="evenodd" d="M672 117a25 25 0 1 0 0-50 25 25 0 0 0 0 50Zm0-10a15 15 0 1 0 0-30 15 15 0 0 0 0 30Z" fill="#000"/><path fill="#000" d="M622 87h50v10h-50z"/><path fill-rule="evenodd" clip-rule="evenodd" d="M672 77h-50v10h50V77Zm0 20h-50v10h50V97Z" fill="#fff"/><path d="M669.15 225.9A24.96 24.96 0 0 0 696.4 201a24.98 24.98 0 0 0-43.74-16.55c-.54.62-.08 1.55.74 1.55h17.99l.01.02.02.01.48-.02a15 15 0 0 1-.3 29.97 11.97 11.97 0 0 1-.2 0l-.01.02H653.4c-.82 0-1.28.93-.73 1.55a24.94 24.94 0 0 0 16.48 8.35ZM640.05 185.43c-.17.35-.52.57-.91.57h-25.11c-.83 0-1.29-.94-.74-1.56a25.32 25.32 0 0 1 18.85-8.34h12.23c.9 0 1.36 1.1.76 1.77-2 2.28-3.72 4.82-5.08 7.56Z" fill="#000"/><path d="M666.4 196a5 5 0 1 1 0 10h-40a5 5 0 0 1 0-10h40ZM613.3 217.56c-.56-.62-.1-1.56.73-1.56h25.1c.4 0 .75.22.92.57a35.06 35.06 0 0 0 5.08 7.56c.6.67.13 1.77-.76 1.77h-12.23c-7.5 0-14.22-3.22-18.85-8.34ZM702.76 216.57c.17-.35.52-.57.9-.57h2.74a15 15 0 0 0 0-30h-2.73c-.39 0-.74-.22-.91-.57a35.02 35.02 0 0 0-5.17-7.66c-.6-.67-.14-1.77.76-1.77h8.05a25 25 0 0 1 0 50h-8.05c-.9 0-1.36-1.1-.76-1.77a35.02 35.02 0 0 0 5.17-7.66Z" fill="#000"/><mask id="h" style="mask-type:alpha" maskUnits="userSpaceOnUse" x="433" y="173" width="45" height="50"><path fill="#C4C4C4" d="M433 173h45v50h-45z"/></mask><g mask="url(#h)"><path fill-rule="evenodd" clip-rule="evenodd" d="M433.6 183a25.31 25.31 0 0 1 20.14-9.9H493v9.9h-59.4Zm59.4 39.9h-39.26a25.31 25.31 0 0 1-20.14-9.9H493v9.9ZM448 193a5 5 0 0 0 0 10h40a5 5 0 1 0 0-10h-40Z" fill="#000"/></g><mask id="i" style="mask-type:alpha" maskUnits="userSpaceOnUse" x="509" y="173" width="44" height="50"><path fill="#C4C4C4" d="M509 173h44v50h-44z"/></mask><g mask="url(#i)"><path fill-rule="evenodd" clip-rule="evenodd" d="M493 173a25 25 0 0 0 0 50h35a25 25 0 0 0 0-50h-35Zm1 10a15 15 0 0 0 0 30h34a15 15 0 0 0 0-30h-34Z" fill="#000"/></g><path fill-rule="evenodd" clip-rule="evenodd" d="M493 233a35 35 0 1 0 0-70 35 35 0 0 0 0 70Zm0-10a25 25 0 1 0 0-50 25 25 0 0 0 0 50Z" fill="#fff"/><path fill-rule="evenodd" clip-rule="evenodd" d="M493 223a25 25 0 1 0 0-50 25 25 0 0 0 0 50Zm0-10a15 15 0 1 0 0-30 15 15 0 0 0 0 30Z" fill="#000"/><path d="M491.15 339.9A24.96 24.96 0 0 0 518.4 315a24.98 24.98 0 0 0-43.74-16.55c-.54.62-.08 1.55.74 1.55h17.99l.01.02.02.01.48-.02a15 15 0 0 1-.3 29.97l-.18-.01-.02.01-.01.02H475.4c-.82 0-1.28.93-.73 1.55a24.94 24.94 0 0 0 16.48 8.35ZM462.05 299.43c-.17.35-.53.57-.91.57h-25.11c-.83 0-1.29-.94-.73-1.56a25.32 25.32 0 0 1 18.84-8.34h12.23c.9 0 1.36 1.1.76 1.77-2 2.28-3.72 4.82-5.08 7.56Z" fill="#000"/><path d="M492.4 310a1 1 0 0 1 1 1v8a1 1 0 0 1-1 1h-48a1 1 0 0 1-1-1v-8a1 1 0 0 1 1-1h48ZM435.3 331.56c-.56-.62-.1-1.56.73-1.56h25.1c.4 0 .75.22.92.57a35.06 35.06 0 0 0 5.08 7.56c.6.67.13 1.77-.76 1.77h-12.23c-7.5 0-14.22-3.22-18.84-8.34ZM524.76 330.57c.17-.35.52-.57.9-.57h2.74a15 15 0 0 0 0-30h-2.73c-.39 0-.74-.22-.91-.57a35.02 35.02 0 0 0-5.17-7.66c-.6-.67-.14-1.77.76-1.77h8.05a25 25 0 0 1 0 50h-8.05c-.9 0-1.36-1.1-.76-1.77a35.02 35.02 0 0 0 5.17-7.66ZM79 512h100a30 30 0 1 1 0 60H79v-60Z" fill="#000"/><path d="m150.72 542 14.14-14.14a20 20 0 1 1 28.28 28.28 20 20 0 0 1-28.28 0L150.72 542ZM144 536l-24-24a33.94 33.94 0 0 1 48 0l-24 24ZM144 548l-24 24a33.94 33.94 0 0 0 48 0l-24-24Z" fill="#fff"/><path fill="#fff" d="M89 522h55v14H89zM89 548h55v14H89z"/><path fill-rule="evenodd" clip-rule="evenodd" d="M319 542a25 25 0 1 1 12.5 21.65 34.95 34.95 0 0 0 5-8.65 15 15 0 1 0-7.5-13h-10Z" fill="#000"/><path fill-rule="evenodd" clip-rule="evenodd" d="M279 542a25 25 0 0 0 50 0h-10a15 15 0 0 1-30 0h-10ZM264 517v10a15 15 0 0 1 15 15h10a25 25 0 0 0-25-25Z" fill="#000"/><path d="M215.75 726.18V728h-7.59v-9.8h7.4v1.82h-5.14v2.13h4.55v1.76h-4.55v2.27h5.33Zm9.18-5.71V728h-2.07v-.9a2.96 2.96 0 0 1-2.34 1.01c-.99 0-1.77-.28-2.35-.85-.58-.57-.87-1.42-.87-2.54v-4.25h2.19v3.93c0 1.22.5 1.82 1.52 1.82.53 0 .95-.17 1.26-.5.32-.35.48-.86.48-1.53v-3.72h2.18Zm4.11 1c.27-.37.62-.65 1.05-.83.45-.2.97-.28 1.54-.28v2.01a7.6 7.6 0 0 0-.49-.03c-.62 0-1.11.18-1.47.54-.35.34-.53.86-.53 1.56V728h-2.18v-7.53h2.08v1Zm7.4 6.64c-.79 0-1.5-.16-2.13-.49a3.76 3.76 0 0 1-2-3.39 3.66 3.66 0 0 1 2-3.37 4.5 4.5 0 0 1 2.14-.5c.8 0 1.5.16 2.13.5a3.65 3.65 0 0 1 2 3.37 3.8 3.8 0 0 1-2 3.4c-.63.32-1.34.48-2.13.48Zm0-1.79a1.8 1.8 0 0 0 1.38-.56c.36-.38.55-.9.55-1.53s-.19-1.13-.55-1.5a1.78 1.78 0 0 0-1.37-.58c-.56 0-1.02.19-1.39.57-.36.38-.55.88-.55 1.51 0 .64.19 1.15.55 1.53.37.37.83.56 1.39.56Zm10.05-5.96a3.75 3.75 0 0 1 3.26 1.84c.33.58.5 1.26.5 2.03 0 .78-.17 1.46-.5 2.05a3.51 3.51 0 0 1-1.36 1.36c-.57.31-1.2.47-1.9.47a2.9 2.9 0 0 1-2.27-.9v3.5h-2.18v-10.24h2.08v.87c.54-.66 1.33-.98 2.37-.98Zm-.38 5.96a1.8 1.8 0 0 0 1.37-.56c.37-.38.55-.9.55-1.53s-.18-1.13-.55-1.5a1.78 1.78 0 0 0-1.37-.58c-.56 0-1.02.19-1.39.57a2.1 2.1 0 0 0-.53 1.51c0 .64.18 1.15.53 1.53.37.37.83.56 1.4.56Zm12.97-2.06-.04.59h-5.7c.1.47.35.83.73 1.1.38.28.86.41 1.43.41.39 0 .74-.05 1.03-.17.31-.12.6-.3.86-.56l1.16 1.26c-.71.82-1.75 1.22-3.1 1.22-.86 0-1.6-.16-2.26-.49a3.7 3.7 0 0 1-2.05-3.39 3.69 3.69 0 0 1 1.96-3.37c.62-.34 1.3-.5 2.06-.5.74 0 1.4.15 2 .47.6.32 1.07.78 1.4 1.37.35.6.52 1.28.52 2.06Zm-3.9-2.25c-.5 0-.92.14-1.25.42-.34.28-.54.66-.62 1.15h3.71a1.82 1.82 0 0 0-1.85-1.57Zm8.19-1.65c1.17 0 2.06.28 2.69.84.62.55.93 1.38.93 2.5v4.3h-2.04v-.94c-.41.7-1.18 1.05-2.3 1.05-.57 0-1.08-.1-1.5-.3a2.11 2.11 0 0 1-1.3-1.99c-.01-.69.25-1.24.77-1.64.54-.4 1.35-.6 2.45-.6h1.74c0-.48-.14-.84-.43-1.1-.3-.26-.73-.39-1.3-.39a3.73 3.73 0 0 0-2.18.7l-.78-1.52c.41-.3.9-.52 1.47-.68a6.69 6.69 0 0 1 1.78-.23Zm-.17 6.28c.37 0 .7-.08 1-.25.28-.18.49-.43.61-.77v-.77h-1.5c-.9 0-1.34.3-1.34.88 0 .28.1.5.32.67.22.16.53.24.91.24Zm10.35-6.28c.93 0 1.68.28 2.25.84.58.56.87 1.39.87 2.49V728h-2.18v-3.98c0-.6-.13-1.04-.4-1.33-.26-.3-.63-.44-1.13-.44-.55 0-.99.17-1.31.51-.33.34-.5.84-.5 1.52V728h-2.18v-7.53h2.09v.88c.29-.32.65-.56 1.07-.73.43-.17.9-.26 1.42-.26Zm13.96 7.8a5.76 5.76 0 0 1-2.75-.65 4.97 4.97 0 0 1-1.92-1.8 5.03 5.03 0 0 1-.69-2.61 4.95 4.95 0 0 1 2.6-4.41 5.76 5.76 0 0 1 2.76-.66c1.02 0 1.94.22 2.75.66a4.93 4.93 0 0 1 2.62 4.41 4.95 4.95 0 0 1-2.62 4.41c-.81.44-1.73.66-2.75.66Zm0-1.92c.58 0 1.1-.13 1.57-.4s.83-.64 1.1-1.12c.27-.47.4-1.01.4-1.62 0-.6-.13-1.15-.4-1.62a2.76 2.76 0 0 0-1.1-1.11c-.46-.27-.99-.4-1.56-.4a3.07 3.07 0 0 0-2.68 1.5c-.26.48-.4 1.02-.4 1.63 0 .6.14 1.15.4 1.62a2.97 2.97 0 0 0 2.68 1.52Zm11.5-5.88c.93 0 1.68.28 2.25.84.58.56.87 1.39.87 2.49V728h-2.19v-3.98c0-.6-.13-1.04-.39-1.33-.26-.3-.64-.44-1.13-.44-.55 0-1 .17-1.32.51-.33.34-.49.84-.49 1.52V728h-2.18v-7.53h2.08v.88c.3-.32.65-.56 1.08-.73.43-.17.9-.26 1.42-.26Zm5.1-2.75h2.18V728h-2.18v-10.39Zm4.2 2.86h2.2V728h-2.2v-7.53Zm1.1-1.05c-.4 0-.73-.12-.98-.35a1.14 1.14 0 0 1-.38-.87c0-.35.13-.63.38-.87.25-.23.58-.35.98-.35s.73.11.98.34c.25.22.38.5.38.84 0 .36-.13.67-.38.9-.25.24-.58.36-.98.36Zm7.7.94c.93 0 1.68.28 2.25.84.58.56.87 1.39.87 2.49V728h-2.19v-3.98c0-.6-.13-1.04-.39-1.33-.26-.3-.64-.44-1.13-.44-.55 0-.99.17-1.32.51-.32.34-.49.84-.49 1.52V728h-2.18v-7.53h2.09v.88c.28-.32.64-.56 1.07-.73.43-.17.9-.26 1.42-.26Zm12.56 3.9-.04.59h-5.7c.1.47.34.83.73 1.1.38.28.86.41 1.42.41.4 0 .74-.05 1.04-.17.3-.12.6-.3.86-.56l1.16 1.26c-.71.82-1.75 1.22-3.11 1.22-.85 0-1.6-.16-2.25-.49a3.7 3.7 0 0 1-2.05-3.39 3.69 3.69 0 0 1 1.96-3.37c.62-.34 1.3-.5 2.06-.5.74 0 1.4.15 2 .47.6.32 1.06.78 1.4 1.37.35.6.52 1.28.52 2.06Zm-3.9-2.25c-.5 0-.92.14-1.25.42-.34.28-.54.66-.62 1.15h3.71a1.82 1.82 0 0 0-1.85-1.57Zm9.47-3.81h4.45c1.07 0 2 .2 2.82.62.82.4 1.45.97 1.9 1.7.46.74.69 1.6.69 2.58s-.23 1.84-.69 2.58a4.56 4.56 0 0 1-1.9 1.72c-.81.4-1.75.6-2.82.6h-4.45v-9.8Zm4.34 7.94c.98 0 1.76-.27 2.34-.81.59-.56.88-1.3.88-2.23 0-.93-.3-1.67-.88-2.21a3.25 3.25 0 0 0-2.34-.83h-2.07v6.08h2.07Zm7.07-5.67h2.19V728h-2.19v-7.53Zm1.1-1.05c-.4 0-.73-.12-.98-.35a1.14 1.14 0 0 1-.38-.87c0-.35.12-.63.38-.87.25-.23.58-.35.98-.35s.72.11.98.34c.25.22.37.5.37.84 0 .36-.12.67-.37.9-.26.24-.58.36-.98.36Zm5.65 8.7c-.63 0-1.24-.08-1.83-.23a4.94 4.94 0 0 1-1.43-.59l.73-1.57a5.26 5.26 0 0 0 2.62.73c.92 0 1.38-.23 1.38-.69 0-.21-.13-.37-.38-.46a5.6 5.6 0 0 0-1.16-.24c-.62-.09-1.13-.2-1.53-.32-.4-.12-.75-.33-1.05-.64-.29-.31-.43-.75-.43-1.32 0-.47.13-.9.4-1.26.28-.37.69-.66 1.2-.87a5.2 5.2 0 0 1 1.88-.3c.54 0 1.06.06 1.59.18.53.11.97.27 1.31.47l-.72 1.56a4.35 4.35 0 0 0-2.18-.56c-.46 0-.81.06-1.05.2-.23.13-.35.3-.35.5 0 .23.13.4.38.49.26.1.66.18 1.2.26.62.1 1.13.22 1.52.34.4.11.73.32 1.02.63.3.3.44.74.44 1.29 0 .46-.14.88-.42 1.24-.29.37-.7.65-1.24.86-.53.2-1.16.3-1.9.3Zm9.76-.48c-.21.15-.48.28-.8.36-.3.08-.63.11-.98.11-.9 0-1.59-.23-2.08-.68-.49-.46-.73-1.13-.73-2.02v-3.1h-1.16v-1.67h1.16v-1.84h2.18v1.84h1.88v1.68h-1.88v3.06c0 .32.08.57.24.74.17.17.4.26.7.26.35 0 .64-.1.88-.28l.6 1.54Zm3.31-6.18c.26-.36.61-.64 1.05-.82.45-.2.96-.28 1.54-.28v2.01l-.49-.03c-.62 0-1.11.18-1.47.54-.35.34-.53.86-.53 1.56V728h-2.18v-7.53h2.08v1Zm3.9-1h2.18V728h-2.19v-7.53Zm1.08-1.04c-.4 0-.72-.12-.98-.35a1.14 1.14 0 0 1-.37-.87c0-.35.12-.63.37-.87.26-.23.58-.35.98-.35s.73.11.98.34c.26.22.38.5.38.84 0 .36-.12.67-.38.9-.25.24-.57.36-.98.36Zm7.57.94a3.75 3.75 0 0 1 3.27 1.84c.32.58.49 1.26.49 2.03 0 .78-.17 1.46-.5 2.05a3.51 3.51 0 0 1-1.35 1.36c-.57.31-1.2.47-1.9.47-1.04 0-1.83-.33-2.37-.98v.87h-2.09v-10.39h2.19v3.66a2.9 2.9 0 0 1 2.26-.91Zm-.37 5.96a1.8 1.8 0 0 0 1.37-.56c.36-.38.54-.9.54-1.53s-.18-1.13-.54-1.5a1.78 1.78 0 0 0-1.37-.58c-.56 0-1.03.19-1.39.57a2.1 2.1 0 0 0-.53 1.51c0 .64.18 1.15.53 1.53.36.37.83.56 1.39.56Zm13.18-5.85V728h-2.08v-.9a2.96 2.96 0 0 1-2.33 1.01c-1 0-1.78-.28-2.36-.85-.57-.57-.86-1.42-.86-2.54v-4.25h2.18v3.93c0 1.22.5 1.82 1.53 1.82.52 0 .94-.17 1.26-.5.31-.35.47-.86.47-1.53v-3.72h2.19Zm6.88 7.17c-.22.15-.48.28-.8.36-.3.08-.64.11-.98.11-.9 0-1.6-.23-2.09-.68-.48-.46-.72-1.13-.72-2.02v-3.1h-1.17v-1.67h1.17v-1.84h2.18v1.84h1.88v1.68h-1.88v3.06c0 .32.08.57.24.74.17.17.4.26.7.26.34 0 .64-.1.88-.28l.59 1.54Zm1.22-7.17h2.19V728h-2.19v-7.53Zm1.1-1.05c-.4 0-.73-.12-.98-.35a1.14 1.14 0 0 1-.38-.87c0-.35.12-.63.38-.87.25-.23.57-.35.98-.35.4 0 .72.11.98.34.25.22.37.5.37.84 0 .36-.12.67-.37.9-.26.24-.58.36-.98.36Zm6.7 8.7c-.8 0-1.5-.17-2.14-.5a3.75 3.75 0 0 1-2-3.39 3.65 3.65 0 0 1 2-3.37 4.5 4.5 0 0 1 2.14-.5c.8 0 1.5.16 2.13.5a3.66 3.66 0 0 1 2 3.37 3.76 3.76 0 0 1-2 3.39c-.63.33-1.34.5-2.13.5Zm0-1.8c.56 0 1.02-.19 1.37-.56.36-.38.55-.9.55-1.53s-.19-1.13-.55-1.5a1.79 1.79 0 0 0-1.37-.58c-.56 0-1.02.19-1.39.57-.36.38-.54.88-.54 1.51 0 .64.18 1.15.54 1.53.37.37.83.56 1.39.56Zm10.17-5.96c.93 0 1.68.28 2.25.84.58.56.87 1.39.87 2.49V728h-2.19v-3.98c0-.6-.13-1.04-.39-1.33-.26-.3-.64-.44-1.13-.44-.55 0-1 .17-1.32.51-.32.34-.49.84-.49 1.52V728h-2.18v-7.53h2.08v.88c.3-.32.65-.56 1.08-.73.43-.17.9-.26 1.42-.26Z" fill="#000"/><path fill-rule="evenodd" clip-rule="evenodd" d="M309 664h-8.37a35.12 35.12 0 0 0-7.13-10H309a25 25 0 0 1 0 50h-15.5a35.12 35.12 0 0 0 7.13-10H309a15 15 0 0 0 0-30Zm-100-10h35.5a35.12 35.12 0 0 0-7.13 10H219v10h15.35a35.38 35.38 0 0 0 0 10H219v10h18.37a35.12 35.12 0 0 0 7.13 10H209v-50Zm85 25a25 25 0 1 1-50 0 25 25 0 0 1 50 0Zm-10 0a15 15 0 1 1-30 0 15 15 0 0 1 30 0Z" fill="#000"/><path d="M309 664h-8.37a35.1 35.1 0 0 0-7.13-10H309a25 25 0 0 1 0 50h-15.5a35.1 35.1 0 0 0 7.13-10H309a15 15 0 0 0 0-30ZM209 654h35.5a35.1 35.1 0 0 0-7.13 10H219v10h15.35a35.38 35.38 0 0 0 0 10H219v10h18.37a35.1 35.1 0 0 0 7.13 10H209v-50Z" fill="#000"/><path fill-rule="evenodd" clip-rule="evenodd" d="M294 679a25 25 0 1 1-50 0 25 25 0 0 1 50 0Zm-10 0a15 15 0 1 1-30 0 15 15 0 0 1 30 0Z" fill="#000"/><path opacity=".3" d="m121 652 1.35 4.15h4.36l-3.53 2.56 1.35 4.14-3.53-2.56-3.53 2.56 1.35-4.14-3.53-2.56h4.36L121 652ZM142 657l1.35 4.15h4.36l-3.53 2.56 1.35 4.14-3.53-2.56-3.53 2.56 1.35-4.14-3.53-2.56h4.36L142 657ZM158 673l1.35 4.15h4.36l-3.53 2.56 1.35 4.14-3.53-2.56-3.53 2.56 1.35-4.14-3.53-2.56h4.36L158 673ZM163 694l1.35 4.15h4.36l-3.53 2.56 1.35 4.14-3.53-2.56-3.53 2.56 1.35-4.14-3.53-2.56h4.36L163 694ZM158 715l1.35 4.15h4.36l-3.53 2.56 1.35 4.14-3.53-2.56-3.53 2.56 1.35-4.14-3.53-2.56h4.36L158 715ZM142 731l1.35 4.15h4.36l-3.53 2.56 1.35 4.14-3.53-2.56-3.53 2.56 1.35-4.14-3.53-2.56h4.36L142 731ZM121 736l1.35 4.15h4.36l-3.53 2.56 1.35 4.14-3.53-2.56-3.53 2.56 1.35-4.14-3.53-2.56h4.36L121 736ZM100 731l1.35 4.15h4.36l-3.53 2.56 1.35 4.14-3.53-2.56-3.53 2.56 1.35-4.14-3.53-2.56h4.36L100 731ZM84 715l1.35 4.15h4.36l-3.53 2.56 1.35 4.14L84 723.3l-3.53 2.56 1.35-4.14-3.53-2.56h4.36L84 715ZM79 694l1.35 4.15h4.36l-3.53 2.56 1.35 4.14L79 702.3l-3.53 2.56 1.35-4.14-3.53-2.56h4.36L79 694ZM84 673l1.35 4.15h4.36l-3.53 2.56 1.35 4.14L84 681.3l-3.53 2.56 1.35-4.14-3.53-2.56h4.36L84 673Z" fill="#000"/><path d="m100 657 1.35 4.15h4.36l-3.53 2.56 1.35 4.14-3.53-2.56-3.53 2.56 1.35-4.14-3.53-2.56h4.36L100 657Z" fill="#000"/><rect x="81" y="1010" width="410" height="120" rx="4" fill="#2D2940"/><path d="M227.75 1099.18v1.82h-7.59v-9.8h7.4v1.82h-5.14v2.13h4.55v1.76h-4.55v2.27h5.33Zm9.18-5.71v7.53h-2.07v-.9a2.97 2.97 0 0 1-2.34 1.01 3.2 3.2 0 0 1-2.35-.85c-.58-.57-.87-1.42-.87-2.54v-4.25h2.19v3.93c0 1.22.5 1.82 1.52 1.82.53 0 .95-.17 1.26-.5.32-.35.48-.86.48-1.53v-3.72h2.18Zm4.11.99c.27-.36.62-.64 1.05-.82.45-.19.97-.28 1.54-.28v2.01l-.49-.03c-.62 0-1.11.18-1.47.54-.35.34-.53.86-.53 1.56v3.56h-2.18v-7.53h2.08v.99Zm7.4 6.65c-.79 0-1.5-.16-2.13-.49a3.76 3.76 0 0 1-2-3.39 3.67 3.67 0 0 1 2-3.37c.63-.34 1.34-.5 2.14-.5s1.5.16 2.13.5a3.65 3.65 0 0 1 2 3.37 3.75 3.75 0 0 1-2 3.39c-.63.33-1.34.49-2.13.49Zm0-1.79c.57 0 1.03-.19 1.38-.56.36-.38.55-.89.55-1.53 0-.63-.19-1.13-.55-1.51a1.8 1.8 0 0 0-1.37-.57c-.56 0-1.02.19-1.39.57-.36.38-.55.88-.55 1.51 0 .64.19 1.15.55 1.53.37.37.83.56 1.39.56Zm10.05-5.96a3.72 3.72 0 0 1 3.26 1.84c.33.58.5 1.26.5 2.03 0 .78-.17 1.46-.5 2.05a3.53 3.53 0 0 1-1.36 1.36c-.57.31-1.2.47-1.9.47a2.9 2.9 0 0 1-2.27-.91v3.52h-2.18v-10.25h2.08v.87c.55-.66 1.33-.98 2.37-.98Zm-.38 5.96c.56 0 1.02-.19 1.37-.56.37-.38.55-.89.55-1.53 0-.63-.18-1.13-.55-1.51a1.8 1.8 0 0 0-1.37-.57c-.56 0-1.02.19-1.38.57-.36.38-.54.88-.54 1.51 0 .64.18 1.15.54 1.53.36.37.82.56 1.38.56Zm12.97-2.06-.04.59h-5.7c.1.47.35.84.73 1.11.38.27.86.4 1.43.4a2.46 2.46 0 0 0 1.89-.73l1.16 1.26c-.71.82-1.75 1.22-3.1 1.22-.86 0-1.6-.16-2.26-.49a3.7 3.7 0 0 1-2.05-3.39 3.7 3.7 0 0 1 1.96-3.37c.62-.34 1.3-.5 2.06-.5.74 0 1.4.15 2 .47.6.32 1.07.78 1.4 1.37a4 4 0 0 1 .52 2.06Zm-3.9-2.25c-.5 0-.92.14-1.25.42-.34.28-.54.66-.62 1.15h3.71a1.82 1.82 0 0 0-1.85-1.57Zm8.19-1.65c1.17 0 2.06.28 2.69.84.62.55.93 1.38.93 2.5v4.3h-2.04v-.94c-.41.7-1.18 1.05-2.3 1.05-.57 0-1.08-.1-1.5-.29-.43-.2-.75-.47-.97-.81a2.13 2.13 0 0 1-.34-1.18c0-.7.26-1.25.78-1.65.54-.4 1.35-.6 2.45-.6h1.74c0-.48-.14-.84-.43-1.1-.3-.26-.73-.39-1.3-.39a3.77 3.77 0 0 0-2.18.7l-.78-1.52c.41-.29.9-.52 1.47-.68a7.07 7.07 0 0 1 1.78-.23Zm-.17 6.28c.37 0 .7-.08 1-.25.28-.18.49-.43.61-.77v-.77h-1.5c-.9 0-1.34.29-1.34.88 0 .28.1.51.32.67.22.16.53.24.91.24Zm10.35-6.28c.93 0 1.68.28 2.25.84.58.56.87 1.39.87 2.49v4.31h-2.18v-3.98c0-.59-.13-1.04-.4-1.33-.26-.29-.63-.44-1.13-.44-.55 0-.99.17-1.31.51-.33.34-.5.84-.5 1.52v3.72h-2.18v-7.53h2.09v.88c.29-.32.65-.56 1.07-.73.43-.18.9-.26 1.42-.26Zm13.96 7.81a5.75 5.75 0 0 1-2.75-.66 4.95 4.95 0 0 1-1.92-1.81 5 5 0 0 1-.69-2.6c0-.96.23-1.82.69-2.59a4.98 4.98 0 0 1 1.92-1.82 5.75 5.75 0 0 1 2.75-.66c1.02 0 1.94.22 2.75.66a4.97 4.97 0 0 1 2.62 4.41 4.92 4.92 0 0 1-2.62 4.41c-.81.44-1.73.66-2.75.66Zm0-1.93c.58 0 1.1-.13 1.57-.4s.83-.64 1.1-1.12c.27-.47.4-1.01.4-1.62 0-.61-.13-1.15-.4-1.62a2.74 2.74 0 0 0-1.1-1.11 3.07 3.07 0 0 0-1.56-.41 3.08 3.08 0 0 0-2.68 1.52c-.26.47-.4 1.01-.4 1.62 0 .61.14 1.15.4 1.62a2.94 2.94 0 0 0 2.68 1.52Zm11.5-5.88c.93 0 1.68.28 2.25.84.58.56.87 1.39.87 2.49v4.31h-2.19v-3.98c0-.59-.13-1.04-.39-1.33-.26-.29-.64-.44-1.13-.44-.55 0-1 .17-1.32.51-.33.34-.49.84-.49 1.52v3.72h-2.18v-7.53h2.08v.88c.3-.32.65-.56 1.08-.73.43-.18.9-.26 1.42-.26Zm5.1-2.75h2.18V1101h-2.18v-10.39Zm4.2 2.86h2.2v7.53h-2.2v-7.53Zm1.1-1.05c-.4 0-.73-.12-.98-.35a1.14 1.14 0 0 1-.38-.87c0-.35.13-.63.38-.87.25-.23.58-.35.98-.35s.73.11.98.34c.25.22.38.5.38.84 0 .36-.13.67-.38.91a1.4 1.4 0 0 1-.98.35Zm7.7.94c.93 0 1.68.28 2.25.84.58.56.87 1.39.87 2.49v4.31h-2.19v-3.98c0-.59-.13-1.04-.39-1.33-.26-.29-.64-.44-1.13-.44-.55 0-.99.17-1.32.51-.32.34-.49.84-.49 1.52v3.72h-2.18v-7.53h2.09v.88c.28-.32.64-.56 1.07-.73.43-.18.9-.26 1.42-.26Zm12.56 3.9-.04.59h-5.7c.1.47.34.84.73 1.11.38.27.86.4 1.42.4a2.46 2.46 0 0 0 1.89-.73l1.17 1.26c-.71.82-1.75 1.22-3.11 1.22-.85 0-1.6-.16-2.25-.49a3.7 3.7 0 0 1-2.05-3.39 3.7 3.7 0 0 1 1.96-3.37c.62-.34 1.3-.5 2.06-.5.74 0 1.4.15 2 .47.6.32 1.06.78 1.4 1.37a4 4 0 0 1 .52 2.06Zm-3.9-2.25c-.5 0-.92.14-1.25.42-.34.28-.54.66-.62 1.15h3.71a1.82 1.82 0 0 0-1.85-1.57Zm9.47-3.81h4.45c1.07 0 2 .21 2.82.62.82.4 1.45.97 1.9 1.7.46.74.69 1.6.69 2.58s-.23 1.84-.69 2.58a4.6 4.6 0 0 1-1.9 1.72c-.81.4-1.75.6-2.82.6h-4.45v-9.8Zm4.34 7.94c.98 0 1.76-.27 2.34-.81.59-.55.88-1.3.88-2.23 0-.93-.3-1.67-.88-2.21a3.26 3.26 0 0 0-2.34-.83h-2.07v6.08h2.07Zm7.07-5.67h2.19v7.53h-2.19v-7.53Zm1.1-1.05c-.4 0-.73-.12-.98-.35a1.14 1.14 0 0 1-.38-.87c0-.35.12-.63.38-.87.25-.23.58-.35.98-.35s.72.11.98.34c.25.22.37.5.37.84 0 .36-.12.67-.37.91a1.4 1.4 0 0 1-.98.35Zm5.65 8.69a7.5 7.5 0 0 1-1.83-.22 5.05 5.05 0 0 1-1.43-.59l.73-1.57a5.31 5.31 0 0 0 2.62.73c.92 0 1.38-.23 1.38-.69 0-.21-.13-.36-.38-.46a6.15 6.15 0 0 0-1.16-.24c-.62-.09-1.13-.2-1.53-.32-.4-.12-.75-.33-1.05-.64a1.86 1.86 0 0 1-.43-1.32c0-.47.13-.89.4-1.26.28-.37.69-.66 1.2-.87.54-.2 1.17-.3 1.88-.3a7.04 7.04 0 0 1 2.9.65l-.72 1.56a4.28 4.28 0 0 0-2.18-.56c-.46 0-.81.06-1.05.19-.23.13-.35.3-.35.51 0 .23.13.39.38.49.26.09.66.18 1.2.26.62.11 1.13.22 1.52.34.4.11.73.32 1.02.63.3.31.44.74.44 1.29 0 .46-.14.88-.42 1.24-.29.37-.7.65-1.24.86-.53.19-1.16.29-1.9.29Zm9.76-.47c-.21.15-.48.28-.8.36-.3.07-.63.11-.98.11a3 3 0 0 1-2.08-.68c-.49-.46-.73-1.13-.73-2.02v-3.09h-1.16v-1.68h1.16v-1.84h2.18v1.84h1.88v1.68h-1.88v3.06c0 .32.08.57.24.74.17.17.4.26.7.26.35 0 .64-.1.88-.28l.6 1.54Zm3.31-6.18a2.4 2.4 0 0 1 1.05-.82c.45-.19.96-.28 1.54-.28v2.01l-.49-.03c-.62 0-1.11.18-1.47.54-.35.34-.53.86-.53 1.56v3.56h-2.18v-7.53h2.08v.99Zm3.9-.99h2.18v7.53h-2.19v-7.53Zm1.08-1.05c-.4 0-.72-.12-.98-.35a1.14 1.14 0 0 1-.37-.87c0-.35.12-.63.37-.87.26-.23.58-.35.98-.35s.73.11.98.34c.26.22.38.5.38.84 0 .36-.12.67-.38.91a1.4 1.4 0 0 1-.98.35Zm7.57.94a3.72 3.72 0 0 1 3.27 1.84c.32.58.49 1.26.49 2.03 0 .78-.17 1.46-.5 2.05a3.53 3.53 0 0 1-1.35 1.36c-.57.31-1.2.47-1.9.47-1.04 0-1.83-.32-2.37-.98v.87h-2.09v-10.39h2.19v3.66a2.9 2.9 0 0 1 2.26-.91Zm-.37 5.96c.56 0 1.01-.19 1.37-.56.36-.38.54-.89.54-1.53 0-.63-.18-1.13-.54-1.51a1.8 1.8 0 0 0-1.37-.57c-.56 0-1.03.19-1.39.57-.35.38-.53.88-.53 1.51 0 .64.18 1.15.53 1.53.36.37.83.56 1.39.56Zm13.18-5.85v7.53h-2.08v-.9a2.97 2.97 0 0 1-2.33 1.01 3.2 3.2 0 0 1-2.36-.85c-.57-.57-.86-1.42-.86-2.54v-4.25h2.18v3.93c0 1.22.5 1.82 1.53 1.82.52 0 .94-.17 1.26-.5.31-.35.47-.86.47-1.53v-3.72h2.19Zm6.88 7.17c-.22.15-.48.28-.8.36-.3.07-.64.11-.98.11-.9 0-1.6-.23-2.09-.68-.48-.46-.72-1.13-.72-2.02v-3.09h-1.17v-1.68h1.17v-1.84h2.18v1.84h1.88v1.68h-1.88v3.06c0 .32.08.57.24.74.17.17.4.26.7.26.34 0 .64-.1.88-.28l.59 1.54Zm1.22-7.17h2.19v7.53h-2.19v-7.53Zm1.1-1.05c-.4 0-.73-.12-.98-.35a1.14 1.14 0 0 1-.38-.87c0-.35.12-.63.38-.87.25-.23.57-.35.98-.35.4 0 .72.11.98.34.25.22.37.5.37.84 0 .36-.12.67-.37.91a1.4 1.4 0 0 1-.98.35Zm6.7 8.69c-.8 0-1.5-.16-2.14-.49a3.75 3.75 0 0 1-2-3.39 3.65 3.65 0 0 1 2-3.37c.63-.34 1.34-.5 2.14-.5s1.5.16 2.13.5a3.67 3.67 0 0 1 2 3.37 3.76 3.76 0 0 1-2 3.39c-.63.33-1.34.49-2.13.49Zm0-1.79c.56 0 1.02-.19 1.37-.56.36-.38.55-.89.55-1.53 0-.63-.19-1.13-.55-1.51a1.8 1.8 0 0 0-1.37-.57c-.56 0-1.02.19-1.39.57-.36.38-.54.88-.54 1.51 0 .64.18 1.15.54 1.53.37.37.83.56 1.39.56Zm10.17-5.96c.93 0 1.68.28 2.25.84.58.56.87 1.39.87 2.49v4.31h-2.19v-3.98c0-.59-.13-1.04-.39-1.33-.26-.29-.64-.44-1.13-.44-.55 0-1 .17-1.32.51-.32.34-.49.84-.49 1.52v3.72h-2.18v-7.53h2.08v.88c.3-.32.65-.56 1.08-.73.43-.18.9-.26 1.42-.26Z" fill="#fff"/><path opacity=".3" d="m149 1022 1.35 4.15h4.36l-3.53 2.56 1.35 4.14-3.53-2.56-3.53 2.56 1.35-4.14-3.53-2.56h4.36L149 1022ZM170 1027l1.35 4.15h4.36l-3.53 2.56 1.35 4.14-3.53-2.56-3.53 2.56 1.35-4.14-3.53-2.56h4.36L170 1027ZM186 1043l1.35 4.15h4.36l-3.53 2.56 1.35 4.14-3.53-2.56-3.53 2.56 1.35-4.14-3.53-2.56h4.36L186 1043ZM191 1064l1.35 4.15h4.36l-3.53 2.56 1.35 4.14-3.53-2.56-3.53 2.56 1.35-4.14-3.53-2.56h4.36L191 1064ZM186 1085l1.35 4.15h4.36l-3.53 2.56 1.35 4.14-3.53-2.56-3.53 2.56 1.35-4.14-3.53-2.56h4.36L186 1085ZM170 1101l1.35 4.15h4.36l-3.53 2.56 1.35 4.14-3.53-2.56-3.53 2.56 1.35-4.14-3.53-2.56h4.36L170 1101ZM149 1106l1.35 4.15h4.36l-3.53 2.56 1.35 4.14-3.53-2.56-3.53 2.56 1.35-4.14-3.53-2.56h4.36L149 1106ZM128 1101l1.35 4.15h4.36l-3.53 2.56 1.35 4.14-3.53-2.56-3.53 2.56 1.35-4.14-3.53-2.56h4.36L128 1101ZM112 1085l1.35 4.15h4.36l-3.53 2.56 1.35 4.14-3.53-2.56-3.53 2.56 1.35-4.14-3.53-2.56h4.36L112 1085ZM107 1064l1.35 4.15h4.36l-3.53 2.56 1.35 4.14-3.53-2.56-3.53 2.56 1.35-4.14-3.53-2.56h4.36L107 1064ZM112 1043l1.35 4.15h4.36l-3.53 2.56 1.35 4.14-3.53-2.56-3.53 2.56 1.35-4.14-3.53-2.56h4.36L112 1043Z" fill="#fff"/><path d="m128 1027 1.35 4.15h4.36l-3.53 2.56 1.35 4.14-3.53-2.56-3.53 2.56 1.35-4.14-3.53-2.56h4.36L128 1027ZM309.4 1044h-7.56a31.57 31.57 0 0 0-6.46-9h14.02a22.55 22.55 0 0 1 22.6 22.5 22.55 22.55 0 0 1-22.6 22.5h-14.02a31.57 31.57 0 0 0 6.45-9h7.57c7.49 0 13.56-6.04 13.56-13.5s-6.07-13.5-13.56-13.5ZM219 1035h32.1a31.57 31.57 0 0 0-6.45 9h-16.61v9h13.88a31.63 31.63 0 0 0 0 9h-13.88v9h16.6c1.61 3.37 3.8 6.42 6.46 9H219v-45Z" fill="#fff"/><path fill-rule="evenodd" clip-rule="evenodd" d="M295.84 1057.5a22.55 22.55 0 0 1-22.6 22.5 22.55 22.55 0 0 1-22.6-22.5 22.55 22.55 0 0 1 22.6-22.5 22.55 22.55 0 0 1 22.6 22.5Zm-9.04 0c0 7.46-6.07 13.5-13.56 13.5a13.53 13.53 0 0 1-13.56-13.5c0-7.46 6.07-13.5 13.56-13.5s13.56 6.04 13.56 13.5Z" fill="#fff"/><path d="M227.75 959.18V961h-7.59v-9.8h7.4v1.82h-5.14v2.13h4.55v1.76h-4.55v2.27h5.33Zm9.18-5.71V961h-2.07v-.9a2.96 2.96 0 0 1-2.34 1.01c-.99 0-1.77-.28-2.35-.85-.58-.57-.87-1.42-.87-2.54v-4.25h2.19v3.93c0 1.22.5 1.82 1.52 1.82.53 0 .95-.17 1.26-.5.32-.35.48-.86.48-1.53v-3.72h2.18Zm4.11 1c.27-.37.62-.65 1.05-.83.45-.2.97-.28 1.54-.28v2.01a7.6 7.6 0 0 0-.49-.03c-.62 0-1.11.18-1.47.54-.35.34-.53.86-.53 1.56V961h-2.18v-7.53h2.08v1Zm7.4 6.64c-.79 0-1.5-.16-2.13-.49a3.76 3.76 0 0 1-2-3.39 3.66 3.66 0 0 1 2-3.37 4.5 4.5 0 0 1 2.14-.5c.8 0 1.5.16 2.13.5a3.65 3.65 0 0 1 2 3.37 3.8 3.8 0 0 1-2 3.4c-.63.32-1.34.48-2.13.48Zm0-1.79a1.8 1.8 0 0 0 1.38-.56c.36-.38.55-.9.55-1.53s-.19-1.13-.55-1.5a1.78 1.78 0 0 0-1.37-.58c-.56 0-1.02.19-1.39.57-.36.38-.55.88-.55 1.51 0 .64.19 1.15.55 1.53.37.37.83.56 1.39.56Zm10.05-5.96a3.75 3.75 0 0 1 3.26 1.84c.33.58.5 1.26.5 2.03 0 .78-.17 1.46-.5 2.05a3.51 3.51 0 0 1-1.36 1.36c-.57.31-1.2.47-1.9.47a2.9 2.9 0 0 1-2.27-.9v3.5h-2.18v-10.24h2.08v.87c.55-.66 1.33-.98 2.37-.98Zm-.38 5.96a1.8 1.8 0 0 0 1.37-.56c.37-.38.55-.9.55-1.53s-.18-1.13-.55-1.5a1.78 1.78 0 0 0-1.37-.58c-.56 0-1.02.19-1.38.57a2.1 2.1 0 0 0-.54 1.51c0 .64.18 1.15.54 1.53.36.37.82.56 1.38.56Zm12.97-2.06-.04.59h-5.7c.1.47.35.83.73 1.1.38.28.86.41 1.43.41.39 0 .74-.05 1.03-.17.31-.12.6-.3.86-.56l1.16 1.26c-.71.82-1.75 1.22-3.1 1.22-.86 0-1.6-.16-2.26-.49a3.7 3.7 0 0 1-2.05-3.39 3.69 3.69 0 0 1 1.96-3.37c.62-.34 1.3-.5 2.06-.5.74 0 1.4.15 2 .47.6.32 1.07.78 1.4 1.37.35.6.52 1.28.52 2.06Zm-3.9-2.25c-.5 0-.92.14-1.25.42-.34.28-.54.66-.62 1.15h3.71a1.82 1.82 0 0 0-1.85-1.57Zm8.19-1.65c1.17 0 2.06.28 2.69.84.62.55.93 1.38.93 2.5v4.3h-2.04v-.94c-.41.7-1.18 1.05-2.3 1.05-.57 0-1.08-.1-1.5-.3a2.11 2.11 0 0 1-1.3-1.99c-.01-.69.25-1.24.77-1.64.54-.4 1.35-.6 2.45-.6h1.74c0-.48-.14-.84-.43-1.1-.3-.26-.73-.39-1.3-.39a3.73 3.73 0 0 0-2.18.7l-.78-1.52c.41-.3.9-.52 1.47-.68a6.69 6.69 0 0 1 1.78-.23Zm-.17 6.28c.37 0 .7-.08 1-.25.28-.18.49-.43.61-.77v-.77h-1.5c-.9 0-1.34.3-1.34.88 0 .28.1.5.32.67.22.16.53.24.91.24Zm10.35-6.28c.93 0 1.68.28 2.25.84.58.56.87 1.39.87 2.49V961h-2.18v-3.98c0-.6-.13-1.04-.4-1.33-.26-.3-.63-.44-1.13-.44-.55 0-.99.17-1.31.51-.33.34-.5.84-.5 1.52V961h-2.18v-7.53h2.09v.88c.29-.32.65-.56 1.07-.73.43-.17.9-.26 1.42-.26Zm13.96 7.8a5.76 5.76 0 0 1-2.75-.65 4.97 4.97 0 0 1-1.92-1.8 5.03 5.03 0 0 1-.69-2.61 4.95 4.95 0 0 1 2.6-4.41 5.76 5.76 0 0 1 2.76-.66c1.02 0 1.94.22 2.75.66a4.93 4.93 0 0 1 2.62 4.41 4.95 4.95 0 0 1-2.62 4.41c-.81.44-1.73.66-2.75.66Zm0-1.92c.58 0 1.1-.13 1.57-.4s.83-.64 1.1-1.12c.27-.47.4-1.01.4-1.62 0-.6-.13-1.15-.4-1.62a2.76 2.76 0 0 0-1.1-1.11c-.46-.27-.99-.4-1.56-.4a3.07 3.07 0 0 0-2.68 1.5c-.26.48-.4 1.02-.4 1.63 0 .6.14 1.15.4 1.62a2.97 2.97 0 0 0 2.68 1.52Zm11.5-5.88c.93 0 1.68.28 2.25.84.58.56.87 1.39.87 2.49V961h-2.19v-3.98c0-.6-.13-1.04-.39-1.33-.26-.3-.64-.44-1.13-.44-.55 0-1 .17-1.32.51-.33.34-.49.84-.49 1.52V961h-2.18v-7.53h2.08v.88c.3-.32.65-.56 1.08-.73.43-.17.9-.26 1.42-.26Zm5.1-2.75h2.18V961h-2.18v-10.39Zm4.2 2.86h2.2V961h-2.2v-7.53Zm1.1-1.05c-.4 0-.73-.12-.98-.35a1.14 1.14 0 0 1-.38-.87c0-.35.13-.63.38-.87.25-.23.58-.35.98-.35s.73.11.98.34c.25.22.38.5.38.84 0 .36-.13.67-.38.9-.25.24-.58.36-.98.36Zm7.7.94c.93 0 1.68.28 2.25.84.58.56.87 1.39.87 2.49V961h-2.19v-3.98c0-.6-.13-1.04-.39-1.33-.26-.3-.64-.44-1.13-.44-.55 0-.99.17-1.32.51-.32.34-.49.84-.49 1.52V961h-2.18v-7.53h2.09v.88c.28-.32.64-.56 1.07-.73.43-.17.9-.26 1.42-.26Zm12.56 3.9-.04.59h-5.7c.1.47.34.83.73 1.1.38.28.86.41 1.42.41.4 0 .74-.05 1.04-.17.3-.12.6-.3.86-.56l1.16 1.26c-.71.82-1.75 1.22-3.11 1.22-.85 0-1.6-.16-2.25-.49a3.7 3.7 0 0 1-2.05-3.39 3.69 3.69 0 0 1 1.96-3.37c.62-.34 1.3-.5 2.06-.5.74 0 1.4.15 2 .47.6.32 1.06.78 1.4 1.37.35.6.52 1.28.52 2.06Zm-3.9-2.25c-.5 0-.92.14-1.25.42-.34.28-.54.66-.62 1.15h3.71a1.82 1.82 0 0 0-1.85-1.57Zm9.47-3.81h4.45c1.07 0 2 .2 2.82.62.82.4 1.45.97 1.9 1.7.46.74.69 1.6.69 2.58s-.23 1.84-.69 2.58a4.56 4.56 0 0 1-1.9 1.72c-.81.4-1.75.6-2.82.6h-4.45v-9.8Zm4.34 7.94c.98 0 1.76-.27 2.34-.81.59-.56.88-1.3.88-2.23 0-.93-.3-1.67-.88-2.21a3.25 3.25 0 0 0-2.34-.83h-2.07v6.08h2.07Zm7.07-5.67h2.19V961h-2.19v-7.53Zm1.1-1.05c-.4 0-.73-.12-.98-.35a1.14 1.14 0 0 1-.38-.87c0-.35.12-.63.38-.87.25-.23.58-.35.98-.35s.72.11.98.34c.25.22.37.5.37.84 0 .36-.12.67-.37.9-.26.24-.58.36-.98.36Zm5.65 8.7c-.63 0-1.24-.08-1.83-.23a4.94 4.94 0 0 1-1.43-.59l.73-1.57a5.26 5.26 0 0 0 2.62.73c.92 0 1.38-.23 1.38-.69 0-.21-.13-.37-.38-.46a5.6 5.6 0 0 0-1.16-.24c-.62-.09-1.13-.2-1.53-.32-.4-.12-.75-.33-1.05-.64-.29-.31-.43-.75-.43-1.32 0-.47.13-.9.4-1.26.28-.37.69-.66 1.2-.87a5.2 5.2 0 0 1 1.88-.3c.54 0 1.06.06 1.59.18.53.11.97.27 1.31.47l-.72 1.56a4.35 4.35 0 0 0-2.18-.56c-.46 0-.81.06-1.05.2-.23.13-.35.3-.35.5 0 .23.13.4.38.49.26.1.66.18 1.2.26.62.1 1.13.22 1.52.34.4.11.73.32 1.02.63.3.3.44.74.44 1.29 0 .46-.14.88-.42 1.24-.29.37-.7.65-1.24.86-.53.2-1.16.3-1.9.3Zm9.76-.48c-.21.15-.48.28-.8.36-.3.08-.63.11-.98.11-.9 0-1.59-.23-2.08-.68-.49-.46-.73-1.13-.73-2.02v-3.1h-1.16v-1.67h1.16v-1.84h2.18v1.84h1.88v1.68h-1.88v3.06c0 .32.08.57.24.74.17.17.4.26.7.26.35 0 .64-.1.88-.28l.6 1.54Zm3.31-6.18c.26-.36.61-.64 1.05-.82.45-.2.96-.28 1.54-.28v2.01l-.49-.03c-.62 0-1.11.18-1.47.54-.35.34-.53.86-.53 1.56V961h-2.18v-7.53h2.08v1Zm3.9-1h2.18V961h-2.19v-7.53Zm1.08-1.04c-.4 0-.72-.12-.98-.35a1.14 1.14 0 0 1-.37-.87c0-.35.12-.63.37-.87.26-.23.58-.35.98-.35s.73.11.98.34c.26.22.38.5.38.84 0 .36-.12.67-.38.9-.25.24-.57.36-.98.36Zm7.57.94a3.75 3.75 0 0 1 3.27 1.84c.32.58.49 1.26.49 2.03 0 .78-.17 1.46-.5 2.05a3.51 3.51 0 0 1-1.35 1.36c-.57.31-1.2.47-1.9.47-1.04 0-1.83-.33-2.37-.98v.87h-2.09v-10.39h2.19v3.66a2.9 2.9 0 0 1 2.26-.91Zm-.37 5.96a1.8 1.8 0 0 0 1.37-.56c.36-.38.54-.9.54-1.53s-.18-1.13-.54-1.5a1.78 1.78 0 0 0-1.37-.58c-.56 0-1.03.19-1.39.57a2.1 2.1 0 0 0-.53 1.51c0 .64.18 1.15.53 1.53.36.37.83.56 1.39.56Zm13.18-5.85V961h-2.08v-.9a2.96 2.96 0 0 1-2.33 1.01c-1 0-1.78-.28-2.36-.85-.57-.57-.86-1.42-.86-2.54v-4.25h2.18v3.93c0 1.22.5 1.82 1.53 1.82.52 0 .94-.17 1.26-.5.31-.35.47-.86.47-1.53v-3.72h2.19Zm6.88 7.17c-.22.15-.48.28-.8.36-.3.08-.64.11-.98.11-.9 0-1.6-.23-2.09-.68-.48-.46-.72-1.13-.72-2.02v-3.1h-1.17v-1.67h1.17v-1.84h2.18v1.84h1.88v1.68h-1.88v3.06c0 .32.08.57.24.74.17.17.4.26.7.26.34 0 .64-.1.88-.28l.59 1.54Zm1.22-7.17h2.19V961h-2.19v-7.53Zm1.1-1.05c-.4 0-.73-.12-.98-.35a1.14 1.14 0 0 1-.38-.87c0-.35.12-.63.38-.87.25-.23.57-.35.98-.35.4 0 .72.11.98.34.25.22.37.5.37.84 0 .36-.12.67-.37.9-.26.24-.58.36-.98.36Zm6.7 8.7c-.8 0-1.5-.17-2.14-.5a3.75 3.75 0 0 1-2-3.39 3.65 3.65 0 0 1 2-3.37 4.5 4.5 0 0 1 2.14-.5c.8 0 1.5.16 2.13.5a3.66 3.66 0 0 1 2 3.37 3.76 3.76 0 0 1-2 3.39c-.63.33-1.34.5-2.13.5Zm0-1.8c.56 0 1.02-.19 1.37-.56.36-.38.55-.9.55-1.53s-.19-1.13-.55-1.5a1.79 1.79 0 0 0-1.37-.58c-.56 0-1.02.19-1.39.57-.36.38-.54.88-.54 1.51 0 .64.18 1.15.54 1.53.37.37.83.56 1.39.56Zm10.17-5.96c.93 0 1.68.28 2.25.84.58.56.87 1.39.87 2.49V961h-2.19v-3.98c0-.6-.13-1.04-.39-1.33-.26-.3-.64-.44-1.13-.44-.55 0-1 .17-1.32.51-.32.34-.49.84-.49 1.52V961h-2.18v-7.53h2.08v.88c.3-.32.65-.56 1.08-.73.43-.17.9-.26 1.42-.26Z" fill="#2D2940"/><path opacity=".3" d="m149 882 1.35 4.15h4.36l-3.53 2.56 1.35 4.14-3.53-2.56-3.53 2.56 1.35-4.14-3.53-2.56h4.36L149 882ZM170 887l1.35 4.15h4.36l-3.53 2.56 1.35 4.14-3.53-2.56-3.53 2.56 1.35-4.14-3.53-2.56h4.36L170 887ZM186 903l1.35 4.15h4.36l-3.53 2.56 1.35 4.14-3.53-2.56-3.53 2.56 1.35-4.14-3.53-2.56h4.36L186 903ZM191 924l1.35 4.15h4.36l-3.53 2.56 1.35 4.14-3.53-2.56-3.53 2.56 1.35-4.14-3.53-2.56h4.36L191 924ZM186 945l1.35 4.15h4.36l-3.53 2.56 1.35 4.14-3.53-2.56-3.53 2.56 1.35-4.14-3.53-2.56h4.36L186 945ZM170 961l1.35 4.15h4.36l-3.53 2.56 1.35 4.14-3.53-2.56-3.53 2.56 1.35-4.14-3.53-2.56h4.36L170 961ZM149 966l1.35 4.15h4.36l-3.53 2.56 1.35 4.14-3.53-2.56-3.53 2.56 1.35-4.14-3.53-2.56h4.36L149 966ZM128 961l1.35 4.15h4.36l-3.53 2.56 1.35 4.14-3.53-2.56-3.53 2.56 1.35-4.14-3.53-2.56h4.36L128 961ZM112 945l1.35 4.15h4.36l-3.53 2.56 1.35 4.14-3.53-2.56-3.53 2.56 1.35-4.14-3.53-2.56h4.36L112 945ZM107 924l1.35 4.15h4.36l-3.53 2.56 1.35 4.14-3.53-2.56-3.53 2.56 1.35-4.14-3.53-2.56h4.36L107 924ZM112 903l1.35 4.15h4.36l-3.53 2.56 1.35 4.14-3.53-2.56-3.53 2.56 1.35-4.14-3.53-2.56h4.36L112 903Z" fill="#2D2940"/><path d="m128 887 1.35 4.15h4.36l-3.53 2.56 1.35 4.14-3.53-2.56-3.53 2.56 1.35-4.14-3.53-2.56h4.36L128 887ZM309.4 904h-7.56a31.58 31.58 0 0 0-6.46-9h14.02a22.55 22.55 0 0 1 22.6 22.5 22.55 22.55 0 0 1-22.6 22.5h-14.02a31.58 31.58 0 0 0 6.45-9h7.57c7.49 0 13.56-6.04 13.56-13.5S316.89 904 309.4 904ZM219 895h32.1a31.58 31.58 0 0 0-6.45 9h-16.61v9h13.88a31.65 31.65 0 0 0 0 9h-13.88v9h16.6c1.61 3.37 3.8 6.42 6.46 9H219v-45Z" fill="#2D2940"/><path fill-rule="evenodd" clip-rule="evenodd" d="M295.84 917.5a22.55 22.55 0 0 1-22.6 22.5 22.55 22.55 0 0 1-22.6-22.5 22.55 22.55 0 0 1 22.6-22.5 22.55 22.55 0 0 1 22.6 22.5Zm-9.04 0c0 7.46-6.07 13.5-13.56 13.5a13.53 13.53 0 0 1-13.56-13.5c0-7.46 6.07-13.5 13.56-13.5s13.56 6.04 13.56 13.5Z" fill="#2D2940"/><path d="M126.15 824.2v9.8h-1.86l-4.89-5.95V834h-2.24v-9.8h1.88l4.87 5.95v-5.95h2.24Zm5.2 2.16c1.17 0 2.06.28 2.7.84.62.55.93 1.38.93 2.5v4.3h-2.04v-.94c-.42.7-1.18 1.05-2.3 1.05-.58 0-1.08-.1-1.51-.3-.42-.19-.75-.46-.97-.8a2.11 2.11 0 0 1-.33-1.18c0-.7.26-1.25.78-1.65.53-.4 1.35-.6 2.45-.6h1.73c0-.48-.14-.84-.43-1.1-.29-.26-.72-.39-1.3-.39a3.73 3.73 0 0 0-2.17.7l-.78-1.52c.4-.3.9-.52 1.46-.68a6.67 6.67 0 0 1 1.78-.23Zm-.16 6.28c.37 0 .7-.08.99-.25.29-.18.5-.43.61-.77v-.77h-1.5c-.89 0-1.34.3-1.34.88 0 .28.11.5.33.67.22.16.52.24.9.24Zm15.41-6.28a3 3 0 0 1 2.24.84c.56.55.84 1.38.84 2.49V834h-2.18v-3.98c0-.6-.13-1.04-.38-1.33-.24-.3-.6-.44-1.05-.44-.51 0-.92.16-1.22.5-.3.33-.45.82-.45 1.47V834h-2.18v-3.98c0-1.18-.48-1.77-1.43-1.77-.5 0-.9.16-1.2.5-.3.33-.45.82-.45 1.47V834h-2.18v-7.53h2.08v.87c.28-.32.62-.56 1.02-.73a3.52 3.52 0 0 1 2.79.07c.43.2.77.5 1.03.9.31-.38.7-.69 1.17-.9.47-.22 1-.32 1.55-.32Zm12.5 3.9-.04.59h-5.7c.1.47.34.83.73 1.1.38.28.86.41 1.42.41.4 0 .74-.05 1.04-.17.3-.12.6-.3.85-.56l1.17 1.26c-.71.82-1.75 1.22-3.11 1.22-.85 0-1.6-.16-2.25-.49a3.7 3.7 0 0 1-2.05-3.39 3.68 3.68 0 0 1 1.96-3.37c.62-.34 1.3-.5 2.06-.5.74 0 1.4.15 2 .47.6.32 1.06.78 1.4 1.37a4 4 0 0 1 .52 2.06Zm-3.9-2.25c-.5 0-.92.14-1.25.42-.34.28-.54.66-.62 1.15h3.71a1.83 1.83 0 0 0-1.85-1.57Zm12.9 6.1c-.8 0-1.5-.16-2.14-.49a3.75 3.75 0 0 1-2-3.39 3.65 3.65 0 0 1 2-3.37 4.5 4.5 0 0 1 2.14-.5c.8 0 1.5.16 2.13.5a3.66 3.66 0 0 1 2 3.37 3.76 3.76 0 0 1-2 3.39c-.63.33-1.33.5-2.13.5Zm0-1.79c.56 0 1.02-.19 1.37-.56.37-.38.55-.9.55-1.53s-.18-1.13-.55-1.5a1.79 1.79 0 0 0-1.37-.58c-.56 0-1.02.19-1.38.57-.37.38-.55.88-.55 1.51 0 .64.18 1.15.55 1.53.36.37.82.56 1.38.56Zm7.99-5.68h1.93v1.68h-1.88V834h-2.18v-5.68h-1.16v-1.68h1.16v-.34c0-.86.25-1.54.75-2.04.52-.5 1.24-.76 2.16-.76a3.68 3.68 0 0 1 1.67.4l-.58 1.59a1.5 1.5 0 0 0-.88-.27c-.66 0-1 .37-1 1.1v.32Zm11.84 7c-.22.15-.48.28-.8.36-.3.08-.63.11-.98.11-.9 0-1.6-.23-2.09-.68-.48-.46-.72-1.13-.72-2.02v-3.1h-1.16v-1.67h1.16v-1.84h2.18v1.84h1.88v1.68h-1.88v3.06c0 .32.08.57.24.74.17.17.4.26.7.26.34 0 .64-.1.88-.28l.59 1.54Zm5.8-7.28c.94 0 1.69.28 2.26.84.57.56.86 1.39.86 2.49V834h-2.18v-3.98c0-.6-.13-1.04-.4-1.33-.25-.3-.63-.44-1.13-.44-.55 0-.98.17-1.31.51-.33.34-.5.84-.5 1.52V834h-2.18v-10.39h2.19v3.64c.29-.29.64-.5 1.05-.66a3.7 3.7 0 0 1 1.34-.23Zm12.56 3.9-.04.59h-5.7c.1.47.35.83.73 1.1.38.28.86.41 1.43.41.4 0 .74-.05 1.04-.17.3-.12.59-.3.85-.56l1.16 1.26c-.7.82-1.74 1.22-3.1 1.22-.85 0-1.6-.16-2.26-.49a3.7 3.7 0 0 1-2.04-3.39 3.69 3.69 0 0 1 1.96-3.37c.61-.34 1.3-.5 2.05-.5.74 0 1.4.15 2 .47.6.32 1.07.78 1.4 1.37.35.6.52 1.28.52 2.06Zm-3.9-2.25c-.5 0-.91.14-1.25.42-.33.28-.54.66-.61 1.15h3.7a1.82 1.82 0 0 0-1.85-1.57Zm15-1.65a3 3 0 0 1 2.24.84c.56.55.84 1.38.84 2.49V834h-2.18v-3.98c0-.6-.13-1.04-.38-1.33-.24-.3-.59-.44-1.05-.44-.51 0-.92.16-1.22.5-.3.33-.44.82-.44 1.47V834H213v-3.98c0-1.18-.47-1.77-1.43-1.77-.5 0-.9.16-1.2.5-.3.33-.45.82-.45 1.47V834h-2.18v-7.53h2.08v.87c.28-.32.63-.56 1.03-.73a3.52 3.52 0 0 1 2.78.07c.43.2.78.5 1.04.9.3-.38.7-.69 1.16-.9.48-.22 1-.32 1.55-.32Zm12.5 3.9-.04.59h-5.7c.1.47.35.83.73 1.1.38.28.86.41 1.43.41.39 0 .73-.05 1.03-.17.31-.12.6-.3.86-.56l1.16 1.26c-.7.82-1.75 1.22-3.1 1.22-.86 0-1.6-.16-2.26-.49a3.7 3.7 0 0 1-2.05-3.39 3.68 3.68 0 0 1 1.96-3.37c.62-.34 1.3-.5 2.06-.5.74 0 1.4.15 2 .47.6.32 1.07.78 1.4 1.37a4 4 0 0 1 .52 2.06Zm-3.9-2.25c-.5 0-.91.14-1.25.42-.34.28-.54.66-.62 1.15h3.71a1.83 1.83 0 0 0-1.85-1.57Z" fill="#2D2940"/><rect x="101" y="824" width="10" height="10" rx="5" fill="#000"/></g><defs><filter id="a" x="10" y="14" width="788" height="1186" filterUnits="userSpaceOnUse" color-interpolation-filters="sRGB"><feFlood flood-opacity="0" result="BackgroundImageFix"/><feColorMatrix in="SourceAlpha" values="0 0 0 0 0 0 0 0 0 0 0 0 0 0 0 0 0 0 127 0" result="hardAlpha"/><feOffset dy="4"/><feGaussianBlur stdDeviation="5"/><feColorMatrix values="0 0 0 0 0 0 0 0 0 0 0 0 0 0 0 0 0 0 0.1 0"/><feBlend in2="BackgroundImageFix" result="effect1_dropShadow_386:502"/><feBlend in="SourceGraphic" in2="effect1_dropShadow_386:502" result="shape"/></filter></defs></svg>